<?xml version="1.0" encoding="UTF-8"?>
<svg version="1.1" xmlns="http://www.w3.org/2000/svg" width="774" height="223">
<path d="M0 0 C0.66 0.33 1.32 0.66 2 1 C2.40729228 3.32156597 2.74438677 5.6568787 3 8 C4.65 7.67 6.3 7.34 8 7 C8.33 8.32 8.66 9.64 9 11 C7.68 11.33 6.36 11.66 5 12 C6.71511104 19.71799967 10.12259106 23.8690956 16 29 C16.68964844 29.6084375 17.37929688 30.216875 18.08984375 30.84375 C19.42912536 32.01594274 20.77534397 33.18026445 22.12890625 34.3359375 C23.88400557 35.89684002 25.46553106 37.53018729 27.0625 39.25 C32.20558638 44.44838839 39.06346244 45.66302564 46 47 C46.33 48.32 46.66 49.64 47 51 C46.34 51.33 45.68 51.66 45 52 C45.66 52.33 46.32 52.66 47 53 C47 55.64 47 58.28 47 61 C46.34 61.33 45.68 61.66 45 62 C44.67 62.99 44.34 63.98 44 65 C42.68 65 41.36 65 40 65 C39.67 65.99 39.34 66.98 39 68 C38.01 68 37.02 68 36 68 C36 68.66 36 69.32 36 70 C36.66 70 37.32 70 38 70 C37 73 37 73 35 74 C35.763125 74.391875 36.52625 74.78375 37.3125 75.1875 C40.29324256 77.19776824 41.23350771 78.92783949 43 82 C43.68028259 82.39564651 44.36056519 82.79129303 45.0614624 83.19892883 C47 85 47 85 47.48101807 88.24601746 C47.4926119 89.603038 47.48198108 90.96035501 47.45410156 92.31713867 C47.45468567 93.05884811 47.45526978 93.80055756 47.45587158 94.56474304 C47.45308486 97.01629444 47.42196706 99.4666298 47.390625 101.91796875 C47.38316465 103.61761307 47.37747075 105.317266 47.37347412 107.016922 C47.35820142 111.49042509 47.31890585 115.9634087 47.2746582 120.43670654 C47.23374057 125.00135266 47.21547063 129.56608272 47.1953125 134.13085938 C47.15241292 143.08746783 47.08414204 152.04369072 47 161 C44.69 161.33 42.38 161.66 40 162 C40 162.99 40 163.98 40 165 C35.07872966 165.16682272 31.49656104 165.24828052 27 163 C26.67 163.99 26.34 164.98 26 166 C23.9375 166.6875 23.9375 166.6875 22 167 C21.67 168.65 21.34 170.3 21 172 C21.75925781 171.855625 22.51851562 171.71125 23.30078125 171.5625 C24.29464844 171.376875 25.28851562 171.19125 26.3125 171 C27.29863281 170.814375 28.28476562 170.62875 29.30078125 170.4375 C32 170 32 170 35 170 C35.33 169.34 35.66 168.68 36 168 C36.99 168 37.98 168 39 168 C39.33 167.34 39.66 166.68 40 166 C40.66 166.66 41.32 167.32 42 168 C43.65 167.67 45.3 167.34 47 167 C47 172.61 47 178.22 47 184 C-206.11 184 -459.22 184 -720 184 C-721.15033784 164.44425676 -721.15033784 164.44425676 -721.0625 156.9375 C-721.05798828 156.15568359 -721.05347656 155.37386719 -721.04882812 154.56835938 C-721.03744066 152.71220315 -721.01953777 150.85608832 -721 149 C-719.90429688 149.48210937 -718.80859375 149.96421875 -717.6796875 150.4609375 C-714.67775011 151.7165249 -712.16663718 152.44118167 -709 153 C-708.67 153.33 -708.34 153.66 -708 154 C-707.67 153.01 -707.34 152.02 -707 151 C-705.35 151.33 -703.7 151.66 -702 152 C-701.34 153.98 -700.68 155.96 -700 158 C-699.34 157.67 -698.68 157.34 -698 157 C-698 156.01 -698 155.02 -698 154 C-695.69 154.33 -693.38 154.66 -691 155 C-690.34 154.01 -689.68 153.02 -689 152 C-686.03 152.99 -686.03 152.99 -683 154 C-683 153.34 -683 152.68 -683 152 C-680.94696077 152.51325981 -678.90563418 153.02775465 -676.875 153.625 C-674.91960301 154.2156101 -674.91960301 154.2156101 -673 153 C-672.01 153.99 -672.01 153.99 -671 155 C-670.13375 154.566875 -670.13375 154.566875 -669.25 154.125 C-668.5075 153.75375 -667.765 153.3825 -667 153 C-666.38125 152.62875 -665.7625 152.2575 -665.125 151.875 C-663 151 -663 151 -659.9375 151.0625 C-658.4834375 151.0315625 -658.4834375 151.0315625 -657 151 C-656.525625 150.484375 -656.05125 149.96875 -655.5625 149.4375 C-655.046875 148.963125 -654.53125 148.48875 -654 148 C-650.3125 148.3125 -650.3125 148.3125 -647 149 C-647 148.34 -647 147.68 -647 147 C-642.125 148.75 -642.125 148.75 -641 151 C-637.7 150.01 -634.4 149.02 -631 148 C-630.01 148.99 -629.02 149.98 -628 151 C-627.67 150.34 -627.34 149.68 -627 149 C-626.01 149 -625.02 149 -624 149 C-624 149.99 -624 150.98 -624 152 C-623.0925 152.061875 -622.185 152.12375 -621.25 152.1875 C-617.20219941 153.19945015 -616.49261259 154.78372569 -614 158 C-610.98508014 159.13059495 -609.67837962 159.27501877 -606.6875 158.0625 C-606.130625 157.711875 -605.57375 157.36125 -605 157 C-605.33 157.99 -605.66 158.98 -606 160 C-604.35 160 -602.7 160 -601 160 C-601 160.99 -601 161.98 -601 163 C-601.66 163 -602.32 163 -603 163 C-603 163.66 -603 164.32 -603 165 C-602.33613281 165.03738281 -601.67226563 165.07476562 -600.98828125 165.11328125 C-595.71025602 165.50624371 -592.52727687 166.18574681 -588 169 C-584.5 169.66666667 -584.5 169.66666667 -581 169 C-578.06026719 166.64581624 -578.06026719 166.64581624 -576 164 C-575.34 164.66 -574.68 165.32 -574 166 C-573.34 163.69 -572.68 161.38 -572 159 C-571.319375 159.04125 -570.63875 159.0825 -569.9375 159.125 C-566.85982815 159.11642584 -566.85982815 159.11642584 -563.5 157.9375 C-558.93344229 156.7143149 -556.54348216 157.45120634 -552.1875 159 C-547.51057183 160.46727158 -542.91373662 161 -538 161 C-536.68 161 -535.36 161 -534 161 C-533.01 160.67 -532.02 160.34 -531 160 C-530.67 159.34 -530.34 158.68 -530 158 C-529.67 157.34 -529.34 156.68 -529 156 C-527.35 156 -525.7 156 -524 156 C-524.33 156.99 -524.66 157.98 -525 159 C-522.03 159.66 -519.06 160.32 -516 161 C-516.33 162.32 -516.66 163.64 -517 165 C-514.36 165 -511.72 165 -509 165 C-508.67 165.66 -508.34 166.32 -508 167 C-506.02 166.67 -504.04 166.34 -502 166 C-502 167.32 -502 168.64 -502 170 C-501.01 169.67 -500.02 169.34 -499 169 C-498.67 168.01 -498.34 167.02 -498 166 C-497.46375 166.33 -496.9275 166.66 -496.375 167 C-493.4608939 168.22699204 -491.13132292 168.14233286 -488 168 C-488 168.66 -488 169.32 -488 170 C-487.05125 169.814375 -486.1025 169.62875 -485.125 169.4375 C-482 169 -482 169 -480 170 C-480.33 168.68 -480.66 167.36 -481 166 C-479.79601562 165.86722656 -478.59203125 165.73445312 -477.3515625 165.59765625 C-475.77601915 165.4194698 -474.20049953 165.2410735 -472.625 165.0625 C-471.8309375 164.97548828 -471.036875 164.88847656 -470.21875 164.79882812 C-465.97744999 164.3961065 -465.97744999 164.3961065 -462 163 C-461.01 163.185625 -460.02 163.37125 -459 163.5625 C-458.01 163.706875 -457.02 163.85125 -456 164 C-455.34 163.34 -454.68 162.68 -454 162 C-452.33333333 162 -450.66666667 162 -449 162 C-449 162.66 -449 163.32 -449 164 C-448.21625 163.79375 -447.4325 163.5875 -446.625 163.375 C-445.75875 163.25125 -444.8925 163.1275 -444 163 C-443.34 163.66 -442.68 164.32 -442 165 C-441.01 165.33 -440.02 165.66 -439 166 C-439.33 166.66 -439.66 167.32 -440 168 C-437.36 168 -434.72 168 -432 168 C-431.67 168.99 -431.34 169.98 -431 171 C-430.0925 170.835 -429.185 170.67 -428.25 170.5 C-421.94117647 169.52941176 -421.94117647 169.52941176 -419 171 C-418.67 170.67 -418.34 170.34 -418 170 C-413.61290323 166.91717524 -413.61290323 166.91717524 -410.6875 167.3125 C-409.8521875 167.6528125 -409.8521875 167.6528125 -409 168 C-408.67 167.34 -408.34 166.68 -408 166 C-406.35 166.99 -404.7 167.98 -403 169 C-402.67 168.34 -402.34 167.68 -402 167 C-399 166 -399 166 -395.5 166.125 C-392.05342861 166.34275295 -392.05342861 166.34275295 -390.0625 164.5 C-389.711875 164.005 -389.36125 163.51 -389 163 C-388.67 163.33 -388.34 163.66 -388 164 C-387.67 163.01 -387.34 162.02 -387 161 C-382.74936599 159.84073618 -379.29942266 160.09050674 -375 161 C-374.67 161.66 -374.34 162.32 -374 163 C-370.83884224 161.63016497 -370.0072908 161.0109362 -368 158 C-367.01 158.33 -366.02 158.66 -365 159 C-362.5635803 158.26804907 -362.5635803 158.26804907 -359.9375 157.125 C-355.17448381 155.27306827 -350.98885379 154.48219274 -345.8984375 154.2734375 C-345.27195312 154.18320313 -344.64546875 154.09296875 -344 154 C-343.67 153.34 -343.34 152.68 -343 152 C-342.01 152.33 -341.02 152.66 -340 153 C-340 153.66 -340 154.32 -340 155 C-334.05779282 157.06911365 -334.05779282 157.06911365 -328.1875 155.625 C-326.6096875 154.820625 -326.6096875 154.820625 -325 154 C-324.01 154 -323.02 154 -322 154 C-322 153.34 -322 152.68 -322 152 C-320.35 151.67 -318.7 151.34 -317 151 C-316.67 152.32 -316.34 153.64 -316 155 C-313.03 155.33 -310.06 155.66 -307 156 C-307 156.66 -307 157.32 -307 158 C-305.02 158.33 -303.04 158.66 -301 159 C-300.67 158.01 -300.34 157.02 -300 156 C-296.92418843 154.71448575 -294.71917341 155.10046182 -291.5625 155.9375 C-288.28419699 156.7435514 -285.3988419 157.21928012 -282 157 C-281.67 156.34 -281.34 155.68 -281 155 C-280.01 155 -279.02 155 -278 155 C-278 154.34 -278 153.68 -278 153 C-276.1746875 152.814375 -276.1746875 152.814375 -274.3125 152.625 C-270.91560007 152.21616957 -268.16775817 151.30437101 -265 150 C-264.34 150.33 -263.68 150.66 -263 151 C-263 150.34 -263 149.68 -263 149 C-257.72 149 -252.44 149 -247 149 C-247 149.99 -247 150.98 -247 152 C-245.68 151.34 -244.36 150.68 -243 150 C-243 150.66 -243 151.32 -243 152 C-240.03 152 -237.06 152 -234 152 C-233.67 153.32 -233.34 154.64 -233 156 C-231.68 156 -230.36 156 -229 156 C-229 156.99 -229 157.98 -229 159 C-228.01 158.67 -227.02 158.34 -226 158 C-226 158.66 -226 159.32 -226 160 C-224.35 159.67 -222.7 159.34 -221 159 C-221 158.34 -221 157.68 -221 157 C-220.34 157 -219.68 157 -219 157 C-219 157.66 -219 158.32 -219 159 C-218.39671875 158.9278125 -217.7934375 158.855625 -217.171875 158.78125 C-216.37265625 158.6884375 -215.5734375 158.595625 -214.75 158.5 C-213.96109375 158.4071875 -213.1721875 158.314375 -212.359375 158.21875 C-210 158 -210 158 -206 158 C-206 156.68 -206 155.36 -206 154 C-202.62537285 154.54723683 -200.91765 155.0549 -198 157 C-197.67 156.01 -197.34 155.02 -197 154 C-195.35 153.67 -193.7 153.34 -192 153 C-192 154.98 -192 156.96 -192 159 C-190.20793453 158.85915204 -188.41635083 158.71216299 -186.625 158.5625 C-185.62726562 158.48128906 -184.62953125 158.40007812 -183.6015625 158.31640625 C-181.02072387 158.15034374 -181.02072387 158.15034374 -179 157 C-178.01 157.66 -177.02 158.32 -176 159 C-172.36060068 158.68269476 -172.36060068 158.68269476 -169 158 C-169 158.66 -169 159.32 -169 160 C-164.94393835 159.53199289 -161.53411321 159.12046792 -158 157 C-158 157.66 -158 158.32 -158 159 C-156.68 159 -155.36 159 -154 159 C-154 158.34 -154 157.68 -154 157 C-153.34 157 -152.68 157 -152 157 C-152.33 158.65 -152.66 160.3 -153 162 C-152.01 162.33 -151.02 162.66 -150 163 C-148.32580562 162.0126546 -146.65948148 161.01187895 -145 160 C-143.68 160 -142.36 160 -141 160 C-141 160.99 -141 161.98 -141 163 C-139.35 162.67 -137.7 162.34 -136 162 C-136 162.66 -136 163.32 -136 164 C-133.36 163.01 -130.72 162.02 -128 161 C-127.67 161.99 -127.34 162.98 -127 164 C-125.35 164 -123.7 164 -122 164 C-122 164.99 -122 165.98 -122 167 C-121.401875 166.79375 -120.80375 166.5875 -120.1875 166.375 C-118 166 -118 166 -115 168 C-114.01 168 -113.02 168 -112 168 C-112 168.66 -112 169.32 -112 170 C-110.515 169.01 -110.515 169.01 -109 168 C-109.66 161.4 -110.32 154.8 -111 148 C-104.4 147.01 -97.8 146.02 -91 145 C-91 144.01 -91 143.02 -91 142 C-88.69 142.66 -86.38 143.32 -84 144 C-83.4225 143.34 -82.845 142.68 -82.25 142 C-80 140 -80 140 -76 140 C-76.33 142.31 -76.66 144.62 -77 147 C-76.01 147 -75.02 147 -74 147 C-74.144375 146.40832031 -74.28875 145.81664062 -74.4375 145.20703125 C-74.623125 144.41683594 -74.80875 143.62664062 -75 142.8125 C-75.185625 142.03519531 -75.37125 141.25789062 -75.5625 140.45703125 C-76.01422743 137.92009775 -76.07307143 135.57120097 -76 133 C-73.58490559 132.32713788 -71.16819644 131.66153988 -68.75 131 C-68.06808594 130.80921875 -67.38617187 130.6184375 -66.68359375 130.421875 C-63.29399088 129.50042956 -60.54221024 129 -57 129 C-56.67 127.68 -56.34 126.36 -56 125 C-54.1875 124.375 -54.1875 124.375 -52 124 C-51.01 124.66 -50.02 125.32 -49 126 C-46.03923709 125.64111965 -45.15341979 125.15341979 -43 123 C-40.375 123.375 -40.375 123.375 -38 124 C-36.98609147 121.79716302 -35.98895615 119.58901444 -35 117.375 C-34.71382812 116.75753906 -34.42765625 116.14007813 -34.1328125 115.50390625 C-32.36170081 111.49782029 -31.67744035 108.36799531 -32 104 C-33.32 104.66 -34.64 105.32 -36 106 C-34.72513849 99.49820631 -32.25065927 93.99339973 -29.33984375 88.05078125 C-28.13672274 85.31131328 -27.44247995 82.94440365 -27 80 C-29.475 79.505 -29.475 79.505 -32 79 C-32 78.34 -32 77.68 -32 77 C-38.08408472 76.80185739 -38.08408472 76.80185739 -44 78 C-43.43628586 74.73045798 -42.50037734 73.17424117 -40 71 C-40.66 69.68 -41.32 68.36 -42 67 C-41.34773437 66.74347656 -40.69546875 66.48695312 -40.0234375 66.22265625 C-33.01887353 63.15428531 -29.59780109 59.71297032 -26 53 C-27.98 53 -29.96 53 -32 53 C-32 52.01 -32 51.02 -32 50 C-30.71086513 49.32845067 -29.41859796 48.66291141 -28.125 48 C-27.40570312 47.62875 -26.68640625 47.2575 -25.9453125 46.875 C-24 46 -24 46 -22 46 C-22.165 45.4225 -22.33 44.845 -22.5 44.25 C-23 42 -23 42 -23 38 C-21.68 38 -20.36 38 -19 38 C-19 37.34 -19 36.68 -19 36 C-18.34 36 -17.68 36 -17 36 C-16.74476563 35.42378906 -16.48953125 34.84757812 -16.2265625 34.25390625 C-14.4597641 31.00727353 -11.98089368 28.58172573 -9.4609375 25.90234375 C-7.69545953 24.00321153 -7.69545953 24.00321153 -8 21 C-7.66666667 19.33333333 -7.33333333 17.66666667 -7 16 C-7 13.37886292 -7.31292445 11.49064888 -8 9 C-6.02 9 -4.04 9 -2 9 C-2.061875 7.6078125 -2.061875 7.6078125 -2.125 6.1875 C-2 3 -2 3 0 0 Z M-43 126 C-43.66 127.32 -44.32 128.64 -45 130 C-44.34 130.66 -43.68 131.32 -43 132 C-42.01 130.02 -41.02 128.04 -40 126 C-40.99 126 -41.98 126 -43 126 Z M-54 127 C-53.28436734 129.0162233 -53.28436734 129.0162233 -52 131 C-49.94999129 131.80528889 -49.94999129 131.80528889 -48 132 C-49.28288757 129.44496043 -49.28288757 129.44496043 -51 127 C-51.99 127 -52.98 127 -54 127 Z M-63.75 132.5 C-64.94882812 132.91765625 -64.94882812 132.91765625 -66.171875 133.34375 C-66.77515625 133.5603125 -67.3784375 133.776875 -68 134 C-65.05075061 135.62106548 -62.36193006 136.48443268 -59.0625 137.125 C-58.22847656 137.29257813 -57.39445313 137.46015625 -56.53515625 137.6328125 C-53.98541981 138.00211177 -51.57240933 138.06442528 -49 138 C-49.61875 137.773125 -50.2375 137.54625 -50.875 137.3125 C-53.61410209 135.62070165 -54.05024472 134.00755839 -55 131 C-58.58063513 131 -60.47487986 131.34407525 -63.75 132.5 Z M-73 136 C-72.85904936 137.6254308 -72.71207913 139.25034051 -72.5625 140.875 C-72.48128906 141.77992188 -72.40007813 142.68484375 -72.31640625 143.6171875 C-72.13010715 146.01110861 -72.13010715 146.01110861 -71 148 C-68.90433802 148.79092477 -66.77165005 149.48526985 -64.625 150.125 C-63.46226562 150.47820312 -62.29953125 150.83140625 -61.1015625 151.1953125 C-58.050065 152.12556569 -58.050065 152.12556569 -55 152 C-54.67 152.99 -54.34 153.98 -54 155 C-52.9822558 153.80657376 -51.9864786 152.59439715 -51 151.375 C-50.443125 150.70210937 -49.88625 150.02921875 -49.3125 149.3359375 C-47.66586831 146.40532514 -47.77244863 144.30897619 -48 141 C-51.60295699 140.16137685 -55.20755065 139.33001323 -58.8125 138.5 C-59.83666016 138.26152344 -60.86082031 138.02304688 -61.91601562 137.77734375 C-62.89892578 137.55175781 -63.88183594 137.32617188 -64.89453125 137.09375 C-65.80050049 136.88427734 -66.70646973 136.67480469 -67.63989258 136.45898438 C-70.09008413 135.90455022 -70.09008413 135.90455022 -73 136 Z M-80 143 C-80 146 -80 146 -80 146 Z M-83 148 C-82.67 148.66 -82.34 149.32 -82 150 C-81.67 149.34 -81.34 148.68 -81 148 C-81.66 148 -82.32 148 -83 148 Z M-103 149 C-100.35499453 150.39646821 -97.82606024 151.47081227 -94.9375 152.25 C-94.26589844 152.44078125 -93.59429688 152.6315625 -92.90234375 152.828125 C-90.66639469 153.23066089 -90.66639469 153.23066089 -88 151 C-93.12919186 148.89571616 -97.5610835 148.78244334 -103 149 Z M-633 150 C-632 152 -632 152 -632 152 Z M-78 152 C-72.19233704 153.5056904 -67.0018137 154.21824777 -61 154 C-61 153.67 -61 153.34 -61 153 C-63.26711017 152.44295576 -65.53887387 151.90482169 -67.8125 151.375 C-69.07707031 151.07335937 -70.34164062 150.77171875 -71.64453125 150.4609375 C-75.12564478 149.60509307 -75.12564478 149.60509307 -78 152 Z M-107 152 C-107.11269443 158.1105424 -106.89604368 163.95170514 -106 170 C-105.01 170.33 -104.02 170.66 -103 171 C-103 169.02 -103 167.04 -103 165 C-100.61435923 165.57584432 -98.33317216 166.22227595 -96 167 C-95.67 162.71 -95.34 158.42 -95 154 C-99.85213172 152.38262276 -102.18201244 151.77057202 -107 152 Z M-654 153 C-653 155 -653 155 -653 155 Z M-87 153 C-82.34714182 156.10190545 -77.58467324 157.33846504 -72 157 C-72 156.34 -72 155.68 -72 155 C-77.22512279 153.53329887 -81.5814234 152.77422598 -87 153 Z M-681 154 C-681.33 154.66 -681.66 155.32 -682 156 C-681.01 155.67 -680.02 155.34 -679 155 C-679.66 154.67 -680.32 154.34 -681 154 Z M-92 155 C-94.18161136 156.76762091 -94.18161136 156.76762091 -94.23046875 158.98828125 C-94.18983852 165.06977821 -94.18983852 165.06977821 -93 171 C-90.16730334 172.41634833 -87.52533562 172.3463005 -84.375 172.5625 C-83.18648437 172.64628906 -81.99796875 172.73007813 -80.7734375 172.81640625 C-79.40058594 172.90728516 -79.40058594 172.90728516 -78 173 C-77.67 174.32 -77.34 175.64 -77 177 C-76.01 177 -75.02 177 -74 177 C-74 171.39 -74 165.78 -74 160 C-78.60895931 158.39052215 -83.19768841 156.8647584 -87.9375 155.6875 C-88.66839844 155.50574219 -89.39929688 155.32398438 -90.15234375 155.13671875 C-90.76207031 155.09160156 -91.37179687 155.04648438 -92 155 Z M-60 156 C-61.65 156.66 -63.3 157.32 -65 158 C-64.67 164.27 -64.34 170.54 -64 177 C-63.01 176.67 -62.02 176.34 -61 176 C-61.33 175.01 -61.66 174.02 -62 173 C-61.34 173 -60.68 173 -60 173 C-59.67 174.65 -59.34 176.3 -59 178 C-58.67 178 -58.34 178 -58 178 C-57.94209647 174.70840684 -57.90643739 171.41694397 -57.875 168.125 C-57.85824219 167.18785156 -57.84148438 166.25070313 -57.82421875 165.28515625 C-57.81777344 164.38925781 -57.81132813 163.49335938 -57.8046875 162.5703125 C-57.78897705 161.32918701 -57.78897705 161.32918701 -57.77294922 160.06298828 C-57.80697743 157.77601843 -57.80697743 157.77601843 -60 156 Z M-71 158 C-71.27565727 160.60376274 -71.52127265 163.20455968 -71.75 165.8125 C-71.83121094 166.55048828 -71.91242187 167.28847656 -71.99609375 168.04882812 C-72.23958271 170.47723115 -72.23958271 170.47723115 -72 174 C-70.17574227 176.07075015 -70.17574227 176.07075015 -68 177 C-68 176.34 -68 175.68 -68 175 C-67.34 174.67 -66.68 174.34 -66 174 C-66.33 168.72 -66.66 163.44 -67 158 C-68.32 158 -69.64 158 -71 158 Z M-53 159 C-53.33 159.66 -53.66 160.32 -54 161 C-53.34 161 -52.68 161 -52 161 C-52.33 160.34 -52.66 159.68 -53 159 Z M-215 160 C-214.01 160.495 -214.01 160.495 -213 161 C-213 161.66 -213 162.32 -213 163 C-212.34 163 -211.68 163 -211 163 C-211.33 162.01 -211.66 161.02 -212 160 C-212.99 160 -213.98 160 -215 160 Z M-383 161 C-383 164 -383 164 -383 164 Z M-172 161 C-171 163 -171 163 -171 163 Z M-51 164 C-51.33 164.66 -51.66 165.32 -52 166 C-51.34 166 -50.68 166 -50 166 C-50.33 165.34 -50.66 164.68 -51 164 Z M-26 164 C-28.79882945 166.79254971 -28.79882945 166.79254971 -31 170 C-30.9491946 173.78673743 -30.9491946 173.78673743 -30 177 C-29.01 176.67 -28.02 176.34 -27 176 C-26.896875 175.05125 -26.79375 174.1025 -26.6875 173.125 C-26 170 -26 170 -23 168 C-23.66 168 -24.32 168 -25 168 C-25.33 166.68 -25.66 165.36 -26 164 Z M-569 166 C-569 166.66 -569 167.32 -569 168 C-568.34 167.67 -567.68 167.34 -567 167 C-567.66 166.67 -568.32 166.34 -569 166 Z M-101 167 C-100 169 -100 169 -100 169 Z M-56 167 C-55.67 169.31 -55.34 171.62 -55 174 C-54.67 174 -54.34 174 -54 174 C-54 171.69 -54 169.38 -54 167 C-54.66 167 -55.32 167 -56 167 Z M-16 167 C-15 169 -15 169 -15 169 Z M-412 168 C-411 170 -411 170 -411 170 Z M-51 168 C-50.67 170.31 -50.34 172.62 -50 175 C-49.67 175 -49.34 175 -49 175 C-49 173.02 -49 171.04 -49 169 C-49.66 168.67 -50.32 168.34 -51 168 Z M39 168 C39 168.66 39 169.32 39 170 C39.66 169.67 40.32 169.34 41 169 C40.34 168.67 39.68 168.34 39 168 Z M-499 169 C-499 169.66 -499 170.32 -499 171 C-498.01 170.67 -497.02 170.34 -496 170 C-496.99 169.67 -497.98 169.34 -499 169 Z M-100 169 C-99 171 -99 171 -99 171 Z M-46 169 C-45.67 170.98 -45.34 172.96 -45 175 C-44.67 175 -44.34 175 -44 175 C-44 173.02 -44 171.04 -44 169 C-44.66 169 -45.32 169 -46 169 Z M-41 169 C-40 171 -40 171 -40 171 Z M-21 171 C-21 171.33 -21 171.66 -21 172 C-17.7 172 -14.4 172 -11 172 C-11 171.67 -11 171.34 -11 171 C-14.3 171 -17.6 171 -21 171 Z M2 172 C2.99 172.495 2.99 172.495 4 173 C4 173.66 4 174.32 4 175 C7.465 174.505 7.465 174.505 11 174 C7.86501708 172.14223235 5.62528568 171.79859524 2 172 Z M-24 173 C-23.67 173.99 -23.34 174.98 -23 176 C-22.34 175.34 -21.68 174.68 -21 174 C-21.99 173.67 -22.98 173.34 -24 173 Z M-11 175 C-9.37675914 175.22162329 -7.751279 175.42689803 -6.125 175.625 C-4.76761719 175.79902344 -4.76761719 175.79902344 -3.3828125 175.9765625 C-2.59648438 175.98429688 -1.81015625 175.99203125 -1 176 C-0.34 175.34 0.32 174.68 1 174 C-3.2916185 172.5694605 -7.62138797 171.62138797 -11 175 Z M-84 175 C-84.33 175.66 -84.66 176.32 -85 177 C-83.68 177 -82.36 177 -81 177 C-81 176.34 -81 175.68 -81 175 C-81.99 175 -82.98 175 -84 175 Z M-17 176 C-16.34 176.66 -15.68 177.32 -15 178 C-14.34 177.34 -13.68 176.68 -13 176 C-14.32 176 -15.64 176 -17 176 Z " fill="#FEFEFE" transform="translate(726,30)"/>
<path d="M0 0 C0.66 0.33 1.32 0.66 2 1 C2.40729228 3.32156597 2.74438677 5.6568787 3 8 C4.65 7.67 6.3 7.34 8 7 C8.495 8.98 8.495 8.98 9 11 C7.68 11.33 6.36 11.66 5 12 C6.71511104 19.71799967 10.12259106 23.8690956 16 29 C17.03447266 29.91265625 17.03447266 29.91265625 18.08984375 30.84375 C19.42912536 32.01594274 20.77534397 33.18026445 22.12890625 34.3359375 C23.88400557 35.89684002 25.46553106 37.53018729 27.0625 39.25 C32.20558638 44.44838839 39.06346244 45.66302564 46 47 C46.495 48.98 46.495 48.98 47 51 C46.01 51.495 46.01 51.495 45 52 C45.66 52.33 46.32 52.66 47 53 C47 55.64 47 58.28 47 61 C46.01 61.495 46.01 61.495 45 62 C44.67 62.99 44.34 63.98 44 65 C42.68 65 41.36 65 40 65 C39.505 66.485 39.505 66.485 39 68 C38.01 68 37.02 68 36 68 C36 68.66 36 69.32 36 70 C36.66 70 37.32 70 38 70 C37 73 37 73 35 74 C35.763125 74.391875 36.52625 74.78375 37.3125 75.1875 C40.29324256 77.19776824 41.23350771 78.92783949 43 82 C43.68028259 82.39564651 44.36056519 82.79129303 45.0614624 83.19892883 C47 85 47 85 47.48101807 88.24601746 C47.4926119 89.603038 47.48198108 90.96035501 47.45410156 92.31713867 C47.45468567 93.05884811 47.45526978 93.80055756 47.45587158 94.56474304 C47.45308486 97.01629444 47.42196706 99.4666298 47.390625 101.91796875 C47.38316465 103.61761307 47.37747075 105.317266 47.37347412 107.016922 C47.35820142 111.49042509 47.31890585 115.9634087 47.2746582 120.43670654 C47.23374057 125.00135266 47.21547063 129.56608272 47.1953125 134.13085938 C47.15241292 143.08746783 47.08414204 152.04369072 47 161 C44.69 161.33 42.38 161.66 40 162 C40 162.99 40 163.98 40 165 C35.07872966 165.16682272 31.49656104 165.24828052 27 163 C26.67 163.99 26.34 164.98 26 166 C23.03 165.34 20.06 164.68 17 164 C17.495 172.91 17.495 172.91 18 182 C17.34 182.33 16.68 182.66 16 183 C15.67 177.39 15.34 171.78 15 166 C14.34 166 13.68 166 13 166 C13 167.98 13 169.96 13 172 C10.03 171.34 7.06 170.68 4 170 C3.67 168.68 3.34 167.36 3 166 C0.525 166.99 0.525 166.99 -2 168 C-2.33 166.02 -2.66 164.04 -3 162 C-3.99 162.33 -4.98 162.66 -6 163 C-5.01 163 -4.02 163 -3 163 C-3.33 164.65 -3.66 166.3 -4 168 C-4.99 168 -5.98 168 -7 168 C-7.33 168.33 -7.66 168.66 -8 169 C-9.9375 168.1875 -9.9375 168.1875 -12 167 C-12.33 166.01 -12.66 165.02 -13 164 C-13.66 164 -14.32 164 -15 164 C-15.50526314 159.45890277 -16.00328435 154.91703948 -16.5 150.375 C-16.64308594 149.08980469 -16.78617188 147.80460938 -16.93359375 146.48046875 C-17.06894531 145.23652344 -17.20429687 143.99257812 -17.34375 142.7109375 C-17.46943359 141.56931152 -17.59511719 140.42768555 -17.72460938 139.25146484 C-17.98741196 136.14862366 -18.0494632 133.11205949 -18 130 C-18.66 130.33 -19.32 130.66 -20 131 C-19.80301514 131.85440674 -19.80301514 131.85440674 -19.60205078 132.72607422 C-18.06182935 139.8331566 -17.38895361 146.87909667 -16.875 154.125 C-16.78863281 155.27226562 -16.70226562 156.41953125 -16.61328125 157.6015625 C-16.40334729 160.40068202 -16.19903375 163.20008795 -16 166 C-15.01 166.33 -14.02 166.66 -13 167 C-13 167.66 -13 168.32 -13 169 C-14.62490954 169.02698189 -16.24994633 169.04638757 -17.875 169.0625 C-19.23238281 169.07990234 -19.23238281 169.07990234 -20.6171875 169.09765625 C-23 169 -23 169 -25 168 C-25.33 167.01 -25.66 166.02 -26 165 C-26.680625 165.99 -26.680625 165.99 -27.375 167 C-28.179375 167.99 -28.179375 167.99 -29 169 C-29.66 169 -30.32 169 -31 169 C-31 167.35 -31 165.7 -31 164 C-31.66 164 -32.32 164 -33 164 C-33.33 165.65 -33.66 167.3 -34 169 C-35.9375 168.1875 -35.9375 168.1875 -38 167 C-38.33 166.01 -38.66 165.02 -39 164 C-39.804375 164 -40.60875 164 -41.4375 164 C-46.78804315 164 -48.66146107 163.47083114 -53 160 C-53.99 160 -54.98 160 -56 160 C-55.66951441 154.71223057 -52.51647805 150.75899378 -49 147 C-48.34 147 -47.68 147 -47 147 C-47 148.98 -47 150.96 -47 153 C-47.99 153 -48.98 153 -50 153 C-50 153.66 -50 154.32 -50 155 C-48.68 155 -47.36 155 -46 155 C-46 154.16855469 -46 153.33710938 -46 152.48046875 C-46 148.3203125 -46 144.16015625 -46 140 C-46.99 139.67 -47.98 139.34 -49 139 C-47.6979284 136.09537874 -46.5863129 133.89662946 -44 132 C-41.34925019 131.15490947 -38.72838717 130.58145956 -36 130 C-36.33 130.99 -36.66 131.98 -37 133 C-38.65 133 -40.3 133 -42 133 C-42 133.99 -42 134.98 -42 136 C-41.505 135.01 -41.505 135.01 -41 134 C-40.01 133.690625 -39.02 133.38125 -38 133.0625 C-37.01 132.711875 -36.02 132.36125 -35 132 C-34.67 131.01 -34.34 130.02 -34 129 C-31.69 129 -29.38 129 -27 129 C-30.63 128.34 -34.26 127.68 -38 127 C-36.97113145 121.85565724 -35.21771339 117.77543308 -33.05859375 113.03515625 C-31.93840738 109.82340419 -31.80385618 107.3746796 -32 104 C-33.98 104.99 -33.98 104.99 -36 106 C-34.72513849 99.49820631 -32.25065927 93.99339973 -29.33984375 88.05078125 C-28.13672274 85.31131328 -27.44247995 82.94440365 -27 80 C-28.65 79.67 -30.3 79.34 -32 79 C-32 78.34 -32 77.68 -32 77 C-38.08408472 76.80185739 -38.08408472 76.80185739 -44 78 C-43.43628586 74.73045798 -42.50037734 73.17424117 -40 71 C-40.66 69.68 -41.32 68.36 -42 67 C-41.34773437 66.74347656 -40.69546875 66.48695312 -40.0234375 66.22265625 C-33.01887353 63.15428531 -29.59780109 59.71297032 -26 53 C-27.98 53 -29.96 53 -32 53 C-32 52.01 -32 51.02 -32 50 C-30.71086513 49.32845067 -29.41859796 48.66291141 -28.125 48 C-27.40570312 47.62875 -26.68640625 47.2575 -25.9453125 46.875 C-24 46 -24 46 -22 46 C-22.2475 45.13375 -22.2475 45.13375 -22.5 44.25 C-23 42 -23 42 -23 38 C-21.68 38 -20.36 38 -19 38 C-19 37.34 -19 36.68 -19 36 C-18.34 36 -17.68 36 -17 36 C-16.74476563 35.42378906 -16.48953125 34.84757812 -16.2265625 34.25390625 C-14.4597641 31.00727353 -11.98089368 28.58172573 -9.4609375 25.90234375 C-7.69545953 24.00321153 -7.69545953 24.00321153 -8 21 C-7.66666667 19.33333333 -7.33333333 17.66666667 -7 16 C-7 13.37886292 -7.31292445 11.49064888 -8 9 C-6.02 9 -4.04 9 -2 9 C-2.04125 8.071875 -2.0825 7.14375 -2.125 6.1875 C-2 3 -2 3 0 0 Z " fill="#4B6B43" transform="translate(726,30)"/>
<path d="M0 0 C2.0625 0.1875 2.0625 0.1875 4 1 C4.495 2.485 4.495 2.485 5 4 C5.74765625 4.04898438 6.4953125 4.09796875 7.265625 4.1484375 C8.25046875 4.22320312 9.2353125 4.29796875 10.25 4.375 C11.71179688 4.47941406 11.71179688 4.47941406 13.203125 4.5859375 C15.89633189 4.98465249 17.66963279 5.63507063 20 7 C12.57142857 7.14285714 12.57142857 7.14285714 9 6 C8.855625 6.639375 8.71125 7.27875 8.5625 7.9375 C8 10 8 10 7 11 C5.33382885 11.04063832 3.66611905 11.042721 2 11 C1.67 11.99 1.34 12.98 1 14 C0.505 13.01 0.505 13.01 0 12 C0.33 11.34 0.66 10.68 1 10 C2.66666667 9.66666667 4.33333333 9.33333333 6 9 C6.33 8.34 6.66 7.68 7 7 C4.69 7.66 2.38 8.32 0 9 C0.66 7.35 1.32 5.7 2 4 C1.34 4 0.68 4 0 4 C-0.33 6.31 -0.66 8.62 -1 11 C-2.32 11.33 -3.64 11.66 -5 12 C-5 12.66 -5 13.32 -5 14 C-7.375 14.125 -7.375 14.125 -10 14 C-10.66 13.34 -11.32 12.68 -12 12 C-12 10.68 -12 9.36 -12 8 C-15.96 8.99 -19.92 9.98 -24 11 C-22.50726562 11.33773437 -21.01453125 11.67546875 -19.4765625 12.0234375 C-17.52595385 12.47357796 -15.57543774 12.92411959 -13.625 13.375 C-12.14773438 13.70757812 -12.14773438 13.70757812 -10.640625 14.046875 C-9.22910156 14.37558594 -9.22910156 14.37558594 -7.7890625 14.7109375 C-6.91975098 14.90993652 -6.05043945 15.10893555 -5.15478516 15.31396484 C-3 16 -3 16 -1 18 C-1.495 18.495 -1.495 18.495 -2 19 C-2.23481693 21.18292774 -2.41363323 23.37203174 -2.5625 25.5625 C-2.68818359 27.35880859 -2.68818359 27.35880859 -2.81640625 29.19140625 C-2.87699219 30.11824219 -2.93757812 31.04507813 -3 32 C-4.32 32 -5.64 32 -7 32 C-7 31.34 -7 30.68 -7 30 C-6.01 30 -5.02 30 -4 30 C-4.66 26.37 -5.32 22.74 -6 19 C-6.81082031 18.81824219 -7.62164063 18.63648438 -8.45703125 18.44921875 C-15.69429277 16.80630141 -22.8534964 15.00102101 -30 13 C-29.34 16.96 -28.68 20.92 -28 25 C-26.659375 25.28875 -25.31875 25.5775 -23.9375 25.875 C-19.90448315 26.76838981 -15.95814055 27.82097941 -12 29 C-12.33 31.64 -12.66 34.28 -13 37 C-11.906875 37.28875 -10.81375 37.5775 -9.6875 37.875 C-6 39 -6 39 -3 41 C-2.67 39.35 -2.34 37.7 -2 36 C-1.566875 36.639375 -1.13375 37.27875 -0.6875 37.9375 C0.91239177 40.26746003 0.91239177 40.26746003 4 41 C5.70586575 42.62652316 7.3777546 44.29006566 9 46 C9.33 44.35 9.66 42.7 10 41 C10.66 41 11.32 41 12 41 C12.99 46.94 12.99 46.94 14 53 C14.66 53 15.32 53 16 53 C15.979375 52.030625 15.95875 51.06125 15.9375 50.0625 C16 47 16 47 17 46 C19.18639453 45.92741054 21.37500389 45.91626217 23.5625 45.9375 C25.35880859 45.95103516 25.35880859 45.95103516 27.19140625 45.96484375 C28.11824219 45.97644531 29.04507813 45.98804688 30 46 C29.52691406 45.61457031 29.05382812 45.22914063 28.56640625 44.83203125 C26.52592083 42.44552836 26.3612812 40.79385732 25.9375 37.6875 C25.78152344 36.55183594 25.62554688 35.41617188 25.46484375 34.24609375 C25.0783181 30.93079866 24.78447718 27.61098828 24.50390625 24.28515625 C24.41955322 23.29104736 24.3352002 22.29693848 24.24829102 21.27270508 C24.08352623 19.26685175 23.92896691 17.26013249 23.78491211 15.25268555 C23.71151611 14.32883057 23.63812012 13.40497559 23.5625 12.453125 C23.50191406 11.61942383 23.44132813 10.78572266 23.37890625 9.92675781 C23.25386719 9.29092773 23.12882813 8.65509766 23 8 C22.01 7.505 22.01 7.505 21 7 C22.32 7 23.64 7 25 7 C28.58165209 30.78877436 28.58165209 30.78877436 28 41 C28.66 41 29.32 41 30 41 C31.70680947 42.62553283 33.37660195 44.29115995 35 46 C34.67 45.01 34.34 44.02 34 43 C34.66 43 35.32 43 36 43 C36 43.66 36 44.32 36 45 C36.99 44.67 37.98 44.34 39 44 C39.73323796 41.98491642 39.73323796 41.98491642 40 40 C39.01 40 38.02 40 37 40 C36.505 40.99 36.505 40.99 36 42 C36.33 40.68 36.66 39.36 37 38 C38.98 38.495 38.98 38.495 41 39 C41 40.98 41 42.96 41 45 C42.65 44.34 44.3 43.68 46 43 C46.33 43.99 46.66 44.98 47 46 C49.09719872 47.02281518 49.09719872 47.02281518 51.5625 47.6875 C52.38878906 47.93886719 53.21507812 48.19023437 54.06640625 48.44921875 C54.70449219 48.63097656 55.34257813 48.81273437 56 49 C56 47.02 56 45.04 56 43 C56.66 43 57.32 43 58 43 C58.99 50.425 58.99 50.425 60 58 C60 52.39 60 46.78 60 41 C61.65 41 63.3 41 65 41 C64.67 43.64 64.34 46.28 64 49 C64.75925781 48.855625 65.51851562 48.71125 66.30078125 48.5625 C67.29464844 48.376875 68.28851562 48.19125 69.3125 48 C70.29863281 47.814375 71.28476562 47.62875 72.30078125 47.4375 C75 47 75 47 78 47 C78.33 46.34 78.66 45.68 79 45 C79.99 45 80.98 45 82 45 C82.33 44.34 82.66 43.68 83 43 C83.66 43.66 84.32 44.32 85 45 C87.475 44.505 87.475 44.505 90 44 C90 49.61 90 55.22 90 61 C50.07 61 10.14 61 -31 61 C-31.33 53.08 -31.66 45.16 -32 37 C-36.1765625 35.9790625 -36.1765625 35.9790625 -40.4375 34.9375 C-41.31591553 34.71956787 -42.19433105 34.50163574 -43.09936523 34.27709961 C-45.05631372 33.80786293 -47.02807045 33.40165198 -49 33 C-50.56095477 34.56095477 -50.16961928 36.09000895 -50.1875 38.25 C-50.20876953 39.40242188 -50.20876953 39.40242188 -50.23046875 40.578125 C-49.96739862 43.34259079 -49.13169364 45.47717307 -48 48 C-47.22914063 48.06058594 -46.45828125 48.12117188 -45.6640625 48.18359375 C-44.66117188 48.26738281 -43.65828125 48.35117188 -42.625 48.4375 C-41.62726562 48.51871094 -40.62953125 48.59992188 -39.6015625 48.68359375 C-37 49 -37 49 -35 50 C-35.33 52.64 -35.66 55.28 -36 58 C-36.66 58 -37.32 58 -38 58 C-38 56.02 -38 54.04 -38 52 C-40.31 52 -42.62 52 -45 52 C-45 51.34 -45 50.68 -45 50 C-48.63 50.66 -52.26 51.32 -56 52 C-56 51.34 -56 50.68 -56 50 C-58.64 50.33 -61.28 50.66 -64 51 C-66.1340896 45.60200865 -66.62634406 40.34882453 -67.125 34.625 C-67.41375 31.44875 -67.7025 28.2725 -68 25 C-61.4 24.01 -54.8 23.02 -48 22 C-48 21.01 -48 20.02 -48 19 C-45.69 19.66 -43.38 20.32 -41 21 C-40.13375 20.01 -40.13375 20.01 -39.25 19 C-37 17 -37 17 -33 17 C-33.33 19.31 -33.66 21.62 -34 24 C-33.01 24 -32.02 24 -31 24 C-31.144375 23.40832031 -31.28875 22.81664062 -31.4375 22.20703125 C-31.623125 21.41683594 -31.80875 20.62664062 -32 19.8125 C-32.185625 19.03519531 -32.37125 18.25789063 -32.5625 17.45703125 C-33.01422743 14.92009775 -33.07307143 12.57120097 -33 10 C-30.58490559 9.32713788 -28.16819644 8.66153988 -25.75 8 C-25.06808594 7.80921875 -24.38617187 7.6184375 -23.68359375 7.421875 C-20.29399088 6.50042956 -17.54221024 6 -14 6 C-13.67 4.68 -13.34 3.36 -13 2 C-11.1875 1.375 -11.1875 1.375 -9 1 C-8.01 1.66 -7.02 2.32 -6 3 C-3.03923709 2.64111965 -2.15341979 2.15341979 0 0 Z M-11 4 C-10.28436734 6.0162233 -10.28436734 6.0162233 -9 8 C-6.94999129 8.80528889 -6.94999129 8.80528889 -5 9 C-6.28288757 6.44496043 -6.28288757 6.44496043 -8 4 C-8.99 4 -9.98 4 -11 4 Z M-37 20 C-37 23 -37 23 -37 23 Z M-40 25 C-39.67 25.66 -39.34 26.32 -39 27 C-38.67 26.34 -38.34 25.68 -38 25 C-38.66 25 -39.32 25 -40 25 Z M-60 26 C-57.35499453 27.39646821 -54.82606024 28.47081227 -51.9375 29.25 C-51.26589844 29.44078125 -50.59429688 29.6315625 -49.90234375 29.828125 C-47.66639469 30.23066089 -47.66639469 30.23066089 -45 28 C-50.12919186 25.89571616 -54.5610835 25.78244334 -60 26 Z M-35 29 C-29.19233704 30.5056904 -24.0018137 31.21824777 -18 31 C-18 30.67 -18 30.34 -18 30 C-20.26711017 29.44295576 -22.53887387 28.90482169 -24.8125 28.375 C-26.07707031 28.07335937 -27.34164062 27.77171875 -28.64453125 27.4609375 C-32.12564478 26.60509307 -32.12564478 26.60509307 -35 29 Z M-64 29 C-64.11269443 35.1105424 -63.89604368 40.95170514 -63 47 C-62.01 47.33 -61.02 47.66 -60 48 C-60 46.02 -60 44.04 -60 42 C-57.61435923 42.57584432 -55.33317216 43.22227595 -53 44 C-52.67 39.71 -52.34 35.42 -52 31 C-56.85213172 29.38262276 -59.18201244 28.77057202 -64 29 Z M-44 30 C-39.34714182 33.10190545 -34.58467324 34.33846504 -29 34 C-29 33.34 -29 32.68 -29 32 C-34.22512279 30.53329887 -38.5814234 29.77422598 -44 30 Z M-17 33 C-18.65 33.66 -20.3 34.32 -22 35 C-21.67 41.27 -21.34 47.54 -21 54 C-20.01 53.67 -19.02 53.34 -18 53 C-18.33 52.01 -18.66 51.02 -19 50 C-18.34 50 -17.68 50 -17 50 C-16.67 51.65 -16.34 53.3 -16 55 C-15.67 55 -15.34 55 -15 55 C-14.94209647 51.70840684 -14.90643739 48.41694397 -14.875 45.125 C-14.85824219 44.18785156 -14.84148438 43.25070313 -14.82421875 42.28515625 C-14.81777344 41.38925781 -14.81132813 40.49335938 -14.8046875 39.5703125 C-14.78897705 38.32918701 -14.78897705 38.32918701 -14.77294922 37.06298828 C-14.80697743 34.77601843 -14.80697743 34.77601843 -17 33 Z M-28 35 C-28.27565727 37.60376274 -28.52127265 40.20455968 -28.75 42.8125 C-28.83121094 43.55048828 -28.91242187 44.28847656 -28.99609375 45.04882812 C-29.23958271 47.47723115 -29.23958271 47.47723115 -29 51 C-27.17574227 53.07075015 -27.17574227 53.07075015 -25 54 C-25 53.34 -25 52.68 -25 52 C-24.34 51.67 -23.68 51.34 -23 51 C-23.33 45.72 -23.66 40.44 -24 35 C-25.32 35 -26.64 35 -28 35 Z M-8 41 C-8.33 41.66 -8.66 42.32 -9 43 C-8.34 43 -7.68 43 -7 43 C-7.33 42.34 -7.66 41.68 -8 41 Z M-58 44 C-57 46 -57 46 -57 46 Z M-13 44 C-12.67 46.31 -12.34 48.62 -12 51 C-11.67 51 -11.34 51 -11 51 C-11 48.69 -11 46.38 -11 44 C-11.66 44 -12.32 44 -13 44 Z M-8 45 C-7.67 47.31 -7.34 49.62 -7 52 C-6.67 52 -6.34 52 -6 52 C-6 50.02 -6 48.04 -6 46 C-6.66 45.67 -7.32 45.34 -8 45 Z M82 45 C82 45.66 82 46.32 82 47 C82.66 46.67 83.32 46.34 84 46 C83.34 45.67 82.68 45.34 82 45 Z M-57 46 C-56 48 -56 48 -56 48 Z M-3 46 C-2.67 47.98 -2.34 49.96 -2 52 C-1.67 52 -1.34 52 -1 52 C-1 50.02 -1 48.04 -1 46 C-1.66 46 -2.32 46 -3 46 Z M2 46 C3 48 3 48 3 48 Z M22 48 C22 48.33 22 48.66 22 49 C25.3 49 28.6 49 32 49 C32 48.67 32 48.34 32 48 C28.7 48 25.4 48 22 48 Z M45 49 C45.99 49.495 45.99 49.495 47 50 C47 50.66 47 51.32 47 52 C50.465 51.505 50.465 51.505 54 51 C50.86501708 49.14223235 48.62528568 48.79859524 45 49 Z M19 50 C19.33 50.99 19.66 51.98 20 53 C20.66 52.34 21.32 51.68 22 51 C21.01 50.67 20.02 50.34 19 50 Z M32 52 C33.62324086 52.22162329 35.248721 52.42689803 36.875 52.625 C38.23238281 52.79902344 38.23238281 52.79902344 39.6171875 52.9765625 C40.40351562 52.98429687 41.18984375 52.99203125 42 53 C42.66 52.34 43.32 51.68 44 51 C39.7083815 49.5694605 35.37861203 48.62138797 32 52 Z M26 53 C26.66 53.66 27.32 54.32 28 55 C28.66 54.34 29.32 53.68 30 53 C28.68 53 27.36 53 26 53 Z " fill="#F8C0BD" transform="translate(683,153)"/>
<path d="M0 0 C0.66 0.33 1.32 0.66 2 1 C2.40729228 3.32156597 2.74438677 5.6568787 3 8 C4.65 7.67 6.3 7.34 8 7 C8.495 8.98 8.495 8.98 9 11 C7.68 11.33 6.36 11.66 5 12 C6.71511104 19.71799967 10.12259106 23.8690956 16 29 C16.68964844 29.6084375 17.37929688 30.216875 18.08984375 30.84375 C19.42912536 32.01594274 20.77534397 33.18026445 22.12890625 34.3359375 C23.88400557 35.89684002 25.46553106 37.53018729 27.0625 39.25 C32.20558638 44.44838839 39.06346244 45.66302564 46 47 C46.495 48.98 46.495 48.98 47 51 C46.01 51.495 46.01 51.495 45 52 C45.66 52.33 46.32 52.66 47 53 C47 55.64 47 58.28 47 61 C46.01 61.495 46.01 61.495 45 62 C44.67 62.99 44.34 63.98 44 65 C42.68 65 41.36 65 40 65 C39.505 66.485 39.505 66.485 39 68 C38.01 68 37.02 68 36 68 C36 68.66 36 69.32 36 70 C36.66 70 37.32 70 38 70 C37 73 37 73 35 74 C35 74.66 35 75.32 35 76 C34.030625 75.835 33.06125 75.67 32.0625 75.5 C28.40134021 74.96638967 24.84857729 74.98067017 21.15625 75.03125 C18.37175389 74.99089498 15.72376432 74.55872089 13 74 C12.505 75.485 12.505 75.485 12 77 C9.6875 77.6875 9.6875 77.6875 7 78 C5.25 76.9375 5.25 76.9375 4 75 C3.9175 74.030625 3.835 73.06125 3.75 72.0625 C3.27535215 68.65922151 3.27535215 68.65922151 -0.25 66.75 C-1.48930893 66.14428459 -2.73914633 65.55948709 -4 65 C-4.886875 64.566875 -5.77375 64.13375 -6.6875 63.6875 C-9.37044832 62.88986672 -10.3554431 63.2402378 -13 64 C-14.41666667 64.35416667 -15.83333333 64.70833333 -17.25 65.0625 C-18.4875 65.371875 -19.725 65.68125 -21 66 C-23.35800504 63.71568262 -24.88720897 61.9918976 -25.265625 58.6640625 C-25.251535 56.43079795 -25.17460201 54.22617559 -25 52 C-28.465 52.495 -28.465 52.495 -32 53 C-32 52.01 -32 51.02 -32 50 C-30.71086513 49.32845067 -29.41859796 48.66291141 -28.125 48 C-27.40570312 47.62875 -26.68640625 47.2575 -25.9453125 46.875 C-24 46 -24 46 -22 46 C-22.165 45.4225 -22.33 44.845 -22.5 44.25 C-23 42 -23 42 -23 38 C-21.68 38 -20.36 38 -19 38 C-19 37.34 -19 36.68 -19 36 C-18.34 36 -17.68 36 -17 36 C-16.61714844 35.13568359 -16.61714844 35.13568359 -16.2265625 34.25390625 C-14.4597641 31.00727353 -11.98089368 28.58172573 -9.4609375 25.90234375 C-7.69545953 24.00321153 -7.69545953 24.00321153 -8 21 C-7.66666667 19.33333333 -7.33333333 17.66666667 -7 16 C-7 13.37886292 -7.31292445 11.49064888 -8 9 C-6.02 9 -4.04 9 -2 9 C-2.04125 8.071875 -2.0825 7.14375 -2.125 6.1875 C-2 3 -2 3 0 0 Z " fill="#48693F" transform="translate(726,30)"/>
<path d="M0 0 C0.33 0 0.66 0 1 0 C1.14695312 1.04800781 1.14695312 1.04800781 1.296875 2.1171875 C1.44640625 3.02726562 1.5959375 3.93734375 1.75 4.875 C1.88921875 5.77992187 2.0284375 6.68484375 2.171875 7.6171875 C2.79260195 10.11415224 2.79260195 10.11415224 4.86328125 11.41015625 C8.30295151 12.35968131 10.8233888 10.39325052 14 9 C19.48804436 9.27440222 26.17032681 12.02848706 30 16 C31.25 19.6875 31.25 19.6875 32 23 C33.32 23.33 34.64 23.66 36 24 C36.99 22.68 37.98 21.36 39 20 C39.7425 20.165 40.485 20.33 41.25 20.5 C44.56881671 20.9425089 47.48108072 20.9686031 50.8125 20.875 C56.28135728 20.84098969 61.15761142 21.28954798 66 24 C67.8125 26.5 67.8125 26.5 69 29 C70.31963709 30.01800576 71.65009646 31.02248365 73 32 C73 32.66 73 33.32 73 34 C69.56049636 33.38801624 67.48435515 32.07941153 64.75 29.9375 C64.04359375 29.38964844 63.3371875 28.84179688 62.609375 28.27734375 C61.81273437 27.64505859 61.81273437 27.64505859 61 27 C60.57332031 27.38929687 60.14664063 27.77859375 59.70703125 28.1796875 C36.75572519 48.71755725 36.75572519 48.71755725 25 50 C23.989375 50.515625 22.97875 51.03125 21.9375 51.5625 C16.37979861 54.11399018 9.94736968 53.67503001 4 53 C1.37503623 51.94176853 0.08100237 50.95859046 -2 49 C-2.86625 49.433125 -2.86625 49.433125 -3.75 49.875 C-5.83333333 50.91666667 -7.91666667 51.95833333 -10 53 C-8.72513849 46.49820631 -6.25065927 40.99339973 -3.33984375 35.05078125 C-2.13672274 32.31131328 -1.44247995 29.94440365 -1 27 C-2.65 26.67 -4.3 26.34 -6 26 C-6 25.34 -6 24.68 -6 24 C-12.08408472 23.80185739 -12.08408472 23.80185739 -18 25 C-17.43628586 21.73045798 -16.50037734 20.17424117 -14 18 C-14.66 16.68 -15.32 15.36 -16 14 C-15.34773437 13.74347656 -14.69546875 13.48695312 -14.0234375 13.22265625 C-7.73162846 10.46650981 -4.49241203 7.75594497 -1.05859375 1.79296875 C-0.70925781 1.20128906 -0.35992188 0.60960938 0 0 Z " fill="#486940" transform="translate(700,83)"/>
<path d="M0 0 C0.495 0.99 0.495 0.99 1 2 C2.31252882 2.70674629 3.65278717 3.36184656 5 4 C7.31 5.32 9.62 6.64 12 8 C12 21.86 12 35.72 12 50 C9.36 50 6.72 50 4 50 C3.67 51.65 3.34 53.3 3 55 C1.68 55.33 0.36 55.66 -1 56 C-1.33 54.35 -1.66 52.7 -2 51 C-3.12535156 50.90203125 -4.25070312 50.8040625 -5.41015625 50.703125 C-21.18803455 49.21924694 -40.2001149 46.7998851 -52 35 C-54.15562644 35.05379186 -54.15562644 35.05379186 -56.5 35.5 C-58.90625 35.90625 -58.90625 35.90625 -61 36 C-63 34 -63 34 -63.125 31.375 C-63.08375 30.59125 -63.0425 29.8075 -63 29 C-62.34 29 -61.68 29 -61 29 C-61 28.34 -61 27.68 -61 27 C-61.66 27 -62.32 27 -63 27 C-63.66 25.35 -64.32 23.7 -65 22 C-61 24 -61 24 -59.2734375 25.046875 C-53.54521215 27.44839903 -45.89504415 26.84295752 -40.03515625 25.13671875 C-38.39877967 24.46002167 -36.77778365 23.74350371 -35.18359375 22.97265625 C-33 22 -33 22 -30.5078125 21.5234375 C-21.05183288 19.54975951 -13.09636659 11.11722311 -6 5 C-4.00586495 3.32614558 -2.00349625 1.66266478 0 0 Z " fill="#48683F" transform="translate(761,109)"/>
<path d="M0 0 C2.0625 0.1875 2.0625 0.1875 4 1 C4.495 2.485 4.495 2.485 5 4 C5.74765625 4.04898438 6.4953125 4.09796875 7.265625 4.1484375 C8.25046875 4.22320312 9.2353125 4.29796875 10.25 4.375 C11.71179688 4.47941406 11.71179688 4.47941406 13.203125 4.5859375 C15.89633189 4.98465249 17.66963279 5.63507063 20 7 C12.57142857 7.14285714 12.57142857 7.14285714 9 6 C8.855625 6.639375 8.71125 7.27875 8.5625 7.9375 C8 10 8 10 7 11 C5.33382885 11.04063832 3.66611905 11.042721 2 11 C1.67 11.99 1.34 12.98 1 14 C0.505 13.01 0.505 13.01 0 12 C0.33 11.34 0.66 10.68 1 10 C2.66666667 9.66666667 4.33333333 9.33333333 6 9 C6.33 8.34 6.66 7.68 7 7 C4.69 7.66 2.38 8.32 0 9 C0.66 7.35 1.32 5.7 2 4 C1.34 4 0.68 4 0 4 C-0.33 6.31 -0.66 8.62 -1 11 C-2.32 11.33 -3.64 11.66 -5 12 C-5 12.66 -5 13.32 -5 14 C-7.375 14.125 -7.375 14.125 -10 14 C-10.66 13.34 -11.32 12.68 -12 12 C-12 10.68 -12 9.36 -12 8 C-15.96 8.99 -19.92 9.98 -24 11 C-22.50726562 11.33773437 -21.01453125 11.67546875 -19.4765625 12.0234375 C-17.52595385 12.47357796 -15.57543774 12.92411959 -13.625 13.375 C-12.14773438 13.70757812 -12.14773438 13.70757812 -10.640625 14.046875 C-9.22910156 14.37558594 -9.22910156 14.37558594 -7.7890625 14.7109375 C-6.91975098 14.90993652 -6.05043945 15.10893555 -5.15478516 15.31396484 C-3 16 -3 16 -1 18 C-1.495 18.495 -1.495 18.495 -2 19 C-2.23481693 21.18292774 -2.41363323 23.37203174 -2.5625 25.5625 C-2.68818359 27.35880859 -2.68818359 27.35880859 -2.81640625 29.19140625 C-2.87699219 30.11824219 -2.93757812 31.04507813 -3 32 C-4.32 32 -5.64 32 -7 32 C-7 31.34 -7 30.68 -7 30 C-6.01 30 -5.02 30 -4 30 C-4.66 26.37 -5.32 22.74 -6 19 C-6.81082031 18.81824219 -7.62164063 18.63648438 -8.45703125 18.44921875 C-15.69429277 16.80630141 -22.8534964 15.00102101 -30 13 C-29.34 16.96 -28.68 20.92 -28 25 C-26.659375 25.28875 -25.31875 25.5775 -23.9375 25.875 C-19.90448315 26.76838981 -15.95814055 27.82097941 -12 29 C-12.33 31.64 -12.66 34.28 -13 37 C-12.01 37.495 -12.01 37.495 -11 38 C-11.99 38.99 -12.98 39.98 -14 41 C-14.99 38.69 -15.98 36.38 -17 34 C-18.98 34.495 -18.98 34.495 -21 35 C-21 41.27 -21 47.54 -21 54 C-20.34 53.34 -19.68 52.68 -19 52 C-19 51.34 -19 50.68 -19 50 C-18.34 50 -17.68 50 -17 50 C-16.505 52.475 -16.505 52.475 -16 55 C-15.34 55 -14.68 55 -14 55 C-14 56.98 -14 58.96 -14 61 C-19.61 61 -25.22 61 -31 61 C-31.33 53.08 -31.66 45.16 -32 37 C-36.1765625 35.9790625 -36.1765625 35.9790625 -40.4375 34.9375 C-41.31591553 34.71956787 -42.19433105 34.50163574 -43.09936523 34.27709961 C-45.05631372 33.80786293 -47.02807045 33.40165198 -49 33 C-50.56095477 34.56095477 -50.16961928 36.09000895 -50.1875 38.25 C-50.20876953 39.40242188 -50.20876953 39.40242188 -50.23046875 40.578125 C-49.96739862 43.34259079 -49.13169364 45.47717307 -48 48 C-47.22914063 48.06058594 -46.45828125 48.12117188 -45.6640625 48.18359375 C-44.66117188 48.26738281 -43.65828125 48.35117188 -42.625 48.4375 C-41.62726562 48.51871094 -40.62953125 48.59992188 -39.6015625 48.68359375 C-37 49 -37 49 -35 50 C-35.33 52.64 -35.66 55.28 -36 58 C-36.66 58 -37.32 58 -38 58 C-38 56.02 -38 54.04 -38 52 C-40.31 52 -42.62 52 -45 52 C-45 51.34 -45 50.68 -45 50 C-48.63 50.66 -52.26 51.32 -56 52 C-56 51.34 -56 50.68 -56 50 C-58.64 50.33 -61.28 50.66 -64 51 C-66.1340896 45.60200865 -66.62634406 40.34882453 -67.125 34.625 C-67.41375 31.44875 -67.7025 28.2725 -68 25 C-61.4 24.01 -54.8 23.02 -48 22 C-48 21.01 -48 20.02 -48 19 C-45.69 19.66 -43.38 20.32 -41 21 C-40.13375 20.01 -40.13375 20.01 -39.25 19 C-37 17 -37 17 -33 17 C-33.33 19.31 -33.66 21.62 -34 24 C-33.01 24 -32.02 24 -31 24 C-31.144375 23.40832031 -31.28875 22.81664062 -31.4375 22.20703125 C-31.623125 21.41683594 -31.80875 20.62664062 -32 19.8125 C-32.185625 19.03519531 -32.37125 18.25789063 -32.5625 17.45703125 C-33.01422743 14.92009775 -33.07307143 12.57120097 -33 10 C-30.58490559 9.32713788 -28.16819644 8.66153988 -25.75 8 C-25.06808594 7.80921875 -24.38617187 7.6184375 -23.68359375 7.421875 C-20.29399088 6.50042956 -17.54221024 6 -14 6 C-13.67 4.68 -13.34 3.36 -13 2 C-11.1875 1.375 -11.1875 1.375 -9 1 C-8.01 1.66 -7.02 2.32 -6 3 C-3.03923709 2.64111965 -2.15341979 2.15341979 0 0 Z M-11 4 C-10.28436734 6.0162233 -10.28436734 6.0162233 -9 8 C-6.94999129 8.80528889 -6.94999129 8.80528889 -5 9 C-6.28288757 6.44496043 -6.28288757 6.44496043 -8 4 C-8.99 4 -9.98 4 -11 4 Z M-37 20 C-37 23 -37 23 -37 23 Z M-40 25 C-39.67 25.66 -39.34 26.32 -39 27 C-38.67 26.34 -38.34 25.68 -38 25 C-38.66 25 -39.32 25 -40 25 Z M-60 26 C-57.35499453 27.39646821 -54.82606024 28.47081227 -51.9375 29.25 C-51.26589844 29.44078125 -50.59429688 29.6315625 -49.90234375 29.828125 C-47.66639469 30.23066089 -47.66639469 30.23066089 -45 28 C-50.12919186 25.89571616 -54.5610835 25.78244334 -60 26 Z M-35 29 C-29.19233704 30.5056904 -24.0018137 31.21824777 -18 31 C-18 30.67 -18 30.34 -18 30 C-20.26711017 29.44295576 -22.53887387 28.90482169 -24.8125 28.375 C-26.07707031 28.07335937 -27.34164062 27.77171875 -28.64453125 27.4609375 C-32.12564478 26.60509307 -32.12564478 26.60509307 -35 29 Z M-64 29 C-64.11269443 35.1105424 -63.89604368 40.95170514 -63 47 C-62.01 47.33 -61.02 47.66 -60 48 C-60 46.02 -60 44.04 -60 42 C-57.61435923 42.57584432 -55.33317216 43.22227595 -53 44 C-52.67 39.71 -52.34 35.42 -52 31 C-56.85213172 29.38262276 -59.18201244 28.77057202 -64 29 Z M-44 30 C-39.34714182 33.10190545 -34.58467324 34.33846504 -29 34 C-29 33.34 -29 32.68 -29 32 C-34.22512279 30.53329887 -38.5814234 29.77422598 -44 30 Z M-28 35 C-28.27565727 37.60376274 -28.52127265 40.20455968 -28.75 42.8125 C-28.83121094 43.55048828 -28.91242187 44.28847656 -28.99609375 45.04882812 C-29.23958271 47.47723115 -29.23958271 47.47723115 -29 51 C-27.17574227 53.07075015 -27.17574227 53.07075015 -25 54 C-25 53.34 -25 52.68 -25 52 C-24.34 51.67 -23.68 51.34 -23 51 C-23.33 45.72 -23.66 40.44 -24 35 C-25.32 35 -26.64 35 -28 35 Z M-58 44 C-57 46 -57 46 -57 46 Z M-57 46 C-56 48 -56 48 -56 48 Z " fill="#D1A5E9" transform="translate(683,153)"/>
<path d="M0 0 C1.85279829 7.34112935 2.59397473 14.51932956 3.125 22.0625 C3.21136719 23.21427734 3.29773438 24.36605469 3.38671875 25.55273438 C3.59699593 28.36811223 3.80128364 31.18378659 4 34 C4.99 34.33 5.98 34.66 7 35 C7 35.66 7 36.32 7 37 C5.37509046 37.02698189 3.75005367 37.04638757 2.125 37.0625 C1.22007812 37.07410156 0.31515625 37.08570313 -0.6171875 37.09765625 C-3 37 -3 37 -5 36 C-5.33 35.01 -5.66 34.02 -6 33 C-6.45375 33.66 -6.9075 34.32 -7.375 35 C-7.91125 35.66 -8.4475 36.32 -9 37 C-9.66 37 -10.32 37 -11 37 C-11 35.35 -11 33.7 -11 32 C-11.66 32 -12.32 32 -13 32 C-13.33 33.65 -13.66 35.3 -14 37 C-15.9375 36.1875 -15.9375 36.1875 -18 35 C-18.33 34.01 -18.66 33.02 -19 32 C-19.804375 32 -20.60875 32 -21.4375 32 C-26.78804315 32 -28.66146107 31.47083114 -33 28 C-33.99 28 -34.98 28 -36 28 C-35.66951441 22.71223057 -32.51647805 18.75899378 -29 15 C-28.34 15 -27.68 15 -27 15 C-27 16.98 -27 18.96 -27 21 C-27.99 21 -28.98 21 -30 21 C-30 21.66 -30 22.32 -30 23 C-28.68 23 -27.36 23 -26 23 C-26.01740234 21.73542969 -26.01740234 21.73542969 -26.03515625 20.4453125 C-26.04417969 19.34960938 -26.05320312 18.25390625 -26.0625 17.125 C-26.07410156 16.03445312 -26.08570313 14.94390625 -26.09765625 13.8203125 C-26 11 -26 11 -25 9 C-24.01 9 -23.02 9 -22 9 C-22 8.34 -22 7.68 -22 7 C-18.89878289 5.82538445 -15.79357759 4.66169544 -12.6875 3.5 C-11.36588867 2.99919922 -11.36588867 2.99919922 -10.01757812 2.48828125 C-9.17001953 2.17246094 -8.32246094 1.85664063 -7.44921875 1.53125 C-6.66893311 1.23798828 -5.88864746 0.94472656 -5.0847168 0.64257812 C-3 0 -3 0 0 0 Z " fill="#4C6C42" transform="translate(706,162)"/>
<path d="M0 0 C0.433125 0.639375 0.86625 1.27875 1.3125 1.9375 C2.91239177 4.26746003 2.91239177 4.26746003 6 5 C7.70586575 6.62652316 9.3777546 8.29006566 11 10 C11.33 8.35 11.66 6.7 12 5 C12.66 5 13.32 5 14 5 C14.19978537 6.64438725 14.38403611 8.29066235 14.5625 9.9375 C14.66691406 10.85402344 14.77132812 11.77054688 14.87890625 12.71484375 C15.03013657 16.81757597 14.45337867 20.91959193 14 25 C5.42 25 -3.16 25 -12 25 C-14.28571429 10.14285714 -14.28571429 10.14285714 -14 3 C-13.01 3.33 -12.02 3.66 -11 4 C-10.67 3.34 -10.34 2.68 -10 2 C-6.26512223 2.4979837 -4.18762365 2.87491756 -1 5 C-0.67 3.35 -0.34 1.7 0 0 Z M-6 5 C-6.33 5.66 -6.66 6.32 -7 7 C-6.34 7 -5.68 7 -5 7 C-5.33 6.34 -5.66 5.68 -6 5 Z M-11 8 C-10.67 10.31 -10.34 12.62 -10 15 C-9.67 15 -9.34 15 -9 15 C-9 12.69 -9 10.38 -9 8 C-9.66 8 -10.32 8 -11 8 Z M-6 9 C-5.67 11.31 -5.34 13.62 -5 16 C-4.67 16 -4.34 16 -4 16 C-4 14.02 -4 12.04 -4 10 C-4.66 9.67 -5.32 9.34 -6 9 Z M-1 10 C-0.67 11.98 -0.34 13.96 0 16 C0.33 16 0.66 16 1 16 C1 14.02 1 12.04 1 10 C0.34 10 -0.32 10 -1 10 Z M4 10 C5 12 5 12 5 12 Z " fill="#96D7DA" transform="translate(681,189)"/>
<path d="M0 0 C0.99 0.66 1.98 1.32 3 2 C4.65 1.67 6.3 1.34 8 1 C8 6.61 8 12.22 8 18 C-0.58 18 -9.16 18 -18 18 C-18 14.04 -18 10.08 -18 6 C-7.375 4 -7.375 4 -4 4 C-3.67 3.34 -3.34 2.68 -3 2 C-2.01 2 -1.02 2 0 2 C0 1.34 0 0.68 0 0 Z M0 2 C0 2.66 0 3.32 0 4 C0.66 3.67 1.32 3.34 2 3 C1.34 2.67 0.68 2.34 0 2 Z " fill="#FEFEFE" transform="translate(765,196)"/>
<path d="M0 0 C0.66 0.99 1.32 1.98 2 3 C5.45821402 3.25003964 5.45821402 3.25003964 9 3 C12.66666667 3 16.33333333 3 20 3 C20 3.66 20 4.32 20 5 C20.598125 5.144375 21.19625 5.28875 21.8125 5.4375 C23.56150404 5.8872439 25.28677023 6.42892341 27 7 C27 8.32 27 9.64 27 11 C27.66 11 28.32 11 29 11 C29.33 9.02 29.66 7.04 30 5 C30.495 5.99 30.495 5.99 31 7 C31.99 7 32.98 7 34 7 C34 9.31 34 11.62 34 14 C2.07748636 14.89178613 2.07748636 14.89178613 -6 10 C-7.61253894 7.57882717 -8.10648408 6.63890448 -7.625 3.75 C-7.41875 3.1725 -7.2125 2.595 -7 2 C-4.69 1.34 -2.38 0.68 0 0 Z " fill="#E4CBF2" transform="translate(618,200)"/>
<path d="M0 0 C2.0625 0.1875 2.0625 0.1875 4 1 C4.495 2.485 4.495 2.485 5 4 C5.74765625 4.04898438 6.4953125 4.09796875 7.265625 4.1484375 C8.25046875 4.22320312 9.2353125 4.29796875 10.25 4.375 C11.71179688 4.47941406 11.71179688 4.47941406 13.203125 4.5859375 C15.89633189 4.98465249 17.66963279 5.63507063 20 7 C12.57142857 7.14285714 12.57142857 7.14285714 9 6 C8.855625 6.639375 8.71125 7.27875 8.5625 7.9375 C8 10 8 10 7 11 C5.33382885 11.04063832 3.66611905 11.042721 2 11 C1.67 11.99 1.34 12.98 1 14 C0.505 13.01 0.505 13.01 0 12 C0.33 11.34 0.66 10.68 1 10 C2.66666667 9.66666667 4.33333333 9.33333333 6 9 C6.33 8.34 6.66 7.68 7 7 C4.69 7.66 2.38 8.32 0 9 C0.66 7.35 1.32 5.7 2 4 C1.34 4 0.68 4 0 4 C-0.33 6.31 -0.66 8.62 -1 11 C-2.32 11.33 -3.64 11.66 -5 12 C-5 12.66 -5 13.32 -5 14 C-7.375 14.125 -7.375 14.125 -10 14 C-10.66 13.34 -11.32 12.68 -12 12 C-12 10.68 -12 9.36 -12 8 C-15.96 8.99 -19.92 9.98 -24 11 C-22.50726562 11.33773437 -21.01453125 11.67546875 -19.4765625 12.0234375 C-17.52595385 12.47357796 -15.57543774 12.92411959 -13.625 13.375 C-12.64015625 13.59671875 -11.6553125 13.8184375 -10.640625 14.046875 C-9.69960938 14.26601562 -8.75859375 14.48515625 -7.7890625 14.7109375 C-6.91975098 14.90993652 -6.05043945 15.10893555 -5.15478516 15.31396484 C-3 16 -3 16 -1 18 C-1.33 18.33 -1.66 18.66 -2 19 C-2.23481693 21.18292774 -2.41363323 23.37203174 -2.5625 25.5625 C-2.64628906 26.76003906 -2.73007812 27.95757812 -2.81640625 29.19140625 C-2.90728516 30.58166016 -2.90728516 30.58166016 -3 32 C-4.32 32 -5.64 32 -7 32 C-7 31.34 -7 30.68 -7 30 C-6.01 30 -5.02 30 -4 30 C-4.66 26.37 -5.32 22.74 -6 19 C-6.81082031 18.81824219 -7.62164063 18.63648438 -8.45703125 18.44921875 C-15.69429277 16.80630141 -22.8534964 15.00102101 -30 13 C-29.34 16.63 -28.68 20.26 -28 24 C-28.99 24 -29.98 24 -31 24 C-31.34019152 22.60582227 -31.67181779 21.20955342 -32 19.8125 C-32.185625 19.03519531 -32.37125 18.25789063 -32.5625 17.45703125 C-33.01422743 14.92009775 -33.07307143 12.57120097 -33 10 C-30.58490559 9.32713788 -28.16819644 8.66153988 -25.75 8 C-25.06808594 7.80921875 -24.38617187 7.6184375 -23.68359375 7.421875 C-20.29399088 6.50042956 -17.54221024 6 -14 6 C-13.67 4.68 -13.34 3.36 -13 2 C-11.1875 1.375 -11.1875 1.375 -9 1 C-8.01 1.66 -7.02 2.32 -6 3 C-3.03923709 2.64111965 -2.15341979 2.15341979 0 0 Z M-11 4 C-10.28436734 6.0162233 -10.28436734 6.0162233 -9 8 C-6.94999129 8.80528889 -6.94999129 8.80528889 -5 9 C-6.28288757 6.44496043 -6.28288757 6.44496043 -8 4 C-8.99 4 -9.98 4 -11 4 Z " fill="#EED993" transform="translate(683,153)"/>
<path d="M0 0 C1.98 0.495 1.98 0.495 4 1 C4 2.98 4 4.96 4 7 C5.65 6.34 7.3 5.68 9 5 C9.33 5.99 9.66 6.98 10 8 C12.09719872 9.02281518 12.09719872 9.02281518 14.5625 9.6875 C15.38878906 9.93886719 16.21507812 10.19023437 17.06640625 10.44921875 C17.70449219 10.63097656 18.34257813 10.81273437 19 11 C19 9.02 19 7.04 19 5 C19.66 5 20.32 5 21 5 C21.66 9.95 22.32 14.9 23 20 C23 14.39 23 8.78 23 3 C24.65 3 26.3 3 28 3 C27.67 9.6 27.34 16.2 27 23 C21.39 23 15.78 23 10 23 C10 20.69 10 18.38 10 16 C7.03 16 4.06 16 1 16 C2.32 15.34 3.64 14.68 5 14 C4.67 13.01 4.34 12.02 4 11 C1.98491642 10.26676204 1.98491642 10.26676204 0 10 C0 9.01 0 8.02 0 7 C0.66 6.67 1.32 6.34 2 6 C2.65213292 3.97536745 2.65213292 3.97536745 3 2 C2.01 2 1.02 2 0 2 C-0.33 2.66 -0.66 3.32 -1 4 C-0.67 2.68 -0.34 1.36 0 0 Z M8 11 C8.99 11.495 8.99 11.495 10 12 C10 12.66 10 13.32 10 14 C13.465 13.505 13.465 13.505 17 13 C13.86501708 11.14223235 11.62528568 10.79859524 8 11 Z " fill="#F8C5C5" transform="translate(720,191)"/>
<path d="M0 0 C4 2 4 2 5.7265625 3.046875 C11.49425712 5.46494628 19.19442945 4.85309334 25.0703125 3.06640625 C26.77047136 2.35015857 28.45382623 1.59141326 30.109375 0.77734375 C30.73328125 0.52082031 31.3571875 0.26429688 32 0 C32.66 0.33 33.32 0.66 34 1 C26.51879086 5.42455259 19.61041423 7.09577155 11 8 C21.34883576 18.10243491 34.16967998 22.20387008 48 25 C48.89976562 25.19722656 49.79953125 25.39445312 50.7265625 25.59765625 C55.77147075 26.21773447 60.79804157 26.10314068 65.875 26.0625 C67.47988281 26.05573242 67.47988281 26.05573242 69.1171875 26.04882812 C71.74484986 26.03709749 74.37239538 26.02068228 77 26 C77 26.66 77 27.32 77 28 C74.36 28 71.72 28 69 28 C68.505 30.475 68.505 30.475 68 33 C66.68 33.33 65.36 33.66 64 34 C63.67 32.35 63.34 30.7 63 29 C61.87464844 28.90203125 60.74929688 28.8040625 59.58984375 28.703125 C43.81196545 27.21924694 24.7998851 24.7998851 13 13 C10.84437356 13.05379186 10.84437356 13.05379186 8.5 13.5 C6.09375 13.90625 6.09375 13.90625 4 14 C2 12 2 12 1.875 9.375 C1.91625 8.59125 1.9575 7.8075 2 7 C2.66 7 3.32 7 4 7 C4 6.34 4 5.68 4 5 C3.34 5 2.68 5 2 5 C1.34 3.35 0.68 1.7 0 0 Z " fill="#BCD430" transform="translate(696,131)"/>
<path d="M0 0 C2.6875 2.5 2.6875 2.5 5 5 C5.33 3.35 5.66 1.7 6 0 C6.66 0 7.32 0 8 0 C8.83854735 6.90188971 9.01593448 13.11422188 8 20 C4.37 20 0.74 20 -3 20 C-5.14285714 9.95535714 -5.14285714 9.95535714 -5 5 C-5.66 4.67 -6.32 4.34 -7 4 C-3.375 0 -3.375 0 0 0 Z M-2 5 C-1 7 -1 7 -1 7 Z " fill="#9EDADC" transform="translate(687,194)"/>
<path d="M0 0 C0.66 0 1.32 0 2 0 C2 1.98 2 3.96 2 6 C1.01 6 0.02 6 -1 6 C-1 6.66 -1 7.32 -1 8 C0.32 8 1.64 8 3 8 C3 5.69 3 3.38 3 1 C3.33 1 3.66 1 4 1 C4 3.31 4 5.62 4 8 C6.64 8 9.28 8 12 8 C13.125 12.75 13.125 12.75 12 15 C14.475 15.495 14.475 15.495 17 16 C16.34 17.98 15.68 19.96 15 22 C13.0625 21.1875 13.0625 21.1875 11 20 C10.67 19.01 10.34 18.02 10 17 C9.195625 17 8.39125 17 7.5625 17 C2.21195685 17 0.33853893 16.47083114 -4 13 C-4.99 13 -5.98 13 -7 13 C-6.66951441 7.71223057 -3.51647805 3.75899378 0 0 Z " fill="#7CA994" transform="translate(677,177)"/>
<path d="M0 0 C-0.268125 0.721875 -0.53625 1.44375 -0.8125 2.1875 C-0.9053125 3.5796875 -0.9053125 3.5796875 -1 5 C1.29151077 7.62494782 1.29151077 7.62494782 4 10 C5.3125 12.3125 5.3125 12.3125 6 14 C3.86328125 15.15234375 3.86328125 15.15234375 1 16 C-6.62948275 13.65327634 -13.56494314 8.80272248 -19 3 C-19 2.67 -19 2.34 -19 2 C-18.26394531 1.95101562 -17.52789063 1.90203125 -16.76953125 1.8515625 C-15.79371094 1.77679688 -14.81789063 1.70203125 -13.8125 1.625 C-12.84957031 1.55539063 -11.88664063 1.48578125 -10.89453125 1.4140625 C-7.97322364 1.11722447 -7.97322364 1.11722447 -5.32421875 -0.1015625 C-3 -1 -3 -1 0 0 Z " fill="#47683E" transform="translate(725,136)"/>
<path d="M0 0 C0.66 0.33 1.32 0.66 2 1 C2.40729228 3.32156597 2.74438677 5.6568787 3 8 C4.65 7.67 6.3 7.34 8 7 C8.33 8.32 8.66 9.64 9 11 C7.68 11.33 6.36 11.66 5 12 C5.33 14.31 5.66 16.62 6 19 C3.93163582 18.48290895 1.9794321 17.99164429 0 17.1875 C-0.99 17.0946875 -0.99 17.0946875 -2 17 C-4.14589423 18.89586384 -4.14589423 18.89586384 -6 21 C-6.66 21 -7.32 21 -8 21 C-7.835 20.236875 -7.67 19.47375 -7.5 18.6875 C-6.83802725 15.12939648 -7.04890038 12.44773611 -8 9 C-6.02 9 -4.04 9 -2 9 C-2.04125 8.071875 -2.0825 7.14375 -2.125 6.1875 C-2 3 -2 3 0 0 Z " fill="#C9E124" transform="translate(726,30)"/>
<path d="M0 0 C2.31 0.33 4.62 0.66 7 1 C6.01 1.495 6.01 1.495 5 2 C5 2.66 5 3.32 5 4 C5.66 4 6.32 4 7 4 C7.33 3.34 7.66 2.68 8 2 C10.86724686 2.57344937 11.8614515 2.8614515 14 5 C14.5 7.3125 14.5 7.3125 14 10 C11.27010338 12.85686856 9.25819842 14.70042895 5.375 15.625 C3 15 3 15 0.625 13.125 C-1.720876 8.6137 -0.87251471 4.88418559 0 0 Z " fill="#C486A4" transform="translate(703,80)"/>
<path d="M0 0 C5.28 0 10.56 0 16 0 C13.83984095 3.24023858 13.23410866 3.56391208 9.75390625 4.82421875 C8.49803711 5.28344727 8.49803711 5.28344727 7.21679688 5.75195312 C6.34087891 6.06068359 5.46496094 6.36941406 4.5625 6.6875 C3.69044922 7.00783203 2.81839844 7.32816406 1.91992188 7.65820312 C-4.5761927 10 -4.5761927 10 -8 10 C-8 10.66 -8 11.32 -8 12 C-10.31 11.34 -12.62 10.68 -15 10 C-13.6979284 7.09537874 -12.5863129 4.89662946 -10 3 C-7.34925019 2.15490947 -4.72838717 1.58145956 -2 1 C-2.33 1.99 -2.66 2.98 -3 4 C-4.65 4 -6.3 4 -8 4 C-8 4.99 -8 5.98 -8 7 C-7.67 6.34 -7.34 5.68 -7 5 C-6.01 4.690625 -5.02 4.38125 -4 4.0625 C-2.515 3.5365625 -2.515 3.5365625 -1 3 C-0.67 2.01 -0.34 1.02 0 0 Z " fill="#C2BB7E" transform="translate(692,159)"/>
<path d="M0 0 C0.33 0.66 0.66 1.32 1 2 C1.99 2 2.98 2 4 2 C4 4.31 4 6.62 4 9 C1.36 9 -1.28 9 -4 9 C-4 7.68 -4 6.36 -4 5 C-5.423125 5.495 -5.423125 5.495 -6.875 6 C-11.55447256 7.3644458 -16.16823759 7.17499341 -21 7 C-21 5.35 -21 3.7 -21 2 C-18.75067773 1.8045375 -16.50049858 1.61891774 -14.25 1.4375 C-12.99703125 1.33308594 -11.7440625 1.22867188 -10.453125 1.12109375 C-7.60547636 1.02123277 -5.65713933 1.09415705 -3 2 C-3 3.32 -3 4.64 -3 6 C-2.34 6 -1.68 6 -1 6 C-0.67 4.02 -0.34 2.04 0 0 Z " fill="#FCFBFE" transform="translate(648,205)"/>
<path d="M0 0 C1.9375 0.8125 1.9375 0.8125 4 2 C4.33 2.99 4.66 3.98 5 5 C7.00016466 6.20882096 7.00016466 6.20882096 9 7 C8.6875 9.375 8.6875 9.375 8 12 C5 14 5 14 2.625 13.9375 C-2.62319499 12.06314465 -5.42580904 7.74193072 -8 3 C-6.1875 2.375 -6.1875 2.375 -4 2 C-3.01 2.66 -2.02 3.32 -1 4 C-0.67 2.68 -0.34 1.36 0 0 Z " fill="#A2B49F" transform="translate(731,137)"/>
<path d="M0 0 C3.91542019 0.83901861 5.89167247 2.70204096 8.625 5.5625 C9 8.375 9 8.375 8.625 10.5625 C7.635 10.8925 6.645 11.2225 5.625 11.5625 C5.295 10.5725 4.965 9.5825 4.625 8.5625 C4.955 7.9025 5.285 7.2425 5.625 6.5625 C3.975 6.5625 2.325 6.5625 0.625 6.5625 C-0.035 5.2425 -0.695 3.9225 -1.375 2.5625 C-1.19084568 5.50341587 -1.19084568 5.50341587 -0.375 8.5625 C1.57663118 9.99887698 1.57663118 9.99887698 3.625 10.5625 C-1.25 9.6875 -1.25 9.6875 -2.375 8.5625 C-2.705 9.2225 -3.035 9.8825 -3.375 10.5625 C-1.395 11.2225 0.585 11.8825 2.625 12.5625 C2.625 13.2225 2.625 13.8825 2.625 14.5625 C-4.125 13.8125 -4.125 13.8125 -6.375 11.5625 C-6.81162786 7.6328493 -6.97251439 5.42557634 -4.6875 2.125 C-2.375 0.5625 -2.375 0.5625 0 0 Z " fill="#E97DD4" transform="translate(756.375,123.4375)"/>
<path d="M0 0 C2.64 0 5.28 0 8 0 C9.125 4.75 9.125 4.75 8 7 C9.65 7.33 11.3 7.66 13 8 C12.34 9.98 11.68 11.96 11 14 C9.0625 13.1875 9.0625 13.1875 7 12 C6.67 11.01 6.34 10.02 6 9 C4.35 9 2.7 9 1 9 C0.67 6.03 0.34 3.06 0 0 Z " fill="#71A492" transform="translate(681,185)"/>
<path d="M0 0 C0.66 0.33 1.32 0.66 2 1 C5.28738549 1.939253 8.62665985 2.46333225 12 3 C12 4.98 12 6.96 12 9 C7.71 9 3.42 9 -1 9 C-1.09765625 2.84765625 -1.09765625 2.84765625 -1 1 C-0.67 0.67 -0.34 0.34 0 0 Z " fill="#FEFDFD" transform="translate(708,205)"/>
<path d="M0 0 C1.65 0 3.3 0 5 0 C4.67 6.6 4.34 13.2 4 20 C1.69 20 -0.62 20 -3 20 C-3 19.34 -3 18.68 -3 18 C-2.01 17.67 -1.02 17.34 0 17 C0 11.39 0 5.78 0 0 Z " fill="#C9ADAB" transform="translate(743,194)"/>
<path d="M0 0 C2.0625 0.4375 2.0625 0.4375 4 1 C4 1.66 4 2.32 4 3 C5.65 2.67 7.3 2.34 9 2 C8.67 3.98 8.34 5.96 8 8 C7.01 8.33 6.02 8.66 5 9 C5 9.99 5 10.98 5 12 C2.03 11.505 2.03 11.505 -1 11 C-1.02688151 9.35425434 -1.04634123 7.70838587 -1.0625 6.0625 C-1.07410156 5.14597656 -1.08570313 4.22945313 -1.09765625 3.28515625 C-1 1 -1 1 0 0 Z " fill="#36EFEB" transform="translate(705,119)"/>
<path d="M0 0 C9.57 0 19.14 0 29 0 C29 0.66 29 1.32 29 2 C26.36 2 23.72 2 21 2 C20.67 3.65 20.34 5.3 20 7 C18.68 7.33 17.36 7.66 16 8 C15.67 6.35 15.34 4.7 15 3 C14.25234375 2.95101562 13.5046875 2.90203125 12.734375 2.8515625 C11.25710938 2.73941406 11.25710938 2.73941406 9.75 2.625 C8.77546875 2.55539063 7.8009375 2.48578125 6.796875 2.4140625 C4 2 4 2 0 0 Z " fill="#C7DE32" transform="translate(744,157)"/>
<path d="M0 0 C2.875 -0.1875 2.875 -0.1875 6 0 C8.69195459 4.03793188 9.91495658 8.29814518 11 13 C9.02 13.99 9.02 13.99 7 15 C7.2475 14.4225 7.495 13.845 7.75 13.25 C7.8325 12.5075 7.915 11.765 8 11 C6.14567913 8.72855926 6.14567913 8.72855926 4 7 C4 9.33859436 4.60856242 11.70030423 5 14 C4.01 13.67 3.02 13.34 2 13 C1.26953125 11.07421875 1.26953125 11.07421875 0.8125 8.6875 C0.65394531 7.90761719 0.49539063 7.12773438 0.33203125 6.32421875 C0 4 0 4 0 0 Z " fill="#B0C0AC" transform="translate(731,81)"/>
<path d="M0 0 C2 3 2 3 2 5 C10.415 4.01 10.415 4.01 19 3 C19 4.32 19 5.64 19 7 C-1.72340426 7.57446809 -1.72340426 7.57446809 -10 4 C-6.52176885 2.84058962 -4.54104422 3.29179116 -1 4 C-0.67 2.68 -0.34 1.36 0 0 Z " fill="#E1C4F0" transform="translate(625,207)"/>
<path d="M0 0 C0.66 0.33 1.32 0.66 2 1 C1.67 1.598125 1.34 2.19625 1 2.8125 C-0.20787988 5.05386471 -0.20787988 5.05386471 0 8 C-1.4577353 8.335939 -2.91621106 8.66866624 -4.375 9 C-5.18710937 9.185625 -5.99921875 9.37125 -6.8359375 9.5625 C-9 10 -9 10 -11 10 C-11.33 11.65 -11.66 13.3 -12 15 C-13.65 15.33 -15.3 15.66 -17 16 C-16.86328125 13.72265625 -16.86328125 13.72265625 -16 11 C-13.41796875 9.12109375 -13.41796875 9.12109375 -10.1875 7.4375 C-6.16969995 5.31848974 -3.05675209 3.38241091 0 0 Z " fill="#B9D13A" transform="translate(735,59)"/>
<path d="M0 0 C2.97 0 5.94 0 9 0 C8.67 2.64 8.34 5.28 8 8 C5.36 8 2.72 8 0 8 C0 5.36 0 2.72 0 0 Z " fill="#FEFAFA" transform="translate(731,206)"/>
<path d="M0 0 C0.66 0 1.32 0 2 0 C3.94210433 7.47941368 5.39363688 14.25847464 5 22 C4.01 22 3.02 22 2 22 C-0.29612756 7.40318907 -0.29612756 7.40318907 0 0 Z " fill="#A2CFDD" transform="translate(667,192)"/>
<path d="M0 0 C1.9375 0.8125 1.9375 0.8125 4 2 C4.33 2.99 4.66 3.98 5 5 C7.00016466 6.20882096 7.00016466 6.20882096 9 7 C8.67 8.65 8.34 10.3 8 12 C6 11 6 11 5 8 C4.34 7.67 3.68 7.34 3 7 C2.375 4.4375 2.375 4.4375 2 2 C2 3.32 2 4.64 2 6 C2 6.66 2 7.32 2 8 C1.195625 7.67 0.39125 7.34 -0.4375 7 C-2.69681125 5.93940959 -2.69681125 5.93940959 -4 6 C-3.01 7.485 -3.01 7.485 -2 9 C-4.62187494 7.95125002 -5.79371361 7.35068687 -7.25 4.875 C-7.4975 4.25625 -7.745 3.6375 -8 3 C-6.1875 2.375 -6.1875 2.375 -4 2 C-3.01 2.66 -2.02 3.32 -1 4 C-0.67 2.68 -0.34 1.36 0 0 Z " fill="#DFE6DE" transform="translate(731,137)"/>
<path d="M0 0 C1.32 0 2.64 0 4 0 C4.50910422 3.49873754 5.005606 6.99915601 5.5 10.5 C5.64308594 11.48226562 5.78617188 12.46453125 5.93359375 13.4765625 C6.71137666 19.03215468 7.36027859 24.38994772 7 30 C6.34 30.66 5.68 31.32 5 32 C4.91959473 31.06615479 4.83918945 30.13230957 4.75634766 29.17016602 C4.45446116 25.71612805 4.1441878 22.26306085 3.828125 18.81030273 C3.69289747 17.31386055 3.56105137 15.81710889 3.43261719 14.32006836 C3.24775535 12.172116 3.05088429 10.02555884 2.8515625 7.87890625 C2.73635254 6.5854126 2.62114258 5.29191895 2.50244141 3.95922852 C2.25373291 2.4944104 2.25373291 2.4944104 2 1 C1.34 0.67 0.68 0.34 0 0 Z " fill="#D4C988" transform="translate(704,160)"/>
<path d="M0 0 C2.86724686 0.57344937 3.8614515 0.8614515 6 3 C6.5 5.3125 6.5 5.3125 6 8 C3.13253882 11.00083147 1.32237154 12.85626396 -2.875 13.3125 C-3.926875 13.1578125 -3.926875 13.1578125 -5 13 C-5.66 11.68 -6.32 10.36 -7 9 C-3.7 9 -0.4 9 3 9 C3.33 7.02 3.66 5.04 4 3 C3.34 3 2.68 3 2 3 C1.67 3.66 1.34 4.32 1 5 C0.01 4.34 -0.98 3.68 -2 3 C-1.34 2.01 -0.68 1.02 0 0 Z " fill="#E380CF" transform="translate(711,82)"/>
<path d="M0 0 C0.66 0.28875 1.32 0.5775 2 0.875 C5.62499465 2.23437299 9.23346693 3.10624639 13 4 C13 5.65 13 7.3 13 9 C11.3934324 8.74379316 9.7897517 8.46944129 8.1875 8.1875 C7.29417969 8.03667969 6.40085937 7.88585937 5.48046875 7.73046875 C2.75459759 6.92773189 1.62576055 6.31711387 0 4 C0 2.68 0 1.36 0 0 Z " fill="#FCF9FD" transform="translate(612,203)"/>
<path d="M0 0 C0.66 0 1.32 0 2 0 C2.33 1.65 2.66 3.3 3 5 C3.66 5 4.32 5 5 5 C5 6.98 5 8.96 5 11 C2.69 11 0.38 11 -2 11 C-2.125 7.625 -2.125 7.625 -2 4 C-1.34 3.34 -0.68 2.68 0 2 C0 1.34 0 0.68 0 0 Z " fill="#FEFEFE" transform="translate(664,203)"/>
<path d="M0 0 C2 0 4 0 6 0 C6 2.97 6 5.94 6 9 C4.02 9 2.04 9 0 9 C0 6.03 0 3.06 0 0 Z " fill="#FEFDFE" transform="translate(654,205)"/>
<path d="M0 0 C1.32 0.33 2.64 0.66 4 1 C4 2.32 4 3.64 4 5 C4.66 5 5.32 5 6 5 C6 5.66 6 6.32 6 7 C3.36660729 7.97533063 2.07651653 8.019574 -0.6875 7.3125 C-3 6 -3 6 -3.8125 3.875 C-3.874375 3.25625 -3.93625 2.6375 -4 2 C-2.68 2 -1.36 2 0 2 C0 1.34 0 0.68 0 0 Z " fill="#37ECE8" transform="translate(742,65)"/>
<path d="M0 0 C0.66 0.99 1.32 1.98 2 3 C4.17897492 4.00805555 4.17897492 4.00805555 6.625 4.6875 C7.85089844 5.06455078 7.85089844 5.06455078 9.1015625 5.44921875 C9.72804688 5.63097656 10.35453125 5.81273437 11 6 C11 4.02 11 2.04 11 0 C11.66 0 12.32 0 13 0 C13.33 3.96 13.66 7.92 14 12 C13.67 10.68 13.34 9.36 13 8 C12.15695312 7.86722656 11.31390625 7.73445312 10.4453125 7.59765625 C9.34960938 7.42105469 8.25390625 7.24445313 7.125 7.0625 C6.03445313 6.88847656 4.94390625 6.71445313 3.8203125 6.53515625 C1 6 1 6 -1 5 C-0.67 3.35 -0.34 1.7 0 0 Z " fill="#D8AEAE" transform="translate(728,196)"/>
<path d="M0 0 C2.97 0.495 2.97 0.495 6 1 C5.75 3.875 5.75 3.875 5 7 C2.45285085 8.86790938 1.19131 9 -2 9 C-2 8.34 -2 7.68 -2 7 C-1.34 7 -0.68 7 0 7 C0 6.34 0 5.68 0 5 C-1.32 5 -2.64 5 -4 5 C-4 4.34 -4 3.68 -4 3 C-2.68 3 -1.36 3 0 3 C0 2.01 0 1.02 0 0 Z " fill="#3AEAE4" transform="translate(718,182)"/>
<path d="M0 0 C0.95648437 0.07863281 1.91296875 0.15726563 2.8984375 0.23828125 C5.53138438 0.67207622 7.33318889 1.35694616 9.625 2.6875 C2.19642857 2.83035714 2.19642857 2.83035714 -1.375 1.6875 C-1.519375 2.326875 -1.66375 2.96625 -1.8125 3.625 C-2.375 5.6875 -2.375 5.6875 -3.375 6.6875 C-5.04117115 6.72813832 -6.70888095 6.730221 -8.375 6.6875 C-8.705 7.6775 -9.035 8.6675 -9.375 9.6875 C-9.705 9.0275 -10.035 8.3675 -10.375 7.6875 C-10.045 7.0275 -9.715 6.3675 -9.375 5.6875 C-6.875 5.1875 -6.875 5.1875 -4.375 4.6875 C-4.045 4.0275 -3.715 3.3675 -3.375 2.6875 C-4.365 3.0175 -5.355 3.3475 -6.375 3.6875 C-6.705 2.6975 -7.035 1.7075 -7.375 0.6875 C-4.71277962 -0.64361019 -2.95280926 -0.26519869 0 0 Z " fill="#CEC384" transform="translate(693.375,157.3125)"/>
<path d="M0 0 C2.31 0 4.62 0 7 0 C7.33 1.98 7.66 3.96 8 6 C5.36 6 2.72 6 0 6 C0 4.02 0 2.04 0 0 Z " fill="#FEFDFD" transform="translate(722,208)"/>
<path d="M0 0 C0 1.33333333 0 2.66666667 0 4 C2.64 4.33 5.28 4.66 8 5 C5.65083202 6.47910576 4.36529953 7.02809996 1.5625 6.8125 C-1.27634478 5.91237848 -3.51757932 4.63130502 -6 3 C-5.65772428 5.97065509 -5.65772428 5.97065509 -5 9 C-4.34 9.33 -3.68 9.66 -3 10 C-4.32 9.67 -5.64 9.34 -7 9 C-7.625 6.125 -7.625 6.125 -8 3 C-5.4345406 0.4345406 -3.52313332 0.45953913 0 0 Z " fill="#DCBBEE" transform="translate(618,200)"/>
<path d="M0 0 C0.33 0 0.66 0 1 0 C1.33 1.98 1.66 3.96 2 6 C2.66 5.67 3.32 5.34 4 5 C6.01927511 5.60578253 8.02253397 6.26919734 10 7 C9.34 8.98 8.68 10.96 8 13 C6.0625 12.1875 6.0625 12.1875 4 11 C3.67 10.01 3.34 9.02 3 8 C2.01 8 1.02 8 0 8 C0 5.36 0 2.72 0 0 Z " fill="#80B9B0" transform="translate(684,186)"/>
<path d="M0 0 C0.66 0 1.32 0 2 0 C2 1.98 2 3.96 2 6 C0.68 6 -0.64 6 -2 6 C-2 6.99 -2 7.98 -2 9 C-2.66 9 -3.32 9 -4 9 C-3.67 9.99 -3.34 10.98 -3 12 C-4.32 12.33 -5.64 12.66 -7 13 C-6.66951441 7.71223057 -3.51647805 3.75899378 0 0 Z " fill="#4E6D43" transform="translate(677,177)"/>
<path d="M0 0 C0.66 0.33 1.32 0.66 2 1 C2 1.66 2 2.32 2 3 C3.65 3.33 5.3 3.66 7 4 C7 5.98 7 7.96 7 10 C4 11 4 11 0.8125 9.5625 C-0.115625 9.046875 -1.04375 8.53125 -2 8 C-1.67 7.01 -1.34 6.02 -1 5 C-0.34 5.33 0.32 5.66 1 6 C0.67 4.02 0.34 2.04 0 0 Z " fill="#826A6E" transform="translate(755,126)"/>
<path d="M0 0 C2.475 0.495 2.475 0.495 5 1 C5.33 3.64 5.66 6.28 6 9 C4.02 9 2.04 9 0 9 C0 6.03 0 3.06 0 0 Z " fill="#FAFBFB" transform="translate(695,205)"/>
<path d="M0 0 C4 0 8 0 12 0 C11.67 1.65 11.34 3.3 11 5 C10.01 5 9.02 5 8 5 C7.67 5.33 7.34 5.66 7 6 C5.0625 5.1875 5.0625 5.1875 3 4 C2.67 3.01 2.34 2.02 2 1 C1.34 0.67 0.68 0.34 0 0 Z " fill="#84876B" transform="translate(711,193)"/>
<path d="M0 0 C1.32 0.66 2.64 1.32 4 2 C3.67 3.65 3.34 5.3 3 7 C1.125 7.625 1.125 7.625 -1 8 C-1.66 7.34 -2.32 6.68 -3 6 C-3 4.68 -3 3.36 -3 2 C-2.01 1.34 -1.02 0.68 0 0 Z " fill="#C075AB" transform="translate(728,165)"/>
<path d="M0 0 C3.63 0.33 7.26 0.66 11 1 C8.64046906 3.35953094 7.22104383 3.49141413 4 4 C4 3.34 4 2.68 4 2 C3.01 2 2.02 2 1 2 C1.33 2.99 1.66 3.98 2 5 C-0.64 5.99 -3.28 6.98 -6 8 C-5.67 7.01 -5.34 6.02 -5 5 C-3.66666667 4.33333333 -2.33333333 3.66666667 -1 3 C-0.67 2.01 -0.34 1.02 0 0 Z " fill="#496940" transform="translate(692,159)"/>
<path d="M0 0 C-0.33 0.99 -0.66 1.98 -1 3 C-2.65 3 -4.3 3 -6 3 C-6.33 4.65 -6.66 6.3 -7 8 C-8.98 8.33 -10.96 8.66 -13 9 C-11.04907682 4.64794061 -9.45576604 2.56448071 -4.9375 0.8125 C-2 0 -2 0 0 0 Z " fill="#47683F" transform="translate(690,160)"/>
<path d="M0 0 C0.99 0 1.98 0 3 0 C3.33 3.3 3.66 6.6 4 10 C2.68 10 1.36 10 0 10 C0 6.7 0 3.4 0 0 Z " fill="#F1F9FA" transform="translate(680,204)"/>
<path d="M0 0 C2.86724686 0.57344937 3.8614515 0.8614515 6 3 C6.125 5.625 6.125 5.625 6 8 C5.01 8.33 4.02 8.66 3 9 C2.67 7.35 2.34 5.7 2 4 C1.01 3.67 0.02 3.34 -1 3 C-0.67 2.01 -0.34 1.02 0 0 Z " fill="#CE77B9" transform="translate(759,126)"/>
<path d="M0 0 C5.28 0 10.56 0 16 0 C16.33 0.99 16.66 1.98 17 3 C16.030625 2.835 15.06125 2.67 14.0625 2.5 C9.70512237 1.86603727 5.39369296 1.9103328 1 2 C0.67 1.34 0.34 0.68 0 0 Z " fill="#C4DC2D" transform="translate(744,103)"/>
<path d="M0 0 C0.99 1.32 1.98 2.64 3 4 C3.33 2.68 3.66 1.36 4 0 C4.72750788 1.40691607 5.43140353 2.82606022 6.125 4.25 C6.51945313 5.03890625 6.91390625 5.8278125 7.3203125 6.640625 C8 9 8 9 7.1171875 11.296875 C6.74851562 11.85890625 6.37984375 12.4209375 6 13 C5.34 12.67 4.68 12.34 4 12 C4 10.68 4 9.36 4 8 C3.525625 7.525625 3.05125 7.05125 2.5625 6.5625 C0.52154293 4.52154293 0.37918288 2.80595333 0 0 Z " fill="#E3E9E1" transform="translate(734,83)"/>
<path d="M0 0 C0.33 0 0.66 0 1 0 C1 4.62 1 9.24 1 14 C0.34 14 -0.32 14 -1 14 C-1.33 10.37 -1.66 6.74 -2 3 C-1.34 3 -0.68 3 0 3 C0 2.01 0 1.02 0 0 Z " fill="#AE8C8C" transform="translate(746,200)"/>
<path d="M0 0 C0.66 0 1.32 0 2 0 C2.33 2.31 2.66 4.62 3 7 C2.01 6.67 1.02 6.34 0 6 C0 6.66 0 7.32 0 8 C-1.32 7.34 -2.64 6.68 -4 6 C-3.67 5.01 -3.34 4.02 -3 3 C-2.67 3 -2.34 3 -2 3 C-1.34 2.01 -0.68 1.02 0 0 Z " fill="#B8C6B4" transform="translate(770,132)"/>
<path d="M0 0 C0.66 0.99 1.32 1.98 2 3 C1.67 3.99 1.34 4.98 1 6 C2.98 6.66 4.96 7.32 7 8 C7 8.66 7 9.32 7 10 C3.625 9.75 3.625 9.75 0 9 C-1.4375 6.9375 -1.4375 6.9375 -2 5 C-1.34 5 -0.68 5 0 5 C0 3.35 0 1.7 0 0 Z " fill="#D779C1" transform="translate(752,128)"/>
<path d="M0 0 C0 1.98 0 3.96 0 6 C-4.455 5.01 -4.455 5.01 -9 4 C-3.7826087 0 -3.7826087 0 0 0 Z " fill="#945D5C" transform="translate(739,196)"/>
<path d="M0 0 C1.32 0 2.64 0 4 0 C2.48328036 4.55015893 -1.16891053 6.50057264 -5 9 C-5 4.64014292 -2.97359577 3.04117749 0 0 Z " fill="#C2DB2C" transform="translate(756,109)"/>
<path d="M0 0 C4.39750672 0.50740462 6.86948922 3.08293314 10 6 C10 6.66 10 7.32 10 8 C5.60249328 7.49259538 3.13051078 4.91706686 0 2 C0 1.34 0 0.68 0 0 Z " fill="#C9E22C" transform="translate(763,109)"/>
<path d="M0 0 C2.31 0.66 4.62 1.32 7 2 C6.34 3.32 5.68 4.64 5 6 C3.35 5.67 1.7 5.34 0 5 C0 3.35 0 1.7 0 0 Z " fill="#CFE627" transform="translate(732,100)"/>
<path d="M0 0 C1.98 0.495 1.98 0.495 4 1 C4.33 3.97 4.66 6.94 5 10 C3.35 10 1.7 10 0 10 C0 9.01 0 8.02 0 7 C0.66 6.67 1.32 6.34 2 6 C2.65213292 3.97536745 2.65213292 3.97536745 3 2 C2.01 2 1.02 2 0 2 C-0.33 2.66 -0.66 3.32 -1 4 C-0.67 2.68 -0.34 1.36 0 0 Z " fill="#D8ACA5" transform="translate(720,191)"/>
<path d="M0 0 C1.64951226 0.95198711 3.29451508 1.91179145 4.9375 2.875 C5.85402344 3.40867187 6.77054688 3.94234375 7.71484375 4.4921875 C10 6 10 6 11 8 C1.40546697 5.10933941 1.40546697 5.10933941 -2 2 C-1.34 1.34 -0.68 0.68 0 0 Z " fill="#CBE22A" transform="translate(717,89)"/>
<path d="M0 0 C0.66 0 1.32 0 2 0 C2.33 2.97 2.66 5.94 3 9 C2.01 9 1.02 9 0 9 C-1.36623674 6.26752652 -1.128426 4.01801098 -1 1 C-0.67 0.67 -0.34 0.34 0 0 Z " fill="#EDF9F8" transform="translate(672,205)"/>
<path d="M0 0 C0.99 0.33 1.98 0.66 3 1 C2.67 1.66 2.34 2.32 2 3 C3.65 2.67 5.3 2.34 7 2 C5.68 3.65 4.36 5.3 3 7 C0.525 6.01 0.525 6.01 -2 5 C-1.125 1.125 -1.125 1.125 0 0 Z " fill="#406238" transform="translate(714,188)"/>
<path d="M0 0 C0.598125 0.20625 1.19625 0.4125 1.8125 0.625 C2.1425 3.265 2.4725 5.905 2.8125 8.625 C2.1525 8.625 1.4925 8.625 0.8125 8.625 C0.4825 9.285 0.1525 9.945 -0.1875 10.625 C-0.1875 7.985 -0.1875 5.345 -0.1875 2.625 C-1.8375 2.295 -3.4875 1.965 -5.1875 1.625 C-2.1875 -0.375 -2.1875 -0.375 0 0 Z " fill="#F9D2D2" transform="translate(739.1875,203.375)"/>
<path d="M0 0 C0.66 0 1.32 0 2 0 C2.33 2.97 2.66 5.94 3 9 C1.68 9 0.36 9 -1 9 C-1.09765625 2.84765625 -1.09765625 2.84765625 -1 1 C-0.67 0.67 -0.34 0.34 0 0 Z " fill="#FEFBFB" transform="translate(703,205)"/>
<path d="M0 0 C0.33 0.66 0.66 1.32 1 2 C1.556875 1.814375 2.11375 1.62875 2.6875 1.4375 C5.399133 0.92448835 7.34371039 1.3359276 10 2 C10 2.33 10 2.66 10 3 C7.36 3 4.72 3 2 3 C2 5.64 2 8.28 2 11 C1.67 11 1.34 11 1 11 C1 8.69 1 6.38 1 4 C0.01 3.67 -0.98 3.34 -2 3 C-1.34 2.01 -0.68 1.02 0 0 Z " fill="#F9B7B7" transform="translate(729,203)"/>
<path d="M0 0 C1.5625 1.8125 1.5625 1.8125 3 4 C2.67 4.99 2.34 5.98 2 7 C1.34 7 0.68 7 0 7 C0 7.66 0 8.32 0 9 C-0.99 8.67 -1.98 8.34 -3 8 C-3 7.34 -3 6.68 -3 6 C-3.99 5.67 -4.98 5.34 -6 5 C-5.01 4.67 -4.02 4.34 -3 4 C-2.34 4.33 -1.68 4.66 -1 5 C-0.67 3.35 -0.34 1.7 0 0 Z " fill="#8ECCCA" transform="translate(681,189)"/>
<path d="M0 0 C0.66 0 1.32 0 2 0 C2.268125 0.804375 2.53625 1.60875 2.8125 2.4375 C3.204375 3.283125 3.59625 4.12875 4 5 C4.99 5.33 5.98 5.66 7 6 C6.67 7.32 6.34 8.64 6 10 C4.35 9.67 2.7 9.34 1 9 C1.33 8.34 1.66 7.68 2 7 C2 4.64712386 0.75106988 2.20626776 0 0 Z " fill="#41633A" transform="translate(731,139)"/>
<path d="M0 0 C0.99 0.495 0.99 0.495 2 1 C2.4140625 3.06640625 2.4140625 3.06640625 2.625 5.5625 C2.69976563 6.38878906 2.77453125 7.21507812 2.8515625 8.06640625 C2.92503906 9.02353516 2.92503906 9.02353516 3 10 C2.01 10 1.02 10 0 10 C0 6.7 0 3.4 0 0 Z " fill="#B2E0E1" transform="translate(692,204)"/>
<path d="M0 0 C2.09350689 3.4019487 2.17942163 6.05272412 2 10 C1.01 10 0.02 10 -1 10 C-1.02689216 8.52093108 -1.04634621 7.04172517 -1.0625 5.5625 C-1.07410156 4.73878906 -1.08570313 3.91507813 -1.09765625 3.06640625 C-1 1 -1 1 0 0 Z " fill="#E4F4F5" transform="translate(677,204)"/>
<path d="M0 0 C1.65 0.33 3.3 0.66 5 1 C4.34 2.32 3.68 3.64 3 5 C1.68 5 0.36 5 -1 5 C-0.67 3.35 -0.34 1.7 0 0 Z " fill="#CDE427" transform="translate(719,70)"/>
<path d="M0 0 C2.475 0.99 2.475 0.99 5 2 C5 2.66 5 3.32 5 4 C4.01 4 3.02 4 2 4 C1.67 4.66 1.34 5.32 1 6 C-0.98 5.34 -2.96 4.68 -5 4 C-3.35 2.68 -1.7 1.36 0 0 Z " fill="#5E7E3B" transform="translate(761,105)"/>
<path d="M0 0 C5.445 1.485 5.445 1.485 11 3 C11 3.33 11 3.66 11 4 C7.04 4 3.08 4 -1 4 C-0.67 2.68 -0.34 1.36 0 0 Z " fill="#F4EAF9" transform="translate(614,210)"/>
<path d="M0 0 C0.66 0 1.32 0 2 0 C2 2.97 2 5.94 2 9 C1.01 9 0.02 9 -1 9 C-0.67 6.03 -0.34 3.06 0 0 Z " fill="#C6E9EB" transform="translate(685,205)"/>
<path d="M0 0 C0.66 0.99 1.32 1.98 2 3 C3.65816784 3.68753301 5.32459336 4.35561283 7 5 C7.33 5.66 7.66 6.32 8 7 C3.545 6.01 3.545 6.01 -1 5 C-0.67 3.35 -0.34 1.7 0 0 Z " fill="#E7B4B3" transform="translate(728,196)"/>
<path d="M0 0 C1.32 0 2.64 0 4 0 C3.67 1.65 3.34 3.3 3 5 C1.68 4.67 0.36 4.34 -1 4 C-0.67 2.68 -0.34 1.36 0 0 Z " fill="#F0DA95" transform="translate(656,169)"/>
<path d="M0 0 C0.66 0 1.32 0 2 0 C1.67 1.98 1.34 3.96 1 6 C-1.64 6.33 -4.28 6.66 -7 7 C-3.25 4 -3.25 4 -1 4 C-0.67 2.68 -0.34 1.36 0 0 Z " fill="#697F44" transform="translate(713,85)"/>
<path d="M0 0 C3 3.75 3 3.75 3 6 C3.66 6 4.32 6 5 6 C4.67 7.65 4.34 9.3 4 11 C3.34 10.67 2.68 10.34 2 10 C1.3671875 7.71484375 1.3671875 7.71484375 0.875 4.9375 C0.70742188 4.01839844 0.53984375 3.09929687 0.3671875 2.15234375 C0.24601563 1.44207031 0.12484375 0.73179688 0 0 Z " fill="#6D8866" transform="translate(733,84)"/>
<path d="M0 0 C2.86724686 0.57344937 3.8614515 0.8614515 6 3 C5.67 3.99 5.34 4.98 5 6 C4.01 5.01 3.02 4.02 2 3 C1.67 3.66 1.34 4.32 1 5 C0.01 4.34 -0.98 3.68 -2 3 C-1.34 2.01 -0.68 1.02 0 0 Z " fill="#EF81DA" transform="translate(711,82)"/>
<path d="M0 0 C0.66 0 1.32 0 2 0 C1.34 2.97 0.68 5.94 0 9 C-0.66 8.67 -1.32 8.34 -2 8 C-1.125 1.125 -1.125 1.125 0 0 Z " fill="#EEE9E7" transform="translate(746,194)"/>
<path d="M0 0 C0.66 1.32 1.32 2.64 2 4 C0.35 5.32 -1.3 6.64 -3 8 C-3.66 7.01 -4.32 6.02 -5 5 C-3.68 5 -2.36 5 -1 5 C-0.67 3.35 -0.34 1.7 0 0 Z " fill="#E58EBA" transform="translate(715,86)"/>
<path d="M0 0 C2.625 0.375 2.625 0.375 5 1 C4 3 4 3 2 4 C0.65724831 4.98731742 -0.67732273 5.98594743 -2 7 C-2.125 4.625 -2.125 4.625 -2 2 C-1.34 1.34 -0.68 0.68 0 0 Z " fill="#4D754C" transform="translate(713,186)"/>
<path d="M0 0 C2.97 0.495 2.97 0.495 6 1 C5.01 2.98 4.02 4.96 3 7 C1.79371992 4.66785852 0.8345262 2.50357861 0 0 Z " fill="#F6DE98" transform="translate(676,169)"/>
<path d="M0 0 C2.475 0.495 2.475 0.495 5 1 C5 1.66 5 2.32 5 3 C3.35 3.33 1.7 3.66 0 4 C0 2.68 0 1.36 0 0 Z " fill="#F1DB92" transform="translate(667,172)"/>
<path d="M0 0 C3.63 0.66 7.26 1.32 11 2 C11 2.33 11 2.66 11 3 C9.54263913 3.19491452 8.08405407 3.38069358 6.625 3.5625 C5.81289063 3.66691406 5.00078125 3.77132812 4.1640625 3.87890625 C2 4 2 4 0 3 C0 2.01 0 1.02 0 0 Z " fill="#BDD635" transform="translate(703,135)"/>
<path d="M0 0 C0.99 0 1.98 0 3 0 C3 1.32 3 2.64 3 4 C1.35 3.67 -0.3 3.34 -2 3 C-1.34 2.01 -0.68 1.02 0 0 Z " fill="#F0DA95" transform="translate(667,162)"/>
<path d="M0 0 C0.99 0 1.98 0 3 0 C2.67 0.66 2.34 1.32 2 2 C1.34 1.34 0.68 0.68 0 0 Z " fill="#FFFFFF" transform="translate(575,190)"/>
<path d="M0 0 C0.99 0.33 1.98 0.66 3 1 C2.01 1.33 1.02 1.66 0 2 C0 1.34 0 0.68 0 0 Z " fill="#FFFFFF" transform="translate(362,186)"/>
<path d="M0 0 C0.66 0 1.32 0 2 0 C2 0.66 2 1.32 2 2 C1.34 2 0.68 2 0 2 C0 1.34 0 0.68 0 0 Z " fill="#FFFFFF" transform="translate(480,178)"/>
<path d="M0 0 C0.66 0 1.32 0 2 0 C2 0.66 2 1.32 2 2 C1.34 2 0.68 2 0 2 C0 1.34 0 0.68 0 0 Z " fill="#CEA1EF" transform="translate(664,174)"/>
<path d="M0 0 C0.66 0.66 1.32 1.32 2 2 C1.34 2 0.68 2 0 2 C0 1.34 0 0.68 0 0 Z " fill="#FFFFFF" transform="translate(151,192)"/>
<path d="M0 0 C0.99 0.495 0.99 0.495 2 1 C1.01 1.495 1.01 1.495 0 2 C0 1.34 0 0.68 0 0 Z " fill="#FFFFFF" transform="translate(353,190)"/>
<path d="" fill="#FFFFFF" transform="translate(0,0)"/>
<path d="" fill="#FFFFFF" transform="translate(0,0)"/>
<path d="M0 0 C2 1 2 1 2 1 Z " fill="#FFFFFF" transform="translate(468,178)"/>
<path d="" fill="#FFFFFF" transform="translate(0,0)"/>
<path d="" fill="#FFFFFF" transform="translate(0,0)"/>
<path d="" fill="#FFFFFF" transform="translate(0,0)"/>
<path d="" fill="#FFFFFF" transform="translate(0,0)"/>
<path d="" fill="#FFFFFF" transform="translate(0,0)"/>
<path d="" fill="#FFFFFF" transform="translate(0,0)"/>
<path d="" fill="#FFFFFF" transform="translate(0,0)"/>
<path d="" fill="#FFFFFF" transform="translate(0,0)"/>
<path d="" fill="#FFFFFF" transform="translate(0,0)"/>
<path d="" fill="#FFFFFF" transform="translate(0,0)"/>
<path d="" fill="#FFFFFF" transform="translate(0,0)"/>
<path d="" fill="#FFFFFF" transform="translate(0,0)"/>
<path d="" fill="#FFFFFF" transform="translate(0,0)"/>
<path d="" fill="#FFFFFF" transform="translate(0,0)"/>
<path d="" fill="#FFFFFF" transform="translate(0,0)"/>
<path d="" fill="#FFFFFF" transform="translate(0,0)"/>
<path d="" fill="#FFFFFF" transform="translate(0,0)"/>
<path d="" fill="#FFFFFF" transform="translate(0,0)"/>
<path d="" fill="#FFFFFF" transform="translate(0,0)"/>
<path d="" fill="#FFFFFF" transform="translate(0,0)"/>
<path d="" fill="#FFFFFF" transform="translate(0,0)"/>
<path d="" fill="#FFFFFF" transform="translate(0,0)"/>
<path d="" fill="#FFFFFF" transform="translate(0,0)"/>
<path d="" fill="#FFFFFF" transform="translate(0,0)"/>
<path d="" fill="#FFFFFF" transform="translate(0,0)"/>
<path d="" fill="#FFFFFF" transform="translate(0,0)"/>
<path d="" fill="#FFFFFF" transform="translate(0,0)"/>
<path d="" fill="#FFFFFF" transform="translate(0,0)"/>
</svg>
