<?xml version="1.0" encoding="UTF-8"?>
<svg version="1.1" xmlns="http://www.w3.org/2000/svg" width="774" height="750">
<path d="M0 0 C2.81719012 -0.00436924 5.63407133 -0.01822965 8.45117188 -0.04101562 C22.5990076 -0.15290536 36.63944816 -0.09227088 50.71582031 1.56835938 C51.70763306 1.68507996 52.6994458 1.80180054 53.72131348 1.92205811 C59.6948725 2.72203986 65.06566975 4.25755876 70.74707031 6.24023438 C72.83941863 28.47569151 74.9259127 50.71169111 77.00549316 72.94834614 C77.97127495 83.27384972 78.93895106 93.59916913 79.91113281 103.92407227 C80.75876075 112.92622334 81.60278754 121.92870365 82.44254303 130.93159264 C82.88705707 135.69581411 83.33333777 140.45985477 83.78393555 145.22350502 C84.20859982 149.71359815 84.62842212 154.20411856 85.04464722 158.6950016 C85.19766831 160.33696944 85.35240843 161.9787782 85.50906372 163.62040329 C86.32413525 172.17241146 86.9928624 180.63745229 86.74707031 189.24023438 C57.93596075 189.43761234 57.93596075 189.43761234 46.53222656 188.45898438 C35.13434465 187.80028325 23.80184204 188.46687466 12.43457031 189.30273438 C11.5801535 189.36514313 10.72573669 189.42755188 9.84542847 189.49185181 C-38.0408914 193.0576756 -85.76478028 199.2331492 -133.25292969 206.24023438 C-134.20959534 206.37991638 -135.16626099 206.51959839 -136.1519165 206.66351318 C-209.78417231 217.41537831 -282.72184429 234.95896829 -355.06933594 252.14648438 C-355.87380787 252.33734304 -356.6782798 252.52820171 -357.50712967 252.72484398 C-365.00818717 254.50487821 -372.50736316 256.29175487 -379.99765873 258.11660194 C-382.01325764 258.60644112 -384.02982993 259.09201762 -386.04685974 259.57592773 C-388.45503823 260.15449543 -390.86137973 260.74079634 -393.26527405 261.33691406 C-394.32636887 261.59029541 -395.38746368 261.84367676 -396.48071289 262.10473633 C-397.38521683 262.32563431 -398.28972076 262.54653229 -399.22163391 262.77412415 C-406.59952047 263.90859226 -413.02055177 263.12001578 -420.15893555 261.11645508 C-420.9994043 260.89040085 -421.83987305 260.66434662 -422.70581055 260.43144226 C-425.46283929 259.68703396 -428.21519116 258.926685 -430.96777344 258.16601562 C-432.90692604 257.63893224 -434.8463488 257.11284185 -436.786026 256.58769226 C-441.88637696 255.20390376 -446.9828944 253.80648038 -452.07873535 252.40618896 C-457.20807652 250.99934777 -462.34102408 249.60580027 -467.47363281 248.2109375 C-484.41354273 243.60243413 -501.34115859 238.95096252 -518.25292969 234.24023438 C-517.6951897 230.25211773 -516.84835946 226.84252209 -515.25366211 223.1484375 C-514.83705322 222.17459106 -514.42044434 221.20074463 -513.99121094 220.1973877 C-513.53488281 219.1493396 -513.07855469 218.1012915 -512.60839844 217.02148438 C-512.13120361 215.91059448 -511.65400879 214.79970459 -511.16235352 213.65515137 C-509.5957993 210.01360654 -508.01915709 206.3765103 -506.44042969 202.74023438 C-505.89771867 201.48833268 -505.35512672 200.23637936 -504.81265259 198.984375 C-504.54223302 198.3602623 -504.27181345 197.7361496 -503.99319935 197.09312439 C-502.88930249 194.54505671 -501.78555156 191.99692584 -500.68187904 189.44876099 C-500.1234867 188.16023449 -499.56468586 186.87188494 -499.00548363 185.58370972 C-495.58514487 177.70418855 -492.22081522 169.80629742 -488.94877625 161.86364746 C-487.20742351 157.63979951 -485.44291134 153.42582772 -483.67593384 149.21264648 C-482.85988985 147.24938394 -482.05494102 145.28146843 -481.2618103 143.30883789 C-476.74107005 132.08247529 -473.32053731 124.19122563 -462.25292969 118.24023438 C-461.09698154 117.53578957 -459.94623722 116.82275485 -458.80004883 116.10253906 C-454.96902689 113.70605977 -451.08597657 111.40491628 -447.19042969 109.11523438 C-446.49351013 108.7039328 -445.79659058 108.29263123 -445.07855225 107.86886597 C-360.48491352 57.98996257 -264.917557 33.63769242 -44.25292969 1.24023438 C-43.04459473 1.14452148 -41.83625977 1.04880859 -40.59130859 0.95019531 C-27.07799986 -0.00223948 -13.54035226 0.01790653 0 0 Z " fill="#AB0101" transform="translate(599.2529296875,236.759765625)"/>
<path d="M0 0 C6.91804709 5.15204773 9.22687103 12.1954924 10.8515625 20.37890625 C11.28582998 24.51429425 11.37679214 28.59772172 11.3515625 32.75390625 C11.34584229 33.85009277 11.34012207 34.9462793 11.33422852 36.07568359 C11.11055666 46.21698039 9.57168504 54.62642037 2.6015625 62.44140625 C-4.33807289 68.42795867 -11.08584661 70.09286312 -20.1953125 69.75390625 C-24.23397752 69.2410599 -26.23020211 68.22596517 -29.1484375 65.37890625 C-29.65761719 64.8890625 -30.16679687 64.39921875 -30.69140625 63.89453125 C-39.36539314 54.21393353 -40.00377584 39.10283647 -39.52734375 26.74609375 C-38.87174868 17.17317264 -35.33771842 9.76770001 -28.1484375 3.37890625 C-19.74786434 -2.73890246 -9.36302176 -5.35296264 0 0 Z " fill="#FCF8F8" transform="translate(327.1484375,318.62109375)"/>
<path d="M0 0 C3.70460818 2.81477582 5.52056512 5.65564099 7.28125 9.8984375 C8.53112792 19.27252193 7.66840538 27.06777133 2.28125 34.8984375 C1.84683594 35.54296875 1.41242187 36.1875 0.96484375 36.8515625 C-4.62595496 44.17853517 -13.74925783 49.09559937 -22.71875 50.8984375 C-29.97347277 51.74031794 -35.65990466 51.11749647 -41.71875 46.8984375 C-46.69671011 42.82556105 -50.06833179 37.91263476 -51.10546875 31.51171875 C-51.5184048 22.44136487 -48.38663394 15.49736931 -42.59375 8.6484375 C-31.52657524 -2.92840978 -14.52001832 -9.30601174 0 0 Z " fill="#FCF8F8" transform="translate(513.71875,303.1015625)"/>
<path d="M0 0 C-0.33620361 0.46148437 -0.67240723 0.92296875 -1.01879883 1.3984375 C-2.61885688 3.59739693 -4.21565822 5.79870399 -5.8125 8 C-6.34037109 8.72445313 -6.86824219 9.44890625 -7.41210938 10.1953125 C-16.42343378 22.63199414 -24.98251121 35.38872628 -33.49151611 48.17208862 C-34.91364529 50.30804296 -36.33834348 52.44226933 -37.76318359 54.57641602 C-41.95062202 60.85624759 -46.11734983 67.14506739 -50.171875 73.51171875 C-50.76758301 74.44532227 -51.36329102 75.37892578 -51.97705078 76.34082031 C-53.04156487 78.01817911 -54.097847 79.70080364 -55.14404297 81.38964844 C-55.60439941 82.11571289 -56.06475586 82.84177734 -56.5390625 83.58984375 C-56.92271973 84.20722412 -57.30637695 84.82460449 -57.70166016 85.46069336 C-59.28935094 87.34305334 -60.71938593 88.10193578 -63 89 C-65.75 89.125 -65.75 89.125 -68 89 C-66.71632447 85.58213858 -65.23663131 82.54566792 -63.3125 79.4453125 C-62.78422607 78.59155029 -62.25595215 77.73778809 -61.71166992 76.8581543 C-61.14681885 75.95621338 -60.58196777 75.05427246 -60 74.125 C-59.41259033 73.18245361 -58.82518066 72.23990723 -58.2199707 71.26879883 C-53.77252422 64.16341453 -49.19202315 57.16377524 -44.49462891 50.22216797 C-42.68567193 47.53266676 -40.89536459 44.83112972 -39.10546875 42.12890625 C-38.40848877 41.07807861 -37.71150879 40.02725098 -36.9934082 38.94458008 C-35.62194792 36.87640469 -34.25190032 34.80729152 -32.88354492 32.73706055 C-28.42544343 26.02846173 -23.7874984 19.47748375 -19 13 C-20.05058594 13.42152344 -21.10117187 13.84304688 -22.18359375 14.27734375 C-29.47351287 17.14297624 -36.08108048 19.71718145 -44 20 C-43.505 20.99 -43.505 20.99 -43 22 C-42.42819147 28.5186172 -43.38420797 33.47053081 -47 39 C-51.60413981 44.00786102 -56.28922935 48.28422919 -63.2109375 49.3359375 C-69.02846388 49.440947 -72.30232863 48.50022572 -77 45 C-80.43135984 41.39267298 -81.30752197 38.47629243 -81.5625 33.625 C-81.29109347 26.95744628 -78.87083062 22.9362254 -74.28515625 18.24609375 C-68.35594624 12.8618002 -63.39109435 11.78547297 -55.4375 11.625 C-40.6508476 11.05462485 -26.74330592 8.283201 -13.1640625 2.3671875 C-4.53443122 -1.36166552 -4.53443122 -1.36166552 0 0 Z " fill="#FAF4F4" transform="translate(426,292)"/>
<path d="M0 0 C4.3409942 2.55545319 7.50095346 5.4110789 9.5078125 10.09375 C12.44542638 26.66857955 1.83147275 40.82116629 -7.11328125 53.71875 C-7.90443147 54.84502961 -8.69665899 55.97055864 -9.4921875 57.09375 C-8.20634766 56.69542969 -8.20634766 56.69542969 -6.89453125 56.2890625 C-3.42874929 55.21846018 0.03927368 54.15538221 3.5078125 53.09375 C4.260625 52.85914063 5.0134375 52.62453125 5.7890625 52.3828125 C8.91272839 51.43749256 11.17937389 51.09375 14.5078125 51.09375 C15.83481967 55.07477152 15.54155318 58.94364611 15.5078125 63.09375 C4.60825353 66.23715698 -6.29203306 69.35853711 -17.265625 72.234375 C-19.59658008 72.85521049 -21.91451315 73.52566041 -24.22265625 74.2265625 C-27.52877847 75.10345513 -29.26408094 75.07196411 -32.4921875 74.09375 C-33.02832695 68.64299895 -31.6653003 66.31031274 -28.3671875 62.03125 C-27.45244885 60.8097413 -26.54121243 59.58560494 -25.6328125 58.359375 C-25.13330078 57.68841797 -24.63378906 57.01746094 -24.11914062 56.32617188 C-21.00608152 52.05459137 -18.06337023 47.66881145 -15.1171875 43.28125 C-14.52276855 42.41040771 -13.92834961 41.53956543 -13.31591797 40.64233398 C-6.43966082 30.71316633 -6.43966082 30.71316633 -4.1171875 19.15625 C-4.13007813 18.42535156 -4.14296875 17.69445312 -4.15625 16.94140625 C-4.35519664 14.85126754 -4.35519664 14.85126754 -6.4921875 13.09375 C-11.72433515 12.35851357 -16.21501157 12.47796875 -20.9921875 14.78125 C-24.46381009 17.9925009 -26.23919578 20.51255174 -26.9921875 25.21875 C-28.4921875 28.09375 -28.4921875 28.09375 -31.0625 29.140625 C-33.86105254 29.89931188 -36.64442192 30.55086492 -39.4921875 31.09375 C-40.05521095 22.58584009 -39.33347153 16.97432043 -34.01953125 10.22265625 C-25.79789891 1.18469162 -11.97095253 -4.35307365 0 0 Z " fill="#FCF8F8" transform="translate(269.4921875,332.90625)"/>
<path d="M0 0 C6.29813325 3.53456445 10.39033435 8.06660542 12.6875 14.9375 C13.85823621 22.96012392 12.25276077 29.27631476 7.6875 35.9375 C3.41238329 40.95925681 -2.33369605 43.35257083 -8.73046875 44.29296875 C-15.36281208 44.67342876 -20.03049806 42.91207572 -25.3125 38.9375 C-30.7972035 33.9588664 -33.43425065 27.89235912 -33.8125 20.5625 C-33.61459472 14.0136343 -31.30609999 9.14779489 -26.85546875 4.375 C-18.8375162 -2.733264 -9.82657173 -4.49087667 0 0 Z " fill="#1D1816" transform="translate(165.3125,414.0625)"/>
<path d="M0 0 C0.87785156 -0.00257813 1.75570312 -0.00515625 2.66015625 -0.0078125 C4.9375 0.125 4.9375 0.125 6.9375 1.125 C6.6075 5.085 6.2775 9.045 5.9375 13.125 C3.2975 13.455 0.6575 13.785 -2.0625 14.125 C-2.7225 16.435 -3.3825 18.745 -4.0625 21.125 C-0.1025 20.63 -0.1025 20.63 3.9375 20.125 C3.6075 24.415 3.2775 28.705 2.9375 33.125 C-1.5175 33.62 -1.5175 33.62 -6.0625 34.125 C-6.03542969 35.61386719 -6.03542969 35.61386719 -6.0078125 37.1328125 C-6.0627075 41.14014782 -6.43071024 45.03201348 -6.9375 49 C-7.11991773 50.48566161 -7.30220524 51.97133921 -7.484375 53.45703125 C-7.62649414 54.59906006 -7.62649414 54.59906006 -7.77148438 55.76416016 C-8.26114915 59.73652457 -8.72293472 63.71213647 -9.1875 67.6875 C-9.35664432 69.12631696 -9.52590323 70.56512046 -9.6953125 72.00390625 C-9.81648437 73.03386719 -9.93765625 74.06382812 -10.0625 75.125 C-14.55906104 77.37328052 -18.14122966 77.29182272 -23.0625 77.125 C-22.59972348 63.30553562 -21.12739294 49.79447468 -19.0625 36.125 C-20.3825 36.125 -21.7025 36.125 -23.0625 36.125 C-22.7325 31.835 -22.4025 27.545 -22.0625 23.125 C-20.4125 23.125 -18.7625 23.125 -17.0625 23.125 C-17.1553125 21.4234375 -17.1553125 21.4234375 -17.25 19.6875 C-17.22099422 14.23441275 -16.30569158 8.70528321 -12.6328125 4.48046875 C-8.54499174 0.95192695 -5.27076459 -0.01552508 0 0 Z " fill="#FAF5F5" transform="translate(554.0625,270.875)"/>
<path d="M0 0 C1.09570312 0.00902344 2.19140625 0.01804687 3.3203125 0.02734375 C4.16335938 0.03894531 5.00640625 0.05054688 5.875 0.0625 C6.88014676 4.37346276 6.64646759 7.69085032 5.875 12.0625 C1.42 12.5575 1.42 12.5575 -3.125 13.0625 C-3.455 15.3725 -3.785 17.6825 -4.125 20.0625 C-1.485 20.0625 1.155 20.0625 3.875 20.0625 C3.73351011 21.6670556 3.58664314 23.27113767 3.4375 24.875 C3.35628906 25.76832031 3.27507813 26.66164063 3.19140625 27.58203125 C2.875 30.0625 2.875 30.0625 1.875 33.0625 C-2.58 33.5575 -2.58 33.5575 -7.125 34.0625 C-7.08503906 35.28839844 -7.04507813 36.51429688 -7.00390625 37.77734375 C-7.00509185 43.83692122 -8.03586762 49.66769031 -9.0625 55.625 C-9.42701373 57.79276187 -9.79032228 59.96072678 -10.15234375 62.12890625 C-10.32233887 63.14355957 -10.49233398 64.15821289 -10.66748047 65.20361328 C-11.24552695 68.81563265 -11.70657603 72.42881814 -12.125 76.0625 C-16.47926484 77.33082944 -20.63323307 77.1285554 -25.125 77.0625 C-24.98964844 75.84820312 -24.85429688 74.63390625 -24.71484375 73.3828125 C-24.40356705 70.58733988 -24.09571731 67.7915812 -23.79345703 64.99511719 C-23.43055511 61.64192354 -23.05933263 58.28971414 -22.6875 54.9375 C-22.56568359 53.79667969 -22.44386719 52.65585937 -22.31835938 51.48046875 C-21.68237195 45.80601099 -20.93993162 40.48372432 -19.125 35.0625 C-20.445 35.0625 -21.765 35.0625 -23.125 35.0625 C-22.795 30.7725 -22.465 26.4825 -22.125 22.0625 C-20.475 22.0625 -18.825 22.0625 -17.125 22.0625 C-17.2178125 20.33 -17.2178125 20.33 -17.3125 18.5625 C-17.28461664 13.31113351 -16.32430362 8.4318831 -12.66015625 4.484375 C-8.21024279 0.69814057 -5.73441636 -0.06100443 0 0 Z " fill="#FBF7F7" transform="translate(584.125,267.9375)"/>
<path d="M0 0 C4.62215887 3.97720647 7.30967827 7.22695584 8.0625 13.375 C7.40002924 20.33094295 4.38280683 26.17792459 -0.875 30.8125 C-7.03365108 35.70528515 -12.56128963 36.14261624 -20.3125 35.3125 C-24.12401433 33.57391451 -25.74047583 32.09426637 -28.1875 28.75 C-29.99835614 23.21682846 -30.56946508 17.56943617 -28.43359375 12.03515625 C-25.1608509 6.40776673 -20.5436833 2.18318507 -14.9375 -1.0625 C-9.51380096 -2.35385691 -5.03148209 -2.56320786 0 0 Z " fill="#FBF5F5" transform="translate(425.3125,330.6875)"/>
<path d="M0 0 C4.69473961 2.45406843 5.86219339 5.54215788 7.37597656 10.33178711 C8.51868154 15.21778975 8.51246877 20.06564025 8.5 25.0625 C8.52835937 26.09955078 8.55671875 27.13660156 8.5859375 28.20507812 C8.60315995 34.9950282 7.61315708 39.84005415 3 45 C-0.28774018 46.97264411 -3.19957362 47.57006396 -7 47 C-11.67750129 44.21577304 -13.27740217 41.08166359 -15 36 C-16.74008253 26.0911967 -18.27608217 12.9693397 -13 4 C-8.8095429 0.19049355 -5.61093969 -0.81613668 0 0 Z " fill="#AB0404" transform="translate(317,329)"/>
<path d="M0 0 C3.85544798 1.99657127 5.59805092 3.39707638 8 7 C8.85777522 13.21887037 7.68535509 16.89199473 3.9609375 21.9453125 C-0.75108852 26.88261466 -6.48041384 29.22738876 -13.25 29.625 C-18.34036246 29.36046148 -20.61397723 27.73330716 -24 24 C-25.71270362 18.86188915 -25.82038447 14.70913431 -23.5 9.875 C-16.83030519 2.20485097 -10.21847039 -1.17599815 0 0 Z " fill="#AC0606" transform="translate(501,312)"/>
<path d="M0 0 C1.65 0 3.3 0 5 0 C5 1.32 5 2.64 5 4 C4.01 4.33 3.02 4.66 2 5 C1.67 5.99 1.34 6.98 1 8 C2.65 7.67 4.3 7.34 6 7 C6.33 7.66 6.66 8.32 7 9 C8.299375 8.01 8.299375 8.01 9.625 7 C13.29741751 4.82375259 14.83310042 4.2907405 19 5 C21.69990662 6.79993774 23.5418865 8.083773 25 11 C25.44408691 14.9079648 25.13704844 16.74548146 23.25 20.25 C20.06548988 24.14217903 18.49580254 24.78242872 13.5625 25.5 C10 25 10 25 7.0625 22.375 C4.87117186 18.78919032 4.51124354 17.10555424 5 13 C4.01 12.67 3.02 12.34 2 12 C2.165 12.969375 2.33 13.93875 2.5 14.9375 C3.13396273 19.29487763 3.0896672 23.60630704 3 28 C1.68 28 0.36 28 -1 28 C-1.33 23.38 -1.66 18.76 -2 14 C-3.32 14 -4.64 14 -6 14 C-6 12.68 -6 11.36 -6 10 C-5.01 10 -4.02 10 -3 10 C-3 8.02 -3 6.04 -3 4 C-2.34 4 -1.68 4 -1 4 C-0.67 2.68 -0.34 1.36 0 0 Z " fill="#F4E6E6" transform="translate(317,406)"/>
<path d="M0 0 C1.32 0 2.64 0 4 0 C4.33 6.6 4.66 13.2 5 20 C3.02 20 1.04 20 -1 20 C-1.99 20.66 -2.98 21.32 -4 22 C-8.80735077 22.63119415 -13.39508279 22.89576774 -17.6875 20.5 C-19.54450102 16.96285519 -19.86505105 13.84467132 -19 10 C-16.8793374 6.17777809 -14.03355092 3.65650434 -10 2 C-7.67578125 1.62109375 -7.67578125 1.62109375 -5.3125 1.4375 C-2.35818712 1.40493693 -2.35818712 1.40493693 0 0 Z " fill="#F7EEEE" transform="translate(389,398)"/>
<path d="M0 0 C0.99 0.66 1.98 1.32 3 2 C3.34057617 3.87939453 3.34057617 3.87939453 3.29296875 6.1328125 C3.2784668 7.34130859 3.2784668 7.34130859 3.26367188 8.57421875 C3.23853516 9.41597656 3.21339844 10.25773437 3.1875 11.125 C3.16719727 12.39923828 3.16719727 12.39923828 3.14648438 13.69921875 C3.11108219 15.79974837 3.05727401 17.89995293 3 20 C1.68 20 0.36 20 -1 20 C-1.33 15.38 -1.66 10.76 -2 6 C-7.76887492 5.4452998 -7.76887492 5.4452998 -11 8 C-11.8071582 11.33850055 -11.8071582 11.33850055 -12.1875 15.125 C-12.34605469 16.40632813 -12.50460937 17.68765625 -12.66796875 19.0078125 C-12.83232422 20.48894531 -12.83232422 20.48894531 -13 22 C-14.32 22 -15.64 22 -17 22 C-17 17.05 -17 12.1 -17 7 C-23.35646932 7.44277578 -23.35646932 7.44277578 -25.89453125 9.14453125 C-27.55662181 11.93425922 -27.52827041 14.47106224 -27.6875 17.6875 C-27.75324219 18.86699219 -27.81898438 20.04648437 -27.88671875 21.26171875 C-27.92410156 22.16535156 -27.96148437 23.06898438 -28 24 C-29.32 24 -30.64 24 -32 24 C-32 17.4 -32 10.8 -32 4 C-30.35 3.67 -28.7 3.34 -27 3 C-26.21625 2.814375 -25.4325 2.62875 -24.625 2.4375 C-21.38335827 1.89722638 -18.28210921 1.94032529 -15 2 C-11.23870814 2.32205156 -11.23870814 2.32205156 -9.1875 1 C-6.03924927 -0.43920033 -3.41619973 -0.24845089 0 0 Z " fill="#F7ECEC" transform="translate(506,380)"/>
<path d="M0 0 C2.9375 2.0625 2.9375 2.0625 5 5 C5.70279752 9.29487371 5.31926339 11.38512237 3.3125 15.25 C0.93235103 18.08044742 -0.5666584 19.64263239 -4 21 C-8.25880812 21 -10.24450523 20.67800813 -13.4375 17.8125 C-15.31450908 14.43388366 -15.62209008 12.81030177 -15 9 C-11.26922499 2.2046598 -8.02810827 -1.12675204 0 0 Z " fill="#F5E8E8" transform="translate(464,386)"/>
<path d="M0 0 C2.08265342 3.33224547 1.85493863 5.49860567 1.24609375 9.30859375 C0.19324097 12.68373896 -1.67197993 14.39293709 -4.4375 16.5 C-8.03014452 17.69754817 -10.66467474 17.83094958 -14.4375 17.5 C-16.875 16 -16.875 16 -18.4375 13.5 C-18.99351654 9.66966382 -19.31995877 7.14918523 -17.484375 3.71875 C-12.64669925 -2.527363 -6.87543869 -4.23103919 0 0 Z " fill="#AB0404" transform="translate(372.4375,314.5)"/>
<path d="M0 0 C2.9375 1.5625 2.9375 1.5625 5 4 C5.56300961 7.87069104 5.36912736 10.18791981 3.75 13.75 C0.8610713 17.46433691 -1.36166253 19.06608771 -6 19.875 C-8.6071268 20.08861933 -9.93645277 20.02281183 -12.4375 19.125 C-14.97531371 15.67357335 -15.55361151 12.23267536 -15 8 C-11.28946949 1.55727821 -7.42783684 -0.6294777 0 0 Z " fill="#AC0606" transform="translate(419,338)"/>
<path d="M0 0 C2.4375 1.375 2.4375 1.375 4 3 C4 3.66 4 4.32 4 5 C2.35 5.66 0.7 6.32 -1 7 C-1.33 6.67 -1.66 6.34 -2 6 C-4.95817107 5.74994614 -4.95817107 5.74994614 -8 6 C-10.33278733 7.89107141 -10.33278733 7.89107141 -10.1875 11.0625 C-10.33187793 13.88833136 -10.33187793 13.88833136 -9 15 C-5.48254713 14.74751373 -5.48254713 14.74751373 -2 14 C-1.67 13.34 -1.34 12.68 -1 12 C0.65 12.33 2.3 12.66 4 13 C2.48941618 17.22963468 -0.12314321 18.91246173 -4 21 C-8.05508079 21.74481076 -9.44252045 21.37569274 -12.875 19.0625 C-15.36297863 15.47688374 -15.73099586 13.43040945 -15.49609375 9.15234375 C-13.8042779 1.8122608 -6.63833364 -0.58230997 0 0 Z " fill="#F6EAEA" transform="translate(440,390)"/>
<path d="M0 0 C1.9375 1.4375 1.9375 1.4375 3 3 C3 3.66 3 4.32 3 5 C1.35 5.66 -0.3 6.32 -2 7 C-2.66 6.34 -3.32 5.68 -4 5 C-6.45741537 4.49985047 -6.45741537 4.49985047 -9 5 C-11.02896212 6.53813421 -11.02896212 6.53813421 -12 9 C-11.77426109 12.19235272 -11.77426109 12.19235272 -11 15 C-6.94393835 14.53199289 -3.53411321 14.12046792 0 12 C0.99 13.485 0.99 13.485 2 15 C-1.41811756 18.5057616 -3.6361772 20.37762036 -8.625 20.625 C-11.98949906 20.41507341 -12.83698142 20.13121008 -15.5625 17.9375 C-17.41198523 14.15811715 -17.71835768 12.16647456 -17 8 C-12.63168421 1.02478608 -8.27337322 -1.95552458 0 0 Z " fill="#F9F2F2" transform="translate(537,377)"/>
<path d="M0 0 C1.65 0 3.3 0 5 0 C5 1.32 5 2.64 5 4 C4.01 4.33 3.02 4.66 2 5 C1.67 5.99 1.34 6.98 1 8 C2.32 8 3.64 8 5 8 C5 9.32 5 10.64 5 12 C4.01 12 3.02 12 2 12 C2.165 12.969375 2.33 13.93875 2.5 14.9375 C3.13396273 19.29487763 3.0896672 23.60630704 3 28 C1.68 28 0.36 28 -1 28 C-1.33 23.38 -1.66 18.76 -2 14 C-3.32 14 -4.64 14 -6 14 C-6 12.68 -6 11.36 -6 10 C-5.01 10 -4.02 10 -3 10 C-3 8.02 -3 6.04 -3 4 C-2.34 4 -1.68 4 -1 4 C-0.67 2.68 -0.34 1.36 0 0 Z " fill="#F8F0F0" transform="translate(317,406)"/>
<path d="M0 0 C1.9375 1.125 1.9375 1.125 3 3 C3 6 3 6 2 9 C-0.75458665 11.36107427 -2.51723453 11.95172345 -6.125 12.3125 C-9 12 -9 12 -12 10 C-12.5625 7.6875 -12.5625 7.6875 -12 5 C-8.23076684 0.9615359 -5.73943857 -1.02034464 0 0 Z " fill="#AD0A0A" transform="translate(386,404)"/>
<path d="M0 0 C1.32 0 2.64 0 4 0 C4.81898622 3.57350041 5.11811958 6.85659479 5.09765625 10.51953125 C5.09282227 12.0519043 5.09282227 12.0519043 5.08789062 13.61523438 C5.07951172 14.67033203 5.07113281 15.72542969 5.0625 16.8125 C5.05798828 17.88693359 5.05347656 18.96136719 5.04882812 20.06835938 C5.03707729 22.71229683 5.02064787 25.35611952 5 28 C3.35 28.33 1.7 28.66 0 29 C0 19.43 0 9.86 0 0 Z " fill="#EED7D7" transform="translate(404,387)"/>
<path d="M0 0 C1.32 0 2.64 0 4 0 C4.72492332 9.35927791 5.14256667 18.60644064 5 28 C3.35 28 1.7 28 0 28 C0 18.76 0 9.52 0 0 Z " fill="#F4E5E5" transform="translate(395,389)"/>
<path d="M0 0 C0.66 0 1.32 0 2 0 C1.67 1.65 1.34 3.3 1 5 C0.34 5 -0.32 5 -1 5 C-0.67 10.28 -0.34 15.56 0 21 C-1.65 21 -3.3 21 -5 21 C-5.33 14.4 -5.66 7.8 -6 1 C-4.35 1 -2.7 1 -1 1 C-0.67 0.67 -0.34 0.34 0 0 Z " fill="#F2E0E0" transform="translate(352,406)"/>
<path d="M0 0 C2 2 2 2 2.3125 5.4375 C2 9 2 9 0.8125 10.9375 C-1.62103204 12.36405327 -3.22542896 12.35571424 -6 12 C-8 10 -8 10 -8.3125 6.5625 C-8 3 -8 3 -6.8125 1.0625 C-4.37896796 -0.36405327 -2.77457104 -0.35571424 0 0 Z " fill="#AE0E0E" transform="translate(335,415)"/>
<path d="M0 0 C2 2 2 2 2.375 4.375 C2 7 2 7 0.375 9.3125 C-2.6229538 11.44262507 -4.39722105 11.40030877 -8 11 C-9 10 -9 10 -9.25 6.625 C-9 3 -9 3 -7.875 1.0625 C-5.15050101 -0.48138276 -3.07108055 -0.3267107 0 0 Z " fill="#AD0A0A" transform="translate(463,391)"/>
<path d="M0 0 C1.32 0 2.64 0 4 0 C4.11381955 6.76594019 3.88021369 13.28837062 3 20 C1.68 20 0.36 20 -1 20 C-1.11044961 13.26257354 -0.70132913 6.70019789 0 0 Z " fill="#F9F2F2" transform="translate(511,379)"/>
<path d="M0 0 C0.99 0.33 1.98 0.66 3 1 C2.67 2.32 2.34 3.64 2 5 C1.01 5 0.02 5 -1 5 C-0.67 3.35 -0.34 1.7 0 0 Z " fill="#EBD0D0" transform="translate(513,370)"/>
</svg>
