<?xml version="1.0" encoding="UTF-8"?>
<svg version="1.1" xmlns="http://www.w3.org/2000/svg" width="774" height="64">
<path d="M0 0 C3.52269485 -0.4025937 4.79940808 -0.13372795 7.8125 1.875 C8.534375 2.57625 9.25625 3.2775 10 4 C10 4.66 10 5.32 10 6 C10.66 6 11.32 6 12 6 C12 6.66 12 7.32 12 8 C12.56074219 8.11601562 13.12148438 8.23203125 13.69921875 8.3515625 C16.27954398 9.07878489 18.4345151 10.13919682 20.8125 11.375 C21.69679688 11.82230469 22.58109375 12.26960937 23.4921875 12.73046875 C24.31976563 13.14941406 25.14734375 13.56835938 26 14 C41.30309419 21.51242806 59.96096835 20.48383979 76 16 C76.69496582 15.80712402 77.38993164 15.61424805 78.10595703 15.41552734 C80.30586078 14.79593881 82.4976509 14.15419089 84.6875 13.5 C85.71351318 13.19799683 85.71351318 13.19799683 86.76025391 12.88989258 C90.52679666 11.72481399 90.52679666 11.72481399 93.62109375 9.37890625 C95.68325072 7.31674928 97.521763 7.55866486 100.375 7.4375 C104.39395077 7.25482042 107.29660911 6.54204738 111 5 C111.99 5 112.98 5 114 5 C114 4.01 114 3.02 114 2 C113.01 1.01 113.01 1.01 112 0 C116.95 0 121.9 0 127 0 C125.68 1.32 124.36 2.64 123 4 C126.2956801 8.43649244 129.9888696 12.4944348 135 15 C135 15.66 135 16.32 135 17 C136.051875 17.0825 137.10375 17.165 138.1875 17.25 C142 18 142 18 144.3125 19.875 C155.00203301 28.32718889 174.66005974 28.70899042 187.625 27.4375 C194.87329444 26.58725315 200.18372416 24.5439655 206 20 C207.5778125 18.8553125 207.5778125 18.8553125 209.1875 17.6875 C213.56866452 13.5010539 218.06051293 8.81846122 220 3 C220.66 3 221.32 3 222 3 C221.67 2.01 221.34 1.02 221 0 C226.23178279 -0.42708431 229.03466641 0.27403873 233.3203125 2.98828125 C235.74769382 4.45035511 238.29787382 5.17281852 241 6 C242.19625 6.495 243.3925 6.99 244.625 7.5 C266.9682516 15.77372287 289.74396346 9.89154962 310.76513672 0.76757812 C314.28093692 -0.439946 317.31768483 -0.27276409 321 0 C320 2 320 2 317.56640625 2.96484375 C315.5669217 3.61227113 313.56692203 4.25810985 311.56640625 4.90234375 C308.70554343 5.84922795 308.70554343 5.84922795 307 9 C304.66666667 9 302.33333333 9 300 9 C297.6485148 9.95653635 295.31254012 10.95281202 293 12 C291.68 12 290.36 12 289 12 C288.938125 12.94875 288.87625 13.8975 288.8125 14.875 C288 18 288 18 285.6875 19.5625 C283 20 283 20 280.6875 18.75 C279 17 279 17 279 15 C273.06 15.495 273.06 15.495 267 16 C266.62875 17.6396875 266.62875 17.6396875 266.25 19.3125 C265 23 265 23 263.3125 25 C259.85988693 26.49302187 257.5773185 25.97563232 254 25 C252.0625 23.375 252.0625 23.375 251 21 C250.8125 17.25 250.8125 17.25 251 14 C250.05125 13.690625 249.1025 13.38125 248.125 13.0625 C245 12 245 12 243 11 C242.34 12.32 241.68 13.64 241 15 C234.57472739 15.48492623 234.57472739 15.48492623 232 13.3125 C230.7593966 10.44360465 231.10057179 8.94358324 232 6 C228.02245872 5.26665571 228.02245872 5.26665571 224 5 C222.28670385 7.14713203 222.28670385 7.14713203 220.5625 9.8125 C218.54766787 12.82822067 216.62743929 15.50128252 214 18 C212.1266691 20.7163298 211.94589942 21.67539651 212.5 25 C213 28 213 28 212.4375 30.3125 C211 32 211 32 208.0625 32.875 C205 33 205 33 202 31 C202 30.01 202 29.02 202 28 C201.38511719 28.20496094 200.77023437 28.40992187 200.13671875 28.62109375 C189.625 32.125 189.625 32.125 183.8125 32.0625 C182.18248047 32.04896484 182.18248047 32.04896484 180.51953125 32.03515625 C179.68808594 32.02355469 178.85664063 32.01195312 178 32 C177.67 32.99 177.34 33.98 177 35 C174.9375 35.6875 174.9375 35.6875 173 36 C172.49339844 35.05833984 172.49339844 35.05833984 171.9765625 34.09765625 C169.19906533 31.14999621 166.21711403 30.97244999 162.375 30.4375 C156.31863097 29.46200954 150.76591663 28.16221874 145 26 C144.37158203 26.75216797 144.37158203 26.75216797 143.73046875 27.51953125 C143.15941406 28.00808594 142.58835937 28.49664063 142 29 C138.3125 28.6875 138.3125 28.6875 135 28 C134.9175 26.9275 134.835 25.855 134.75 24.75 C133.44887112 18.24435561 128.03896584 15.44107309 122.92578125 11.68359375 C121 10 121 10 120 7 C115.15046881 7.78218245 110.62764021 9.40545731 106 11 C105.01 11.33 104.02 11.66 103 12 C102.896875 12.78375 102.79375 13.5675 102.6875 14.375 C102 17 102 17 99 19 C96.3125 18.625 96.3125 18.625 94 18 C93.505 16.515 93.505 16.515 93 15 C89.37 16.32 85.74 17.64 82 19 C81.896875 20.11375 81.79375 21.2275 81.6875 22.375 C81.460625 23.57125 81.23375 24.7675 81 26 C78 28 78 28 75.5 27.9375 C72.21774924 26.70665597 71.50179898 25.08264 70 22 C69.25363281 22.16113281 68.50726563 22.32226562 67.73828125 22.48828125 C62.54688208 23.19891165 57.42126186 23.18429892 52.1875 23.1875 C50.62418945 23.20586914 50.62418945 23.20586914 49.02929688 23.22460938 C40.87983311 23.23995676 33.48672586 22.381102 26 19 C25.67 19.99 25.34 20.98 25 22 C22.02211118 22.90991047 20.56502006 23.25960381 17.6875 21.9375 C16 20 16 20 15.75 16.8125 C15.8325 15.884375 15.915 14.95625 16 14 C15.01 13.67 14.02 13.34 13 13 C13 12.34 13 11.68 13 11 C12.26394531 10.75378906 11.52789062 10.50757813 10.76953125 10.25390625 C7.71814822 8.87239151 6.00159918 7.33875922 3.6875 4.9375 C2.99011719 4.22464844 2.29273438 3.51179687 1.57421875 2.77734375 C0 1 0 1 0 0 Z " fill="#FEFEFE" transform="translate(298,0)"/>
<path d="M0 0 C2.76276177 0.52268466 5.3260876 1.10869587 8 2 C8.721875 1.690625 9.44375 1.38125 10.1875 1.0625 C13.95973326 -0.3625659 16.98078413 -0.13624461 21 0 C17.66666667 1.66666667 14.33333333 3.33333333 11 5 C11 5.66 11 6.32 11 7 C12.33201375 7.7523411 13.66570468 8.50171276 15 9.25 C15.7425 9.66765625 16.485 10.0853125 17.25 10.515625 C20.10816615 12.05838514 22.99756818 13.51787409 25.90722656 14.96044922 C27.25599195 15.63042624 28.60194419 16.30611175 29.94433594 16.98876953 C52.94653864 28.66510351 78.29601629 33.3717411 104 34 C105.03769531 34.03996094 106.07539063 34.07992187 107.14453125 34.12109375 C124.49877798 34.51603645 148.26354147 31.82430569 163 22 C164.07121094 21.70867188 165.14242187 21.41734375 166.24609375 21.1171875 C170.21294165 19.93662715 173.53441431 18.22700454 177.0625 16.125 C177.94131836 15.61646484 177.94131836 15.61646484 178.83789062 15.09765625 C185.61936051 11.13866274 191.60933249 6.73947203 197.53515625 1.609375 C200.31529502 -0.20586616 201.74818173 -0.34778805 205 0 C201.38671875 4.6875 201.38671875 4.6875 200 6 C199.01 6 198.02 6 197 6 C196.896875 6.598125 196.79375 7.19625 196.6875 7.8125 C196 10 196 10 194.4375 11.375 C192.31660075 13.77253828 192.9339819 15.89714942 193 19 C191 21 191 21 188.0625 21.3125 C184.63887791 20.96315081 184.17181258 20.45706557 182 18 C181.48050781 18.34933594 180.96101563 18.69867187 180.42578125 19.05859375 C173.49912127 23.57820738 173.49912127 23.57820738 169 24 C169.061875 25.423125 169.061875 25.423125 169.125 26.875 C169 30 169 30 167 32 C164 32.3125 164 32.3125 161 32 C160.01 30.515 160.01 30.515 159 29 C156.03 30.32 153.06 31.64 150 33 C150.04125 33.94875 150.0825 34.8975 150.125 35.875 C150 39 150 39 148 41 C144.70285207 40.67028521 143.3773161 40.3773161 141 38 C141 36.68 141 35.36 141 34 C140.34 34.19335938 139.68 34.38671875 139 34.5859375 C130.05257026 36.93929793 121.28030702 37.65949102 112.05273438 38.08935547 C111.04146484 38.1513916 110.03019531 38.21342773 108.98828125 38.27734375 C107.61990112 38.34296509 107.61990112 38.34296509 106.22387695 38.40991211 C103.81562686 38.78107386 103.81562686 38.78107386 102.68823242 41.04516602 C102.34755737 42.01280884 102.34755737 42.01280884 102 43 C100.35 42.67 98.7 42.34 97 42 C96.67 40.68 96.34 39.36 96 38 C90.06 37.34 84.12 36.68 78 36 C77.67 37.32 77.34 38.64 77 40 C73.76746204 42.15502531 72.74849077 42.46856135 69 42 C67.1875 40.75 67.1875 40.75 66 39 C66 37.68 66 36.36 66 35 C62.04 33.68 58.08 32.36 54 31 C53.67 32.32 53.34 33.64 53 35 C52 37 52 37 49.75 37.875 C47 38 47 38 44.1875 36.0625 C43.465625 35.381875 42.74375 34.70125 42 34 C42.875 29.25 42.875 29.25 44 27 C42.88625 26.814375 42.88625 26.814375 41.75 26.625 C39.19858515 26.04513299 37.2732427 25.26291261 35 24 C34.505 25.485 34.505 25.485 34 27 C28.56180812 28.32933579 28.56180812 28.32933579 26.1875 26.9375 C25 25 25 25 24.6875 22 C24.460625 21.01 24.23375 20.02 24 19 C21.04928156 17.06530151 21.04928156 17.06530151 18 16 C18 15.34 18 14.68 18 14 C17.43796875 13.89816406 16.8759375 13.79632813 16.296875 13.69140625 C13.54660512 12.86351889 11.60904126 11.56801382 9.25 9.9375 C8.45078125 9.38964844 7.6515625 8.84179688 6.828125 8.27734375 C6.22484375 7.85582031 5.6215625 7.43429688 5 7 C4.67 7.99 4.34 8.98 4 10 C1.56640625 11.0625 1.56640625 11.0625 -1.4375 12 C-6.02457558 13.33711997 -6.02457558 13.33711997 -9 17 C-11.33333333 17 -13.66666667 17 -16 17 C-18.3514852 17.95653635 -20.68745988 18.95281202 -23 20 C-24.32 20 -25.64 20 -27 20 C-27.0928125 21.423125 -27.0928125 21.423125 -27.1875 22.875 C-28 26 -28 26 -30.3125 27.5625 C-33 28 -33 28 -35.3125 26.75 C-37 25 -37 25 -37 23 C-40.96 23.33 -44.92 23.66 -49 24 C-49.2475 25.093125 -49.495 26.18625 -49.75 27.3125 C-51 31 -51 31 -52.6875 33 C-56.14011307 34.49302187 -58.4226815 33.97563232 -62 33 C-63.9375 31.375 -63.9375 31.375 -65 29 C-65.1875 25.25 -65.1875 25.25 -65 22 C-65.94875 21.690625 -66.8975 21.38125 -67.875 21.0625 C-71 20 -71 20 -73 19 C-73.66 20.32 -74.32 21.64 -75 23 C-81.42527261 23.48492623 -81.42527261 23.48492623 -84 21.3125 C-85.2406034 18.44360465 -84.89942821 16.94358324 -84 14 C-85.65 13.67 -87.3 13.34 -89 13 C-89 11.35 -89 9.7 -89 8 C-88.49210937 8.26554688 -87.98421875 8.53109375 -87.4609375 8.8046875 C-83.36736645 10.90513407 -79.40228115 12.62428714 -75 14 C-73.80375 14.495 -72.6075 14.99 -71.375 15.5 C-49.46324668 23.61393873 -26.55958877 18.31026963 -5.98706055 9.00415039 C-3.29354073 7.72771521 -0.63652273 6.39008971 2 5 C1.01 2.525 1.01 2.525 0 0 Z " fill="#FDFEFC" transform="translate(89,0)"/>
<path d="M0 0 C5.61045362 -0.86314671 8.24468787 1.31715594 12.58984375 4.421875 C15.70070665 6.45880954 18.88834391 7.65892555 22.36328125 8.94140625 C25.20666974 10.08297407 27.80702619 11.47772247 30.5 12.9375 C50.10562004 22.81495071 74.30981866 25.46984679 96 26 C97.03769531 26.03996094 98.07539062 26.07992188 99.14453125 26.12109375 C117.22750398 26.53262057 134.74617293 21.91901765 152 17 C151.78515625 18.859375 151.78515625 18.859375 151 21 C148.93359375 22.265625 148.93359375 22.265625 146.4375 23.25 C145.61121094 23.58515625 144.78492188 23.9203125 143.93359375 24.265625 C143.29550781 24.50796875 142.65742187 24.7503125 142 25 C142.04125 25.94875 142.0825 26.8975 142.125 27.875 C142 31 142 31 140 33 C136.70285207 32.67028521 135.3773161 32.3773161 133 30 C133 28.68 133 27.36 133 26 C132.34 26.19335938 131.68 26.38671875 131 26.5859375 C122.05257026 28.93929793 113.28030702 29.65949102 104.05273438 30.08935547 C103.04146484 30.1513916 102.03019531 30.21342773 100.98828125 30.27734375 C99.61990112 30.34296509 99.61990112 30.34296509 98.22387695 30.40991211 C95.81562686 30.78107386 95.81562686 30.78107386 94.68823242 33.04516602 C94.46111572 33.69026123 94.23399902 34.33535645 94 35 C92.35 34.67 90.7 34.34 89 34 C88.505 32.02 88.505 32.02 88 30 C82.06 29.34 76.12 28.68 70 28 C69.67 29.32 69.34 30.64 69 32 C65.76746204 34.15502531 64.74849077 34.46856135 61 34 C59.1875 32.75 59.1875 32.75 58 31 C58 29.68 58 28.36 58 27 C54.04 25.68 50.08 24.36 46 23 C45.67 24.32 45.34 25.64 45 27 C44 29 44 29 41.75 29.875 C39 30 39 30 36.1875 28.0625 C35.465625 27.381875 34.74375 26.70125 34 26 C34.875 21.25 34.875 21.25 36 19 C35.2575 18.87625 34.515 18.7525 33.75 18.625 C31.19858515 18.04513299 29.2732427 17.26291261 27 16 C26.67 16.99 26.34 17.98 26 19 C20.56180812 20.32933579 20.56180812 20.32933579 18.1875 18.9375 C17 17 17 17 16.6875 14 C16.460625 13.01 16.23375 12.02 16 11 C13.04928156 9.06530151 13.04928156 9.06530151 10 8 C10 7.34 10 6.68 10 6 C9.46375 5.9175 8.9275 5.835 8.375 5.75 C5.14748846 4.73078583 2.72305958 2.98040697 0 1 C0 0.67 0 0.34 0 0 Z " fill="#FDFEFC" transform="translate(622,0)"/>
<path d="M0 0 C-1 2 -1 2 -3.43359375 2.96484375 C-5.4330783 3.61227113 -7.43307797 4.25810985 -9.43359375 4.90234375 C-12.29445657 5.84922795 -12.29445657 5.84922795 -14 9 C-16.33333333 9 -18.66666667 9 -21 9 C-23.3514852 9.95653635 -25.68745988 10.95281202 -28 12 C-29.32 12 -30.64 12 -32 12 C-32.0928125 13.423125 -32.0928125 13.423125 -32.1875 14.875 C-33 18 -33 18 -35.3125 19.5625 C-38 20 -38 20 -40.3125 18.75 C-42 17 -42 17 -42 15 C-47.94 15.495 -47.94 15.495 -54 16 C-54.2475 17.093125 -54.495 18.18625 -54.75 19.3125 C-56 23 -56 23 -57.6875 25 C-61.14011307 26.49302187 -63.4226815 25.97563232 -67 25 C-68.9375 23.375 -68.9375 23.375 -70 21 C-70.1875 17.25 -70.1875 17.25 -70 14 C-70.94875 13.690625 -71.8975 13.38125 -72.875 13.0625 C-76 12 -76 12 -78 11 C-78.66 12.32 -79.32 13.64 -80 15 C-86.42527261 15.48492623 -86.42527261 15.48492623 -89 13.3125 C-90.2406034 10.44360465 -89.89942821 8.94358324 -89 6 C-83.03045655 4.88703427 -81.23413393 4.82594794 -76 8 C-52.91889855 14.52934535 -31.91871543 10.17917693 -10.23486328 0.76757812 C-6.71906308 -0.439946 -3.68231517 -0.27276409 0 0 Z " fill="#3DDFD9" transform="translate(619,0)"/>
<path d="M0 0 C6.11774896 -0.49940808 9.02495953 0.75099398 14 4 C14 4.66 14 5.32 14 6 C13.37351562 5.9278125 12.74703125 5.855625 12.1015625 5.78125 C11.28429687 5.6884375 10.46703125 5.595625 9.625 5.5 C8.81289063 5.4071875 8.00078125 5.314375 7.1640625 5.21875 C5.03087175 4.96647649 5.03087175 4.96647649 3 5 C1.28670385 7.14713203 1.28670385 7.14713203 -0.4375 9.8125 C-2.45233213 12.82822067 -4.37256071 15.50128252 -7 18 C-8.8733309 20.7163298 -9.05410058 21.67539651 -8.5 25 C-8 28 -8 28 -8.5625 30.3125 C-10 32 -10 32 -12.9375 32.875 C-16 33 -16 33 -19 31 C-19 30.01 -19 29.02 -19 28 C-19.61488281 28.20496094 -20.22976563 28.40992187 -20.86328125 28.62109375 C-31.375 32.125 -31.375 32.125 -37.1875 32.0625 C-38.81751953 32.04896484 -38.81751953 32.04896484 -40.48046875 32.03515625 C-41.31191406 32.02355469 -42.14335937 32.01195312 -43 32 C-43.33 32.99 -43.66 33.98 -44 35 C-46.0625 35.6875 -46.0625 35.6875 -48 36 C-48.33902344 35.3709375 -48.67804688 34.741875 -49.02734375 34.09375 C-51.79299756 31.15832338 -54.73726405 31.01435825 -58.5625 30.5 C-65.1321631 29.46178514 -70.95357591 27.86333064 -77 25 C-76.67 23.68 -76.34 22.36 -76 21 C-74.99324219 21.46148438 -73.98648437 21.92296875 -72.94921875 22.3984375 C-58.58057792 28.54147359 -40.17141527 29.74564787 -25 26 C-21.2544463 24.43187411 -18.19107 22.49302344 -15 20 C-13.948125 19.236875 -12.89625 18.47375 -11.8125 17.6875 C-7.43133548 13.5010539 -2.93948707 8.81846122 -1 3 C-0.34 3 0.32 3 1 3 C0.505 1.515 0.505 1.515 0 0 Z " fill="#FCFEFB" transform="translate(519,0)"/>
<path d="M0 0 C0.50789063 0.26554688 1.01578125 0.53109375 1.5390625 0.8046875 C5.63263355 2.90513407 9.59771885 4.62428714 14 6 C15.794375 6.7425 15.794375 6.7425 17.625 7.5 C29.07174386 11.73078525 40.99375353 11.22605903 53 11 C52.67 12.32 52.34 13.64 52 15 C46.06 15.495 46.06 15.495 40 16 C39.7525 17.093125 39.505 18.18625 39.25 19.3125 C38 23 38 23 36.3125 25 C32.85988693 26.49302187 30.5773185 25.97563232 27 25 C25.0625 23.375 25.0625 23.375 24 21 C23.8125 17.25 23.8125 17.25 24 14 C23.05125 13.690625 22.1025 13.38125 21.125 13.0625 C18 12 18 12 16 11 C15.34 12.32 14.68 13.64 14 15 C7.57472739 15.48492623 7.57472739 15.48492623 5 13.3125 C3.7593966 10.44360465 4.10057179 8.94358324 5 6 C3.35 5.67 1.7 5.34 0 5 C0 3.35 0 1.7 0 0 Z " fill="#3DDFD9" transform="translate(0,8)"/>
<path d="M0 0 C5.61045362 -0.86314671 8.24468787 1.31715594 12.58984375 4.421875 C15.70070665 6.45880954 18.88834391 7.65892555 22.36328125 8.94140625 C25.20666974 10.08297407 27.80702619 11.47772247 30.5 12.9375 C37.65373801 16.60251493 45.1791568 18.49227668 52.92822266 20.46289062 C55.96936045 21.25130721 58.98325081 22.12326972 62 23 C61.34 23.99 60.68 24.98 60 26 C55.02906176 25.58846263 50.55491614 25.20399168 46 23 C45.855625 23.61875 45.71125 24.2375 45.5625 24.875 C45 27 45 27 44 29 C41.75 29.875 41.75 29.875 39 30 C36.1875 28.0625 36.1875 28.0625 34 26 C34.875 21.25 34.875 21.25 36 19 C35.2575 18.87625 34.515 18.7525 33.75 18.625 C31.19858515 18.04513299 29.2732427 17.26291261 27 16 C26.67 16.99 26.34 17.98 26 19 C20.56180812 20.32933579 20.56180812 20.32933579 18.1875 18.9375 C17 17 17 17 16.6875 14 C16.460625 13.01 16.23375 12.02 16 11 C13.04928156 9.06530151 13.04928156 9.06530151 10 8 C10 7.34 10 6.68 10 6 C9.46375 5.9175 8.9275 5.835 8.375 5.75 C5.14748846 4.73078583 2.72305958 2.98040697 0 1 C0 0.67 0 0.34 0 0 Z " fill="#FDFBFC" transform="translate(622,0)"/>
<path d="M0 0 C4.95 0 9.9 0 15 0 C13.68 1.32 12.36 2.64 11 4 C14.2956801 8.43649244 17.9888696 12.4944348 23 15 C23 15.66 23 16.32 23 17 C24.670625 17.185625 24.670625 17.185625 26.375 17.375 C30 18 30 18 32 20 C32.25 23.5 32.25 23.5 32 27 C31.34 27.66 30.68 28.32 30 29 C26.375 28.625 26.375 28.625 23 28 C22.9175 26.9275 22.835 25.855 22.75 24.75 C21.44887112 18.24435561 16.03896584 15.44107309 10.92578125 11.68359375 C9 10 9 10 8 7 C3.15046881 7.78218245 -1.37235979 9.40545731 -6 11 C-6.99 11.33 -7.98 11.66 -9 12 C-9.1546875 13.175625 -9.1546875 13.175625 -9.3125 14.375 C-10 17 -10 17 -13 19 C-17.54054054 18.45945946 -17.54054054 18.45945946 -19 17 C-19.1875 13.5625 -19.1875 13.5625 -19 10 C-16.44511613 7.44511613 -15.23343054 7.69193129 -11.6875 7.5 C-7.6646725 7.28047326 -4.70870838 6.54063598 -1 5 C-0.01 5 0.98 5 2 5 C2 4.01 2 3.02 2 2 C1.34 1.34 0.68 0.68 0 0 Z " fill="#FEFDFE" transform="translate(410,0)"/>
<path d="M0 0 C2.76276177 0.52268466 5.3260876 1.10869587 8 2 C8.721875 1.690625 9.44375 1.38125 10.1875 1.0625 C13.95973326 -0.3625659 16.98078413 -0.13624461 21 0 C17.66666667 1.66666667 14.33333333 3.33333333 11 5 C11 5.66 11 6.32 11 7 C11.54527344 7.30292969 12.09054688 7.60585937 12.65234375 7.91796875 C18.1015625 10.9453125 23.55078125 13.97265625 29 17 C28.01 17.99 27.02 18.98 26 20 C23.36 18.68 20.72 17.36 18 16 C18 15.34 18 14.68 18 14 C17.43796875 13.89816406 16.8759375 13.79632813 16.296875 13.69140625 C13.54660512 12.86351889 11.60904126 11.56801382 9.25 9.9375 C8.45078125 9.38964844 7.6515625 8.84179688 6.828125 8.27734375 C6.22484375 7.85582031 5.6215625 7.43429688 5 7 C4.67 7.99 4.34 8.98 4 10 C1.56640625 11.0625 1.56640625 11.0625 -1.4375 12 C-6.02457558 13.33711997 -6.02457558 13.33711997 -9 17 C-11.33333333 17 -13.66666667 17 -16 17 C-18.3514852 17.95653635 -20.68745988 18.95281202 -23 20 C-24.32 20 -25.64 20 -27 20 C-27.061875 20.94875 -27.12375 21.8975 -27.1875 22.875 C-28 26 -28 26 -30.3125 27.5625 C-33 28 -33 28 -35.3125 26.625 C-35.869375 26.08875 -36.42625 25.5525 -37 25 C-36.67 23.02 -36.34 21.04 -36 19 C-34.58654297 18.60748047 -34.58654297 18.60748047 -33.14453125 18.20703125 C-14.98713567 13.04469409 -14.98713567 13.04469409 2 5 C1.34 3.35 0.68 1.7 0 0 Z " fill="#FEFEFE" transform="translate(89,0)"/>
<path d="M0 0 C0.93457031 0.42023437 1.86914062 0.84046875 2.83203125 1.2734375 C14.63958631 6.44738823 26.28569772 10.28490361 38.83203125 13.2734375 C38.17203125 14.2634375 37.51203125 15.2534375 36.83203125 16.2734375 C31.86109301 15.86190013 27.38694739 15.47742918 22.83203125 13.2734375 C22.68765625 13.8921875 22.54328125 14.5109375 22.39453125 15.1484375 C21.83203125 17.2734375 21.83203125 17.2734375 20.83203125 19.2734375 C18.58203125 20.1484375 18.58203125 20.1484375 15.83203125 20.2734375 C13.01953125 18.3359375 13.01953125 18.3359375 10.83203125 16.2734375 C11.70703125 11.5234375 11.70703125 11.5234375 12.83203125 9.2734375 C12.08953125 9.1496875 11.34703125 9.0259375 10.58203125 8.8984375 C8.0306164 8.31857049 6.10527395 7.53635011 3.83203125 6.2734375 C3.50203125 7.2634375 3.17203125 8.2534375 2.83203125 9.2734375 C-2.61533717 10.60501645 -2.61533717 10.60501645 -5.04296875 9.1484375 C-6.56260191 6.61571557 -6.67616236 5.177401 -6.16796875 2.2734375 C-4.05284752 -0.15503502 -3.15539585 -1.05748402 0 0 Z " fill="#FDFBFC" transform="translate(120.16796875,17.7265625)"/>
<path d="M0 0 C-3.61328125 4.6875 -3.61328125 4.6875 -5 6 C-5.99 6 -6.98 6 -8 6 C-8.103125 6.598125 -8.20625 7.19625 -8.3125 7.8125 C-9 10 -9 10 -10.5625 11.375 C-12.68339925 13.77253828 -12.0660181 15.89714942 -12 19 C-14 21 -14 21 -16.9375 21.3125 C-20.36112209 20.96315081 -20.82818742 20.45706557 -23 18 C-23.4846875 18.34933594 -23.969375 18.69867187 -24.46875 19.05859375 C-29.42572853 22.42361956 -33.01777843 23.67952384 -39 24 C-39.33 23.34 -39.66 22.68 -40 22 C-38.94941406 21.49210937 -37.89882813 20.98421875 -36.81640625 20.4609375 C-25.94832937 15.15513978 -16.5138727 9.52681049 -7.359375 1.5390625 C-4.64572459 -0.23110018 -3.1760279 -0.3266128 0 0 Z " fill="#3FDFD9" transform="translate(294,0)"/>
<path d="M0 0 C0.50789063 0.26554688 1.01578125 0.53109375 1.5390625 0.8046875 C5.63263355 2.90513407 9.59771885 4.62428714 14 6 C15.31475319 6.49404483 16.62712341 6.99446124 17.9375 7.5 C21.58004729 8.88262392 25.2401751 9.98171409 29 11 C28.01 12.485 28.01 12.485 27 14 C25.741875 13.87625 24.48375 13.7525 23.1875 13.625 C22.47980469 13.55539063 21.77210937 13.48578125 21.04296875 13.4140625 C19 13 19 13 16 11 C15.34 12.32 14.68 13.64 14 15 C7.57472739 15.48492623 7.57472739 15.48492623 5 13.3125 C3.7593966 10.44360465 4.10057179 8.94358324 5 6 C3.35 5.67 1.7 5.34 0 5 C0 3.35 0 1.7 0 0 Z " fill="#EE29A1" transform="translate(0,8)"/>
<path d="M0 0 C3.52269485 -0.4025937 4.79940808 -0.13372795 7.8125 1.875 C8.534375 2.57625 9.25625 3.2775 10 4 C10 4.66 10 5.32 10 6 C10.66 6 11.32 6 12 6 C12 6.66 12 7.32 12 8 C12.55171875 8.11214844 13.1034375 8.22429688 13.671875 8.33984375 C16.40065211 9.11360773 18.72772943 10.26817694 21.25 11.5625 C22.14203125 12.01753906 23.0340625 12.47257813 23.953125 12.94140625 C24.62859375 13.29074219 25.3040625 13.64007813 26 14 C26.1875 17.375 26.1875 17.375 26 21 C23 23 23 23 20.4375 22.75 C18 22 18 22 16 20 C15.875 16.875 15.875 16.875 16 14 C15.01 13.67 14.02 13.34 13 13 C13 12.34 13 11.68 13 11 C12.26394531 10.75378906 11.52789062 10.50757813 10.76953125 10.25390625 C7.71814822 8.87239151 6.00159918 7.33875922 3.6875 4.9375 C2.99011719 4.22464844 2.29273438 3.51179687 1.57421875 2.77734375 C0 1 0 1 0 0 Z " fill="#FDFEFA" transform="translate(298,0)"/>
<path d="M0 0 C5.59336467 -0.86051764 8.23355251 1.29158467 12.55078125 4.4140625 C15.82737503 6.53574843 19.23977794 7.73138242 22.93359375 8.9453125 C25.49867438 10.2545219 26.09170155 11.30076279 27 14 C26.625 16.75 26.625 16.75 26 19 C20.56180812 20.32933579 20.56180812 20.32933579 18.1875 18.9375 C17 17 17 17 16.6875 14 C16.460625 13.01 16.23375 12.02 16 11 C13.04928156 9.06530151 13.04928156 9.06530151 10 8 C10 7.34 10 6.68 10 6 C9.46375 5.9175 8.9275 5.835 8.375 5.75 C5.14748846 4.73078583 2.72305958 2.98040697 0 1 C0 0.67 0 0.34 0 0 Z " fill="#3EDFD9" transform="translate(622,0)"/>
<path d="M0 0 C0.33 1.32 0.66 2.64 1 4 C-1.31569722 4.62345694 -3.56095868 5.08354704 -5.9375 5.4375 C-8.98317058 5.8905557 -8.98317058 5.8905557 -11.625 7.0625 C-14 8 -14 8 -18 8 C-18.061875 8.94875 -18.12375 9.8975 -18.1875 10.875 C-19 14 -19 14 -21.3125 15.5625 C-24 16 -24 16 -26.3125 14.625 C-26.869375 14.08875 -27.42625 13.5525 -28 13 C-27.67 11.02 -27.34 9.04 -27 7 C-25.52080078 6.58621094 -25.52080078 6.58621094 -24.01171875 6.1640625 C-21.3103225 5.39301207 -18.63042354 4.57398596 -15.95703125 3.7109375 C-14.93512695 3.38222656 -14.93512695 3.38222656 -13.89257812 3.046875 C-12.49295794 2.59479111 -11.09453281 2.13899232 -9.69726562 1.6796875 C-6.2597959 0.5807438 -3.64837053 0 0 0 Z " fill="#D7F8F6" transform="translate(80,12)"/>
<path d="M0 0 C0.33 1.32 0.66 2.64 1 4 C-2.63 5.32 -6.26 6.64 -10 8 C-10.1546875 9.670625 -10.1546875 9.670625 -10.3125 11.375 C-10.539375 12.57125 -10.76625 13.7675 -11 15 C-14 17 -14 17 -16.5625 16.75 C-19 16 -19 16 -21 14 C-21.38286803 10.26703674 -21.14915785 9.22373677 -19 6 C-17.02880859 5.10864258 -17.02880859 5.10864258 -14.6484375 4.39453125 C-13.37226563 4.00297852 -13.37226563 4.00297852 -12.0703125 3.60351562 C-11.18085938 3.34248047 -10.29140625 3.08144531 -9.375 2.8125 C-8.4778125 2.53986328 -7.580625 2.26722656 -6.65625 1.98632812 C-4.44024047 1.3144529 -2.22168289 0.65282128 0 0 Z " fill="#3EDFD9" transform="translate(390,11)"/>
<path d="M0 0 C-1 2 -1 2 -3.43359375 2.96484375 C-5.4330783 3.61227113 -7.43307797 4.25810985 -9.43359375 4.90234375 C-12.29445657 5.84922795 -12.29445657 5.84922795 -14 9 C-15.59428305 8.96607908 -17.18883825 8.92418759 -18.78125 8.83984375 C-23.41144995 9.17406593 -27.73242967 11.27136392 -32 13 C-32.99 12.01 -33.98 11.02 -35 10 C-29.65516765 7.61020883 -24.25422891 5.68067083 -18.6875 3.875 C-17.08680416 3.35289555 -15.48652251 2.82951904 -13.88671875 2.3046875 C-13.18764404 2.07765137 -12.48856934 1.85061523 -11.76831055 1.61669922 C-7.40751162 0.09586834 -4.75334043 -0.07666678 0 0 Z " fill="#D7F8F6" transform="translate(619,0)"/>
<path d="M0 0 C6.11774896 -0.49940808 9.02495953 0.75099398 14 4 C14 4.66 14 5.32 14 6 C13.37351562 5.9278125 12.74703125 5.855625 12.1015625 5.78125 C11.28429687 5.6884375 10.46703125 5.595625 9.625 5.5 C8.81289063 5.4071875 8.00078125 5.314375 7.1640625 5.21875 C5.03087175 4.96647649 5.03087175 4.96647649 3 5 C1.28670385 7.14713203 1.28670385 7.14713203 -0.4375 9.8125 C-2.45411942 12.83089581 -4.38352338 15.48848233 -7 18 C-7.45375 18.70125 -7.9075 19.4025 -8.375 20.125 C-10.43661429 22.50378572 -11.93425649 22.66856827 -15 23 C-13.53191464 19.6476195 -11.62540476 17.34359034 -9.125 14.6875 C-5.75296619 10.98439378 -3.2726503 7.45060684 -1 3 C-0.34 3 0.32 3 1 3 C0.67 2.01 0.34 1.02 0 0 Z " fill="#FEFEFE" transform="translate(519,0)"/>
<path d="M0 0 C0.71800781 0.25394531 1.43601562 0.50789063 2.17578125 0.76953125 C11.97693416 4.02844511 21.79490024 5.57753625 32 7 C29.38826642 9.61173358 28.01677566 9.99863127 24.265625 10.3046875 C19.94201648 10.13438781 15.91651845 9.24188042 11.75 8.125 C11.05648438 7.95097656 10.36296875 7.77695312 9.6484375 7.59765625 C6.2288759 6.71328687 3.07410382 5.75889445 0 4 C0 2.68 0 1.36 0 0 Z " fill="#FEFCFC" transform="translate(442,21)"/>
<path d="M0 0 C2.68930863 0.94125802 3.95731359 1.47526558 5.5 3.875 C5.375 6.4375 5.375 6.4375 4.5 8.875 C1.26746204 11.03002531 0.24849077 11.34356135 -3.5 10.875 C-5.375 9.6875 -5.375 9.6875 -6.5 7.875 C-6.3579936 5.03487202 -5.82548508 3.36322761 -4.25 1 C-2.5 -0.125 -2.5 -0.125 0 0 Z " fill="#C2DF3E" transform="translate(161.5,31.125)"/>
<path d="M0 0 C2.68930863 0.94125802 3.95731359 1.47526558 5.5 3.875 C5.375 6.4375 5.375 6.4375 4.5 8.875 C1.26746204 11.03002531 0.24849077 11.34356135 -3.5 10.875 C-5.375 9.6875 -5.375 9.6875 -6.5 7.875 C-6.3579936 5.03487202 -5.82548508 3.36322761 -4.25 1 C-2.5 -0.125 -2.5 -0.125 0 0 Z " fill="#C2DF3E" transform="translate(686.5,23.125)"/>
<path d="M0 0 C3.6413205 -0.33102914 5.41472925 -0.42019439 8.4375 1.75 C10 4 10 4 9.8125 6.125 C9.24551958 7.43341635 8.63771783 8.72456434 8 10 C5.75 10.875 5.75 10.875 3 11 C0.1875 9.0625 0.1875 9.0625 -2 7 C-1.125 2.25 -1.125 2.25 0 0 Z " fill="#EE28A1" transform="translate(133,27)"/>
<path d="M0 0 C3.6413205 -0.33102914 5.41472925 -0.42019439 8.4375 1.75 C10 4 10 4 9.8125 6.125 C9.24551958 7.43341635 8.63771783 8.72456434 8 10 C5.75 10.875 5.75 10.875 3 11 C0.1875 9.0625 0.1875 9.0625 -2 7 C-1.125 2.25 -1.125 2.25 0 0 Z " fill="#EE28A1" transform="translate(658,19)"/>
<path d="M0 0 C1.875 2.25 1.875 2.25 3 5 C2.75495152 7.20543633 2.57580336 8.42419664 1 10 C-2.375 10.3125 -2.375 10.3125 -6 10 C-8 8.3125 -8 8.3125 -9 6 C-8.6875 3.25 -8.6875 3.25 -8 1 C-4.95729435 -0.01423522 -3.15860793 -0.47379119 0 0 Z " fill="#EE29A1" transform="translate(538,5)"/>
<path d="M0 0 C2.3125 0.75 2.3125 0.75 3.3125 1.75 C3.5 5.1875 3.5 5.1875 3.3125 8.75 C2.6525 9.41 1.9925 10.07 1.3125 10.75 C-2.3125 10.375 -2.3125 10.375 -5.6875 9.75 C-6.0175 7.44 -6.3475 5.13 -6.6875 2.75 C-4.28017516 0.52099552 -3.34709579 -0.31135775 0 0 Z " fill="#EE26A0" transform="translate(438.6875,18.25)"/>
<path d="M0 0 C0.68066494 2.99492576 1.17005683 5.30087749 0.4375 8.3125 C-1 10 -1 10 -3.9375 10.875 C-7 11 -7 11 -10 9 C-9.51578947 3.55263158 -9.51578947 3.55263158 -7.25 1.125 C-4.63695229 -0.18152386 -2.88466476 -0.24038873 0 0 Z " fill="#3EDFD9" transform="translate(510,22)"/>
<path d="M0 0 C0.7425 0.391875 1.485 0.78375 2.25 1.1875 C2.58 3.4975 2.91 5.8075 3.25 8.1875 C0.25 10.1875 0.25 10.1875 -2.3125 9.9375 C-4.75 9.1875 -4.75 9.1875 -6.75 7.1875 C-7.125 4.75 -7.125 4.75 -6.75 2.1875 C-4.35473374 -0.56262052 -3.55577952 -1.05057122 0 0 Z " fill="#3EDFD9" transform="translate(120.75,17.8125)"/>
<path d="M0 0 C2.77869928 0.2137461 4.55155611 0.7010374 6.875 2.25 C8 4 8 4 7.875 6.5625 C7 9 7 9 4 11 C-0.54054054 10.45945946 -0.54054054 10.45945946 -2 9 C-2.1875 5.5625 -2.1875 5.5625 -2 2 C-1.34 1.34 -0.68 0.68 0 0 Z " fill="#ED249F" transform="translate(393,8)"/>
<path d="M0 0 C2.475 0.99 2.475 0.99 5 2 C5.1875 5.375 5.1875 5.375 5 9 C2 11 2 11 -0.5625 10.75 C-3 10 -3 10 -5 8 C-5.125 5.375 -5.125 5.375 -5 3 C-3.35 2.67 -1.7 2.34 0 2 C0 1.34 0 0.68 0 0 Z " fill="#C2DF3E" transform="translate(319,12)"/>
<path d="M0 0 C3.1875 0.875 3.1875 0.875 6 2 C6.125 4.875 6.125 4.875 6 8 C4 10 4 10 0.9375 10.1875 C-2 10 -2 10 -3 9 C-3.25 5.5625 -3.25 5.5625 -3 2 C-2.01 1.34 -1.02 0.68 0 0 Z " fill="#EE29A1" transform="translate(252,22)"/>
<path d="M0 0 C2.625 0.25 2.625 0.25 4.5 1.4375 C5.625 3.25 5.625 3.25 5.625 5.8125 C4.625 8.25 4.625 8.25 2.3125 9.75 C-0.375 10.25 -0.375 10.25 -2.6875 8.875 C-3.244375 8.33875 -3.80125 7.8025 -4.375 7.25 C-3.34769625 0.35238908 -3.34769625 0.35238908 0 0 Z " fill="#C2DF3E" transform="translate(56.375,17.75)"/>
<path d="M0 0 C2.625 0.25 2.625 0.25 4.5 1.4375 C5.625 3.25 5.625 3.25 5.625 5.8125 C4.625 8.25 4.625 8.25 2.3125 9.75 C-0.375 10.25 -0.375 10.25 -2.6875 8.875 C-3.244375 8.33875 -3.80125 7.8025 -4.375 7.25 C-3.34769625 0.35238908 -3.34769625 0.35238908 0 0 Z " fill="#C2DF3E" transform="translate(581.375,9.75)"/>
<path d="M0 0 C-3.61328125 4.6875 -3.61328125 4.6875 -5 6 C-5.99 6 -6.98 6 -8 6 C-8.08507812 6.61230469 -8.17015625 7.22460938 -8.2578125 7.85546875 C-9 10 -9 10 -10.7421875 11.30078125 C-11.44601562 11.63464844 -12.14984375 11.96851563 -12.875 12.3125 C-13.92300781 12.83263672 -13.92300781 12.83263672 -14.9921875 13.36328125 C-17 14 -17 14 -20 13 C-19.34 13 -18.68 13 -18 13 C-17.73960937 12.40316406 -17.47921875 11.80632813 -17.2109375 11.19140625 C-15.24395085 7.63179493 -12.12998817 5.51667968 -9 3 C-8.29875 2.38125 -7.5975 1.7625 -6.875 1.125 C-4.47277829 -0.31633302 -2.75126528 -0.22927211 0 0 Z " fill="#F8FDFD" transform="translate(294,0)"/>
<path d="M0 0 C5.61916048 -0.86448623 8.44093905 1.33875587 12.80859375 4.46484375 C15.43899333 6.30753009 18.09031808 7.65706988 21 9 C20.01 9.99 19.02 10.98 18 12 C15.36 10.68 12.72 9.36 10 8 C10 7.34 10 6.68 10 6 C9.46375 5.9175 8.9275 5.835 8.375 5.75 C5.14748846 4.73078583 2.72305958 2.98040697 0 1 C0 0.67 0 0.34 0 0 Z " fill="#FDFEFE" transform="translate(622,0)"/>
<path d="M0 0 C3 0.125 3 0.125 4 1.125 C4.1875 4.0625 4.1875 4.0625 4 7.125 C3.34 7.785 2.68 8.445 2 9.125 C-1.29714793 8.79528521 -2.6226839 8.5023161 -5 6.125 C-4.27477017 0.17811542 -4.27477017 0.17811542 0 0 Z " fill="#C1DE3B" transform="translate(235,31.875)"/>
<path d="M0 0 C3 0.125 3 0.125 4 1.125 C4.1875 4.0625 4.1875 4.0625 4 7.125 C3.34 7.785 2.68 8.445 2 9.125 C-1.29714793 8.79528521 -2.6226839 8.5023161 -5 6.125 C-4.27477017 0.17811542 -4.27477017 0.17811542 0 0 Z " fill="#C1DE3B" transform="translate(760,23.875)"/>
<path d="M0 0 C-0.37694626 2.48996898 -0.69051158 3.71366532 -2.56640625 5.44921875 C-7.48379311 8.49973075 -11.21245198 9.68995278 -17 10 C-17.33 9.34 -17.66 8.68 -18 8 C-15.3773768 6.66180502 -12.75213401 5.3292849 -10.125 4 C-9.00544922 3.42765625 -9.00544922 3.42765625 -7.86328125 2.84375 C-7.14785156 2.4828125 -6.43242187 2.121875 -5.6953125 1.75 C-5.03547363 1.41484375 -4.37563477 1.0796875 -3.69580078 0.734375 C-2 0 -2 0 0 0 Z " fill="#FEFDFE" transform="translate(272,14)"/>
<path d="M0 0 C-0.33 1.32 -0.66 2.64 -1 4 C-3.26786642 4.27561917 -5.53958279 4.51971457 -7.8125 4.75 C-9.70935547 4.95882813 -9.70935547 4.95882813 -11.64453125 5.171875 C-15 5 -15 5 -16.94921875 3.015625 C-17.29597656 2.35046875 -17.64273438 1.6853125 -18 1 C-15.56257869 0.83210874 -13.12507454 0.66563867 -10.6875 0.5 C-9.99720703 0.45230469 -9.30691406 0.40460937 -8.59570312 0.35546875 C-5.72337641 0.16120511 -2.87986212 0 0 0 Z " fill="#FAFEFC" transform="translate(53,19)"/>
<path d="M0 0 C-0.33 1.32 -0.66 2.64 -1 4 C-3.26786642 4.27561917 -5.53958279 4.51971457 -7.8125 4.75 C-9.70935547 4.95882813 -9.70935547 4.95882813 -11.64453125 5.171875 C-15 5 -15 5 -16.94921875 3.015625 C-17.29597656 2.35046875 -17.64273438 1.6853125 -18 1 C-15.56257869 0.83210874 -13.12507454 0.66563867 -10.6875 0.5 C-9.99720703 0.45230469 -9.30691406 0.40460937 -8.59570312 0.35546875 C-5.72337641 0.16120511 -2.87986212 0 0 0 Z " fill="#FAFEFC" transform="translate(578,11)"/>
<path d="M0 0 C0.33 1.32 0.66 2.64 1 4 C-0.72290605 4.70304222 -2.45367466 5.38683491 -4.1875 6.0625 C-5.63189453 6.63677734 -5.63189453 6.63677734 -7.10546875 7.22265625 C-10.20934675 8.05622133 -11.94919117 7.88679818 -15 7 C-15 6.34 -15 5.68 -15 5 C-10.05 3.35 -5.1 1.7 0 0 Z " fill="#FBFAFC" transform="translate(390,11)"/>
<path d="M0 0 C-0.203125 1.88671875 -0.203125 1.88671875 -1 4 C-3.109375 5.08203125 -3.109375 5.08203125 -5.75 5.8125 C-6.61109375 6.06644531 -7.4721875 6.32039063 -8.359375 6.58203125 C-11.21171419 7.03351097 -13.22627691 6.73334046 -16 6 C-13.50063756 3.50063756 -11.35191992 2.96276247 -8 1.875 C-6.9275 1.52179687 -5.855 1.16859375 -4.75 0.8046875 C-2 0 -2 0 0 0 Z " fill="#FEFEFE" transform="translate(249,25)"/>
<path d="M0 0 C-0.203125 1.88671875 -0.203125 1.88671875 -1 4 C-3.109375 5.08203125 -3.109375 5.08203125 -5.75 5.8125 C-6.61109375 6.06644531 -7.4721875 6.32039063 -8.359375 6.58203125 C-11.21171419 7.03351097 -13.22627691 6.73334046 -16 6 C-13.50063756 3.50063756 -11.35191992 2.96276247 -8 1.875 C-6.9275 1.52179687 -5.855 1.16859375 -4.75 0.8046875 C-2 0 -2 0 0 0 Z " fill="#FEFEFE" transform="translate(774,17)"/>
<path d="M0 0 C1.95979427 0.28168297 3.91782378 0.57566717 5.875 0.875 C7.51082031 1.11863281 7.51082031 1.11863281 9.1796875 1.3671875 C12 2 12 2 14 4 C13.34 4.66 12.68 5.32 12 6 C3.44248985 5.58592693 3.44248985 5.58592693 0 2 C0 1.34 0 0.68 0 0 Z " fill="#FCFBFC" transform="translate(15,16)"/>
<path d="M0 0 C1.95979427 0.28168297 3.91782378 0.57566717 5.875 0.875 C7.51082031 1.11863281 7.51082031 1.11863281 9.1796875 1.3671875 C12 2 12 2 14 4 C13.34 4.66 12.68 5.32 12 6 C3.44248985 5.58592693 3.44248985 5.58592693 0 2 C0 1.34 0 0.68 0 0 Z " fill="#FCFBFC" transform="translate(540,8)"/>
<path d="M0 0 C-1.46293216 2.92586433 -3.40270098 3.05946588 -6.4375 4.125 C-7.42621094 4.47820313 -8.41492188 4.83140625 -9.43359375 5.1953125 C-12 6 -12 6 -14 6 C-14 5.34 -14 4.68 -14 4 C-14.66 3.67 -15.32 3.34 -16 3 C-10.28264895 0.54970669 -6.20970773 -0.33266291 0 0 Z " fill="#FDFEFE" transform="translate(619,0)"/>
<path d="M0 0 C2.4375 0.375 2.4375 0.375 5 1 C5.33 1.66 5.66 2.32 6 3 C5.01 4.485 5.01 4.485 4 6 C2.35 5.67 0.7 5.34 -1 5 C-0.67 3.35 -0.34 1.7 0 0 Z " fill="#3EDFD9" transform="translate(187,37)"/>
<path d="M0 0 C2.4375 0.375 2.4375 0.375 5 1 C5.33 1.66 5.66 2.32 6 3 C5.01 4.485 5.01 4.485 4 6 C2.35 5.67 0.7 5.34 -1 5 C-0.67 3.35 -0.34 1.7 0 0 Z " fill="#3EDFD9" transform="translate(712,29)"/>
<path d="M0 0 C3.125 0.375 3.125 0.375 6 1 C5.67 2.32 5.34 3.64 5 5 C3.68 5.33 2.36 5.66 1 6 C0.01 4.68 -0.98 3.36 -2 2 C-1.34 1.34 -0.68 0.68 0 0 Z " fill="#C0DE39" transform="translate(470,30)"/>
<path d="M0 0 C3.96 1.98 3.96 1.98 8 4 C8 4.66 8 5.32 8 6 C2.25 6.125 2.25 6.125 0 5 C0 3.35 0 1.7 0 0 Z " fill="#FEFEFE" transform="translate(0,8)"/>
<path d="M0 0 C3 1 3 1 3 1 Z " fill="#FFFFFF" transform="translate(413,8)"/>
</svg>
